ISO-10303-21;
HEADER;

/* File generated by Shapr3D Version 26.100.11031.0 */

FILE_DESCRIPTION(('HOOPS Exchange Step'),'2;1');

FILE_NAME('C:\\Users\\cybdo\\AppData\\Local\\Packages\\Shapr3D.Shapr3D_j403pzjkqtqbj\\TempState\\export\\temp_export',
'2026-06-21T21:33:01+10:00',
('cybdo'),
('Shapr3D Limited'),
'HOOPS Exchange 2026.3',
'Shapr3D',
'Authorized');

FILE_SCHEMA( ('AP242_MANAGED_MODEL_BASED_3D_ENGINEERING_MIM_LF {1 0 10303 442 1 1 4}') );

ENDSEC;

DATA;
#3=(NAMED_UNIT(*)PLANE_ANGLE_UNIT()SI_UNIT($,.RADIAN.));
#4=PLANE_ANGLE_MEASURE_WITH_UNIT(PLANE_ANGLE_MEASURE(0.0174532925),#3);
#5=(CONVERSION_BASED_UNIT('DEGREE',#4)NAMED_UNIT(#6)PLANE_ANGLE_UNIT());
#6=DIMENSIONAL_EXPONENTS(0.,0.,0.,0.,0.,0.,0.);
#7=(NAMED_UNIT(*)SI_UNIT($,.STERADIAN.)SOLID_ANGLE_UNIT());
#8=(LENGTH_UNIT()NAMED_UNIT(*)SI_UNIT(.MILLI.,.METRE.));
#9=UNCERTAINTY_MEASURE_WITH_UNIT(LENGTH_MEASURE(1.000000E-05),#8,'DISTANCE_ACCURACY_VALUE','Maximum Tolerance applied to model');
#10=(GEOMETRIC_REPRESENTATION_CONTEXT(3)GLOBAL_UNCERTAINTY_ASSIGNED_CONTEXT((#9))GLOBAL_UNIT_ASSIGNED_CONTEXT((#8,#5,#7))REPRESENTATION_CONTEXT('','root'));
#12=CARTESIAN_POINT('',(0.,0.,0.));
#13=DIRECTION('',(0.,0.,1.));
#14=DIRECTION('',(1.,0.,0.));
#15=AXIS2_PLACEMENT_3D('',#12,#13,#14);
#27=CARTESIAN_POINT('',(631.,-0.,-5.));
#28=DIRECTION('',(-0.,-1.,0.));
#29=DIRECTION('',(1.,-0.,0.));
#30=AXIS2_PLACEMENT_3D('',#27,#28,#29);
#31=PLANE('',#30);
#32=CARTESIAN_POINT('',(560.456127788,0.,-14.878011175));
#33=VERTEX_POINT('',#32);
#34=CARTESIAN_POINT('',(546.056127788,0.,-14.878011175));
#35=VERTEX_POINT('',#34);
#36=CARTESIAN_POINT('',(560.456127788,0.,-14.878011175));
#37=DIRECTION('',(-1.,-0.,0.));
#38=VECTOR('',#37,14.4);
#39=LINE('',#36,#38);
#40=EDGE_CURVE('',#33,#35,#39,.T.);
#41=ORIENTED_EDGE('',*,*,#40,.T.);
#42=CARTESIAN_POINT('',(546.056127788,0.,-10.378011175));
#43=VERTEX_POINT('',#42);
#44=CARTESIAN_POINT('',(546.056127788,0.,-14.878011175));
#45=DIRECTION('',(0.,0.,1.));
#46=VECTOR('',#45,4.5);
#47=LINE('',#44,#46);
#48=EDGE_CURVE('',#35,#43,#47,.T.);
#49=ORIENTED_EDGE('',*,*,#48,.T.);
#50=CARTESIAN_POINT('',(560.456127788,-0.,-10.378011175));
#51=VERTEX_POINT('',#50);
#52=CARTESIAN_POINT('',(546.056127788,0.,-10.378011175));
#53=DIRECTION('',(1.,0.,0.));
#54=VECTOR('',#53,14.4);
#55=LINE('',#52,#54);
#56=EDGE_CURVE('',#43,#51,#55,.T.);
#57=ORIENTED_EDGE('',*,*,#56,.T.);
#58=CARTESIAN_POINT('',(560.456127788,0.,-10.378011175));
#59=DIRECTION('',(0.,0.,-1.));
#60=VECTOR('',#59,4.5);
#61=LINE('',#58,#60);
#62=EDGE_CURVE('',#51,#33,#61,.T.);
#63=ORIENTED_EDGE('',*,*,#62,.T.);
#64=EDGE_LOOP('',(#41,#49,#57,#63));
#65=FACE_BOUND('',#64,.T.);
#66=CARTESIAN_POINT('',(510.456127788,0.,-14.878011175));
#67=VERTEX_POINT('',#66);
#68=CARTESIAN_POINT('',(496.056127788,0.,-14.878011175));
#69=VERTEX_POINT('',#68);
#70=CARTESIAN_POINT('',(510.456127788,0.,-14.878011175));
#71=DIRECTION('',(-1.,-0.,0.));
#72=VECTOR('',#71,14.4);
#73=LINE('',#70,#72);
#74=EDGE_CURVE('',#67,#69,#73,.T.);
#75=ORIENTED_EDGE('',*,*,#74,.T.);
#76=CARTESIAN_POINT('',(496.056127788,0.,-10.378011175));
#77=VERTEX_POINT('',#76);
#78=CARTESIAN_POINT('',(496.056127788,0.,-14.878011175));
#79=DIRECTION('',(0.,0.,1.));
#80=VECTOR('',#79,4.5);
#81=LINE('',#78,#80);
#82=EDGE_CURVE('',#69,#77,#81,.T.);
#83=ORIENTED_EDGE('',*,*,#82,.T.);
#84=CARTESIAN_POINT('',(510.456127788,-0.,-10.378011175));
#85=VERTEX_POINT('',#84);
#86=CARTESIAN_POINT('',(496.056127788,0.,-10.378011175));
#87=DIRECTION('',(1.,0.,0.));
#88=VECTOR('',#87,14.4);
#89=LINE('',#86,#88);
#90=EDGE_CURVE('',#77,#85,#89,.T.);
#91=ORIENTED_EDGE('',*,*,#90,.T.);
#92=CARTESIAN_POINT('',(510.456127788,0.,-10.378011175));
#93=DIRECTION('',(0.,0.,-1.));
#94=VECTOR('',#93,4.5);
#95=LINE('',#92,#94);
#96=EDGE_CURVE('',#85,#67,#95,.T.);
#97=ORIENTED_EDGE('',*,*,#96,.T.);
#98=EDGE_LOOP('',(#75,#83,#91,#97));
#99=FACE_BOUND('',#98,.T.);
#100=CARTESIAN_POINT('',(483.,-0.,-23.));
#101=VERTEX_POINT('',#100);
#102=CARTESIAN_POINT('',(581.,-0.,-23.));
#103=VERTEX_POINT('',#102);
#104=CARTESIAN_POINT('',(483.,-0.,-23.));
#105=DIRECTION('',(1.,-0.,0.));
#106=VECTOR('',#105,98.);
#107=LINE('',#104,#106);
#108=EDGE_CURVE('',#101,#103,#107,.T.);
#109=ORIENTED_EDGE('',*,*,#108,.T.);
#110=CARTESIAN_POINT('',(581.,-0.,0.));
#111=VERTEX_POINT('',#110);
#112=CARTESIAN_POINT('',(581.,-0.,-23.));
#113=DIRECTION('',(0.,0.,1.));
#114=VECTOR('',#113,23.);
#115=LINE('',#112,#114);
#116=EDGE_CURVE('',#103,#111,#115,.T.);
#117=ORIENTED_EDGE('',*,*,#116,.T.);
#118=CARTESIAN_POINT('',(483.,-0.,0.));
#119=VERTEX_POINT('',#118);
#120=CARTESIAN_POINT('',(483.,-0.,0.));
#121=DIRECTION('',(1.,-0.,0.));
#122=VECTOR('',#121,98.);
#123=LINE('',#120,#122);
#124=EDGE_CURVE('',#119,#111,#123,.T.);
#125=ORIENTED_EDGE('',*,*,#124,.F.);
#126=CARTESIAN_POINT('',(483.,-0.,0.));
#127=DIRECTION('',(-0.,-0.,-1.));
#128=VECTOR('',#127,23.);
#129=LINE('',#126,#128);
#130=EDGE_CURVE('',#119,#101,#129,.T.);
#131=ORIENTED_EDGE('',*,*,#130,.T.);
#132=EDGE_LOOP('',(#109,#117,#125,#131));
#133=FACE_BOUND('',#132,.T.);
#134=ADVANCED_FACE('',(#65,#99,#133),#31,.T.);
#135=CARTESIAN_POINT('',(472.,60.,-26.5));
#136=DIRECTION('',(0.,0.058234338,0.998302941));
#137=DIRECTION('',(0.,-0.998302941,0.058234338));
#138=AXIS2_PLACEMENT_3D('',#135,#136,#137);
#139=PLANE('',#138);
#140=CARTESIAN_POINT('',(581.,120.,-30.));
#141=VERTEX_POINT('',#140);
#142=CARTESIAN_POINT('',(483.,120.,-30.));
#143=VERTEX_POINT('',#142);
#144=CARTESIAN_POINT('',(581.,120.,-30.));
#145=DIRECTION('',(-1.,0.,0.));
#146=VECTOR('',#145,98.);
#147=LINE('',#144,#146);
#148=EDGE_CURVE('',#141,#143,#147,.T.);
#149=ORIENTED_EDGE('',*,*,#148,.F.);
#150=CARTESIAN_POINT('',(583.,118.,-29.883333333));
#151=VERTEX_POINT('',#150);
#152=CARTESIAN_POINT('',(581.,118.,-29.883333333));
#153=DIRECTION('',(-0.,-0.058234338,-0.998302941));
#154=DIRECTION('',(0.,0.998302941,-0.058234338));
#155=AXIS2_PLACEMENT_3D('',#152,#153,#154);
#156=ELLIPSE('',#155,2.003399888,2.);
#157=EDGE_CURVE('',#141,#151,#156,.T.);
#158=ORIENTED_EDGE('',*,*,#157,.T.);
#159=CARTESIAN_POINT('',(583.,2.,-23.116666667));
#160=VERTEX_POINT('',#159);
#161=CARTESIAN_POINT('',(583.,118.,-29.883333333));
#162=DIRECTION('',(0.,-0.998302941,0.058234338));
#163=VECTOR('',#162,116.197193502);
#164=LINE('',#161,#163);
#165=EDGE_CURVE('',#151,#160,#164,.T.);
#166=ORIENTED_EDGE('',*,*,#165,.T.);
#167=CARTESIAN_POINT('',(581.,2.,-23.116666667));
#168=DIRECTION('',(-0.,-0.058234338,-0.998302941));
#169=DIRECTION('',(-0.,-0.998302941,0.058234338));
#170=AXIS2_PLACEMENT_3D('',#167,#168,#169);
#171=ELLIPSE('',#170,2.003399888,2.);
#172=EDGE_CURVE('',#160,#103,#171,.T.);
#173=ORIENTED_EDGE('',*,*,#172,.T.);
#174=ORIENTED_EDGE('',*,*,#108,.F.);
#175=CARTESIAN_POINT('',(481.,2.,-23.116666667));
#176=VERTEX_POINT('',#175);
#177=CARTESIAN_POINT('',(483.,2.,-23.116666667));
#178=DIRECTION('',(-0.,-0.058234338,-0.998302941));
#179=DIRECTION('',(-0.,-0.998302941,0.058234338));
#180=AXIS2_PLACEMENT_3D('',#177,#178,#179);
#181=ELLIPSE('',#180,2.003399888,2.);
#182=EDGE_CURVE('',#101,#176,#181,.T.);
#183=ORIENTED_EDGE('',*,*,#182,.T.);
#184=CARTESIAN_POINT('',(481.,118.,-29.883333333));
#185=VERTEX_POINT('',#184);
#186=CARTESIAN_POINT('',(481.,2.,-23.116666667));
#187=DIRECTION('',(0.,0.998302941,-0.058234338));
#188=VECTOR('',#187,116.197193502);
#189=LINE('',#186,#188);
#190=EDGE_CURVE('',#176,#185,#189,.T.);
#191=ORIENTED_EDGE('',*,*,#190,.T.);
#192=CARTESIAN_POINT('',(483.,118.,-29.883333333));
#193=DIRECTION('',(-0.,-0.058234338,-0.998302941));
#194=DIRECTION('',(-0.,-0.998302941,0.058234338));
#195=AXIS2_PLACEMENT_3D('',#192,#193,#194);
#196=ELLIPSE('',#195,2.003399888,2.);
#197=EDGE_CURVE('',#185,#143,#196,.T.);
#198=ORIENTED_EDGE('',*,*,#197,.T.);
#199=EDGE_LOOP('',(#149,#158,#166,#173,#174,#183,#191,#198));
#200=FACE_BOUND('',#199,.T.);
#201=CARTESIAN_POINT('',(484.,3.,-23.175));
#202=VERTEX_POINT('',#201);
#203=CARTESIAN_POINT('',(580.,3.,-23.175));
#204=VERTEX_POINT('',#203);
#205=CARTESIAN_POINT('',(484.,3.,-23.175));
#206=DIRECTION('',(1.,-0.,-0.));
#207=VECTOR('',#206,96.);
#208=LINE('',#205,#207);
#209=EDGE_CURVE('',#202,#204,#208,.T.);
#210=ORIENTED_EDGE('',*,*,#209,.T.);
#211=CARTESIAN_POINT('',(580.,117.,-29.825));
#212=VERTEX_POINT('',#211);
#213=CARTESIAN_POINT('',(580.,117.,-29.825));
#214=DIRECTION('',(0.,-0.998302941,0.058234338));
#215=VECTOR('',#214,114.193793614);
#216=LINE('',#213,#215);
#217=EDGE_CURVE('',#212,#204,#216,.T.);
#218=ORIENTED_EDGE('',*,*,#217,.F.);
#219=CARTESIAN_POINT('',(484.,117.,-29.825));
#220=VERTEX_POINT('',#219);
#221=CARTESIAN_POINT('',(580.,117.,-29.825));
#222=DIRECTION('',(-1.,0.,0.));
#223=VECTOR('',#222,96.);
#224=LINE('',#221,#223);
#225=EDGE_CURVE('',#212,#220,#224,.T.);
#226=ORIENTED_EDGE('',*,*,#225,.T.);
#227=CARTESIAN_POINT('',(484.,117.,-29.825));
#228=DIRECTION('',(0.,-0.998302941,0.058234338));
#229=VECTOR('',#228,114.193793614);
#230=LINE('',#227,#229);
#231=EDGE_CURVE('',#220,#202,#230,.T.);
#232=ORIENTED_EDGE('',*,*,#231,.T.);
#233=EDGE_LOOP('',(#210,#218,#226,#232));
#234=FACE_BOUND('',#233,.T.);
#235=ADVANCED_FACE('',(#200,#234),#139,.F.);
#236=CARTESIAN_POINT('',(631.,117.,-5.));
#237=DIRECTION('',(-0.,-1.,0.));
#238=DIRECTION('',(1.,-0.,0.));
#239=AXIS2_PLACEMENT_3D('',#236,#237,#238);
#240=PLANE('',#239);
#241=CARTESIAN_POINT('',(560.456127788,117.,-14.878011175));
#242=VERTEX_POINT('',#241);
#243=CARTESIAN_POINT('',(546.056127788,117.,-14.878011175));
#244=VERTEX_POINT('',#243);
#245=CARTESIAN_POINT('',(560.456127788,117.,-14.878011175));
#246=DIRECTION('',(-1.,0.,0.));
#247=VECTOR('',#246,14.4);
#248=LINE('',#245,#247);
#249=EDGE_CURVE('',#242,#244,#248,.T.);
#250=ORIENTED_EDGE('',*,*,#249,.T.);
#251=CARTESIAN_POINT('',(546.056127788,117.,-10.378011175));
#252=VERTEX_POINT('',#251);
#253=CARTESIAN_POINT('',(546.056127788,117.,-14.878011175));
#254=DIRECTION('',(0.,0.,1.));
#255=VECTOR('',#254,4.5);
#256=LINE('',#253,#255);
#257=EDGE_CURVE('',#244,#252,#256,.T.);
#258=ORIENTED_EDGE('',*,*,#257,.T.);
#259=CARTESIAN_POINT('',(560.456127788,117.,-10.378011175));
#260=VERTEX_POINT('',#259);
#261=CARTESIAN_POINT('',(546.056127788,117.,-10.378011175));
#262=DIRECTION('',(1.,-0.,0.));
#263=VECTOR('',#262,14.4);
#264=LINE('',#261,#263);
#265=EDGE_CURVE('',#252,#260,#264,.T.);
#266=ORIENTED_EDGE('',*,*,#265,.T.);
#267=CARTESIAN_POINT('',(560.456127788,117.,-10.378011175));
#268=DIRECTION('',(0.,0.,-1.));
#269=VECTOR('',#268,4.5);
#270=LINE('',#267,#269);
#271=EDGE_CURVE('',#260,#242,#270,.T.);
#272=ORIENTED_EDGE('',*,*,#271,.T.);
#273=EDGE_LOOP('',(#250,#258,#266,#272));
#274=FACE_BOUND('',#273,.T.);
#275=CARTESIAN_POINT('',(510.456127788,117.,-14.878011175));
#276=VERTEX_POINT('',#275);
#277=CARTESIAN_POINT('',(496.056127788,117.,-14.878011175));
#278=VERTEX_POINT('',#277);
#279=CARTESIAN_POINT('',(510.456127788,117.,-14.878011175));
#280=DIRECTION('',(-1.,0.,0.));
#281=VECTOR('',#280,14.4);
#282=LINE('',#279,#281);
#283=EDGE_CURVE('',#276,#278,#282,.T.);
#284=ORIENTED_EDGE('',*,*,#283,.T.);
#285=CARTESIAN_POINT('',(496.056127788,117.,-10.378011175));
#286=VERTEX_POINT('',#285);
#287=CARTESIAN_POINT('',(496.056127788,117.,-14.878011175));
#288=DIRECTION('',(0.,0.,1.));
#289=VECTOR('',#288,4.5);
#290=LINE('',#287,#289);
#291=EDGE_CURVE('',#278,#286,#290,.T.);
#292=ORIENTED_EDGE('',*,*,#291,.T.);
#293=CARTESIAN_POINT('',(510.456127788,117.,-10.378011175));
#294=VERTEX_POINT('',#293);
#295=CARTESIAN_POINT('',(496.056127788,117.,-10.378011175));
#296=DIRECTION('',(1.,-0.,0.));
#297=VECTOR('',#296,14.4);
#298=LINE('',#295,#297);
#299=EDGE_CURVE('',#286,#294,#298,.T.);
#300=ORIENTED_EDGE('',*,*,#299,.T.);
#301=CARTESIAN_POINT('',(510.456127788,117.,-10.378011175));
#302=DIRECTION('',(0.,0.,-1.));
#303=VECTOR('',#302,4.5);
#304=LINE('',#301,#303);
#305=EDGE_CURVE('',#294,#276,#304,.T.);
#306=ORIENTED_EDGE('',*,*,#305,.T.);
#307=EDGE_LOOP('',(#284,#292,#300,#306));
#308=FACE_BOUND('',#307,.T.);
#309=ORIENTED_EDGE('',*,*,#225,.F.);
#310=CARTESIAN_POINT('',(580.,117.,-5.));
#311=VERTEX_POINT('',#310);
#312=CARTESIAN_POINT('',(580.,117.,-29.825));
#313=DIRECTION('',(0.,0.,1.));
#314=VECTOR('',#313,24.825);
#315=LINE('',#312,#314);
#316=EDGE_CURVE('',#212,#311,#315,.T.);
#317=ORIENTED_EDGE('',*,*,#316,.T.);
#318=CARTESIAN_POINT('',(484.,117.,-5.));
#319=VERTEX_POINT('',#318);
#320=CARTESIAN_POINT('',(580.,117.,-5.));
#321=DIRECTION('',(-1.,0.,0.));
#322=VECTOR('',#321,96.);
#323=LINE('',#320,#322);
#324=EDGE_CURVE('',#311,#319,#323,.T.);
#325=ORIENTED_EDGE('',*,*,#324,.T.);
#326=CARTESIAN_POINT('',(484.,117.,-5.));
#327=DIRECTION('',(0.,0.,-1.));
#328=VECTOR('',#327,24.825);
#329=LINE('',#326,#328);
#330=EDGE_CURVE('',#319,#220,#329,.T.);
#331=ORIENTED_EDGE('',*,*,#330,.T.);
#332=EDGE_LOOP('',(#309,#317,#325,#331));
#333=FACE_BOUND('',#332,.T.);
#334=ADVANCED_FACE('',(#274,#308,#333),#240,.T.);
#335=CARTESIAN_POINT('',(631.,3.,-5.));
#336=DIRECTION('',(0.,1.,0.));
#337=DIRECTION('',(-1.,0.,0.));
#338=AXIS2_PLACEMENT_3D('',#335,#336,#337);
#339=PLANE('',#338);
#340=CARTESIAN_POINT('',(560.456127788,3.,-10.378011175));
#341=VERTEX_POINT('',#340);
#342=CARTESIAN_POINT('',(546.056127788,3.,-10.378011175));
#343=VERTEX_POINT('',#342);
#344=CARTESIAN_POINT('',(560.456127788,3.,-10.378011175));
#345=DIRECTION('',(-1.,0.,-0.));
#346=VECTOR('',#345,14.4);
#347=LINE('',#344,#346);
#348=EDGE_CURVE('',#341,#343,#347,.T.);
#349=ORIENTED_EDGE('',*,*,#348,.T.);
#350=CARTESIAN_POINT('',(546.056127788,3.,-14.878011175));
#351=VERTEX_POINT('',#350);
#352=CARTESIAN_POINT('',(546.056127788,3.,-10.378011175));
#353=DIRECTION('',(0.,0.,-1.));
#354=VECTOR('',#353,4.5);
#355=LINE('',#352,#354);
#356=EDGE_CURVE('',#343,#351,#355,.T.);
#357=ORIENTED_EDGE('',*,*,#356,.T.);
#358=CARTESIAN_POINT('',(560.456127788,3.,-14.878011175));
#359=VERTEX_POINT('',#358);
#360=CARTESIAN_POINT('',(546.056127788,3.,-14.878011175));
#361=DIRECTION('',(1.,-0.,0.));
#362=VECTOR('',#361,14.4);
#363=LINE('',#360,#362);
#364=EDGE_CURVE('',#351,#359,#363,.T.);
#365=ORIENTED_EDGE('',*,*,#364,.T.);
#366=CARTESIAN_POINT('',(560.456127788,3.,-14.878011175));
#367=DIRECTION('',(0.,0.,1.));
#368=VECTOR('',#367,4.5);
#369=LINE('',#366,#368);
#370=EDGE_CURVE('',#359,#341,#369,.T.);
#371=ORIENTED_EDGE('',*,*,#370,.T.);
#372=EDGE_LOOP('',(#349,#357,#365,#371));
#373=FACE_BOUND('',#372,.T.);
#374=CARTESIAN_POINT('',(510.456127788,3.,-10.378011175));
#375=VERTEX_POINT('',#374);
#376=CARTESIAN_POINT('',(496.056127788,3.,-10.378011175));
#377=VERTEX_POINT('',#376);
#378=CARTESIAN_POINT('',(510.456127788,3.,-10.378011175));
#379=DIRECTION('',(-1.,0.,-0.));
#380=VECTOR('',#379,14.4);
#381=LINE('',#378,#380);
#382=EDGE_CURVE('',#375,#377,#381,.T.);
#383=ORIENTED_EDGE('',*,*,#382,.T.);
#384=CARTESIAN_POINT('',(496.056127788,3.,-14.878011175));
#385=VERTEX_POINT('',#384);
#386=CARTESIAN_POINT('',(496.056127788,3.,-10.378011175));
#387=DIRECTION('',(0.,0.,-1.));
#388=VECTOR('',#387,4.5);
#389=LINE('',#386,#388);
#390=EDGE_CURVE('',#377,#385,#389,.T.);
#391=ORIENTED_EDGE('',*,*,#390,.T.);
#392=CARTESIAN_POINT('',(510.456127788,3.,-14.878011175));
#393=VERTEX_POINT('',#392);
#394=CARTESIAN_POINT('',(496.056127788,3.,-14.878011175));
#395=DIRECTION('',(1.,-0.,0.));
#396=VECTOR('',#395,14.4);
#397=LINE('',#394,#396);
#398=EDGE_CURVE('',#385,#393,#397,.T.);
#399=ORIENTED_EDGE('',*,*,#398,.T.);
#400=CARTESIAN_POINT('',(510.456127788,3.,-14.878011175));
#401=DIRECTION('',(0.,0.,1.));
#402=VECTOR('',#401,4.5);
#403=LINE('',#400,#402);
#404=EDGE_CURVE('',#393,#375,#403,.T.);
#405=ORIENTED_EDGE('',*,*,#404,.T.);
#406=EDGE_LOOP('',(#383,#391,#399,#405));
#407=FACE_BOUND('',#406,.T.);
#408=CARTESIAN_POINT('',(484.,3.,-5.));
#409=VERTEX_POINT('',#408);
#410=CARTESIAN_POINT('',(580.,3.,-5.));
#411=VERTEX_POINT('',#410);
#412=CARTESIAN_POINT('',(484.,3.,-5.));
#413=DIRECTION('',(1.,-0.,0.));
#414=VECTOR('',#413,96.);
#415=LINE('',#412,#414);
#416=EDGE_CURVE('',#409,#411,#415,.T.);
#417=ORIENTED_EDGE('',*,*,#416,.T.);
#418=CARTESIAN_POINT('',(580.,3.,-5.));
#419=DIRECTION('',(0.,0.,-1.));
#420=VECTOR('',#419,18.175);
#421=LINE('',#418,#420);
#422=EDGE_CURVE('',#411,#204,#421,.T.);
#423=ORIENTED_EDGE('',*,*,#422,.T.);
#424=ORIENTED_EDGE('',*,*,#209,.F.);
#425=CARTESIAN_POINT('',(484.,3.,-5.));
#426=DIRECTION('',(0.,0.,-1.));
#427=VECTOR('',#426,18.175);
#428=LINE('',#425,#427);
#429=EDGE_CURVE('',#409,#202,#428,.T.);
#430=ORIENTED_EDGE('',*,*,#429,.F.);
#431=EDGE_LOOP('',(#417,#423,#424,#430));
#432=FACE_BOUND('',#431,.T.);
#433=ADVANCED_FACE('',(#373,#407,#432),#339,.T.);
#434=CARTESIAN_POINT('',(583.,324.499614792,-23.));
#435=DIRECTION('',(1.,0.,0.));
#436=DIRECTION('',(0.,0.,-1.));
#437=AXIS2_PLACEMENT_3D('',#434,#435,#436);
#438=PLANE('',#437);
#439=CARTESIAN_POINT('',(583.,34.2,-14.25));
#440=VERTEX_POINT('',#439);
#441=CARTESIAN_POINT('',(583.,34.2,-9.75));
#442=VERTEX_POINT('',#441);
#443=CARTESIAN_POINT('',(583.,34.2,-14.25));
#444=DIRECTION('',(0.,0.,1.));
#445=VECTOR('',#444,4.5);
#446=LINE('',#443,#445);
#447=EDGE_CURVE('',#440,#442,#446,.T.);
#448=ORIENTED_EDGE('',*,*,#447,.F.);
#449=CARTESIAN_POINT('',(583.,19.8,-14.25));
#450=VERTEX_POINT('',#449);
#451=CARTESIAN_POINT('',(583.,19.8,-14.25));
#452=DIRECTION('',(0.,1.,-0.));
#453=VECTOR('',#452,14.4);
#454=LINE('',#451,#453);
#455=EDGE_CURVE('',#450,#440,#454,.T.);
#456=ORIENTED_EDGE('',*,*,#455,.F.);
#457=CARTESIAN_POINT('',(583.,19.8,-9.75));
#458=VERTEX_POINT('',#457);
#459=CARTESIAN_POINT('',(583.,19.8,-9.75));
#460=DIRECTION('',(0.,-0.,-1.));
#461=VECTOR('',#460,4.5);
#462=LINE('',#459,#461);
#463=EDGE_CURVE('',#458,#450,#462,.T.);
#464=ORIENTED_EDGE('',*,*,#463,.F.);
#465=CARTESIAN_POINT('',(583.,34.2,-9.75));
#466=DIRECTION('',(0.,-1.,0.));
#467=VECTOR('',#466,14.4);
#468=LINE('',#465,#467);
#469=EDGE_CURVE('',#442,#458,#468,.T.);
#470=ORIENTED_EDGE('',*,*,#469,.F.);
#471=EDGE_LOOP('',(#448,#456,#464,#470));
#472=FACE_BOUND('',#471,.T.);
#473=CARTESIAN_POINT('',(583.,94.2,-14.25));
#474=VERTEX_POINT('',#473);
#475=CARTESIAN_POINT('',(583.,94.2,-9.75));
#476=VERTEX_POINT('',#475);
#477=CARTESIAN_POINT('',(583.,94.2,-14.25));
#478=DIRECTION('',(0.,0.,1.));
#479=VECTOR('',#478,4.5);
#480=LINE('',#477,#479);
#481=EDGE_CURVE('',#474,#476,#480,.T.);
#482=ORIENTED_EDGE('',*,*,#481,.F.);
#483=CARTESIAN_POINT('',(583.,79.8,-14.25));
#484=VERTEX_POINT('',#483);
#485=CARTESIAN_POINT('',(583.,79.8,-14.25));
#486=DIRECTION('',(0.,1.,-0.));
#487=VECTOR('',#486,14.4);
#488=LINE('',#485,#487);
#489=EDGE_CURVE('',#484,#474,#488,.T.);
#490=ORIENTED_EDGE('',*,*,#489,.F.);
#491=CARTESIAN_POINT('',(583.,79.8,-9.75));
#492=VERTEX_POINT('',#491);
#493=CARTESIAN_POINT('',(583.,79.8,-9.75));
#494=DIRECTION('',(0.,0.,-1.));
#495=VECTOR('',#494,4.5);
#496=LINE('',#493,#495);
#497=EDGE_CURVE('',#492,#484,#496,.T.);
#498=ORIENTED_EDGE('',*,*,#497,.F.);
#499=CARTESIAN_POINT('',(583.,94.2,-9.75));
#500=DIRECTION('',(0.,-1.,0.));
#501=VECTOR('',#500,14.4);
#502=LINE('',#499,#501);
#503=EDGE_CURVE('',#476,#492,#502,.T.);
#504=ORIENTED_EDGE('',*,*,#503,.F.);
#505=EDGE_LOOP('',(#482,#490,#498,#504));
#506=FACE_BOUND('',#505,.T.);
#507=ORIENTED_EDGE('',*,*,#165,.F.);
#508=CARTESIAN_POINT('',(583.,118.,0.));
#509=VERTEX_POINT('',#508);
#510=CARTESIAN_POINT('',(583.,118.,-29.883333333));
#511=DIRECTION('',(-0.,-0.,1.));
#512=VECTOR('',#511,29.883333333);
#513=LINE('',#510,#512);
#514=EDGE_CURVE('',#151,#509,#513,.T.);
#515=ORIENTED_EDGE('',*,*,#514,.T.);
#516=CARTESIAN_POINT('',(583.,2.,0.));
#517=VERTEX_POINT('',#516);
#518=CARTESIAN_POINT('',(583.,118.,0.));
#519=DIRECTION('',(0.,-1.,0.));
#520=VECTOR('',#519,116.);
#521=LINE('',#518,#520);
#522=EDGE_CURVE('',#509,#517,#521,.T.);
#523=ORIENTED_EDGE('',*,*,#522,.T.);
#524=CARTESIAN_POINT('',(583.,2.,0.));
#525=DIRECTION('',(-0.,-0.,-1.));
#526=VECTOR('',#525,23.116666667);
#527=LINE('',#524,#526);
#528=EDGE_CURVE('',#517,#160,#527,.T.);
#529=ORIENTED_EDGE('',*,*,#528,.T.);
#530=EDGE_LOOP('',(#507,#515,#523,#529));
#531=FACE_BOUND('',#530,.T.);
#532=ADVANCED_FACE('',(#472,#506,#531),#438,.T.);
#533=CARTESIAN_POINT('',(-139.,0.,-5.));
#534=DIRECTION('',(0.,0.,-1.));
#535=DIRECTION('',(-1.,0.,0.));
#536=AXIS2_PLACEMENT_3D('',#533,#534,#535);
#537=PLANE('',#536);
#538=CARTESIAN_POINT('',(534.,112.2,-5.));
#539=VERTEX_POINT('',#538);
#540=CARTESIAN_POINT('',(529.8,112.2,-5.));
#541=VERTEX_POINT('',#540);
#542=CARTESIAN_POINT('',(531.9,112.2,-5.));
#543=DIRECTION('',(0.,0.,-1.));
#544=DIRECTION('',(-1.,0.,0.));
#545=AXIS2_PLACEMENT_3D('',#542,#543,#544);
#546=CIRCLE('',#545,2.1);
#547=EDGE_CURVE('',#539,#541,#546,.T.);
#548=ORIENTED_EDGE('',*,*,#547,.F.);
#549=CARTESIAN_POINT('',(531.9,112.2,-5.));
#550=DIRECTION('',(0.,0.,-1.));
#551=DIRECTION('',(-1.,0.,0.));
#552=AXIS2_PLACEMENT_3D('',#549,#550,#551);
#553=CIRCLE('',#552,2.1);
#554=EDGE_CURVE('',#541,#539,#553,.T.);
#555=ORIENTED_EDGE('',*,*,#554,.F.);
#556=EDGE_LOOP('',(#548,#555));
#557=FACE_BOUND('',#556,.T.);
#558=CARTESIAN_POINT('',(575.692245579,60.044921935,-5.));
#559=VERTEX_POINT('',#558);
#560=CARTESIAN_POINT('',(571.492245579,60.044921935,-5.));
#561=VERTEX_POINT('',#560);
#562=CARTESIAN_POINT('',(573.592245579,60.044921935,-5.));
#563=DIRECTION('',(0.,0.,-1.));
#564=DIRECTION('',(-1.,0.,0.));
#565=AXIS2_PLACEMENT_3D('',#562,#563,#564);
#566=CIRCLE('',#565,2.1);
#567=EDGE_CURVE('',#559,#561,#566,.T.);
#568=ORIENTED_EDGE('',*,*,#567,.F.);
#569=CARTESIAN_POINT('',(573.592245579,60.044921935,-5.));
#570=DIRECTION('',(0.,0.,-1.));
#571=DIRECTION('',(-1.,0.,0.));
#572=AXIS2_PLACEMENT_3D('',#569,#570,#571);
#573=CIRCLE('',#572,2.1);
#574=EDGE_CURVE('',#561,#559,#573,.T.);
#575=ORIENTED_EDGE('',*,*,#574,.F.);
#576=EDGE_LOOP('',(#568,#575));
#577=FACE_BOUND('',#576,.T.);
#578=CARTESIAN_POINT('',(534.,8.7,-5.));
#579=VERTEX_POINT('',#578);
#580=CARTESIAN_POINT('',(529.8,8.7,-5.));
#581=VERTEX_POINT('',#580);
#582=CARTESIAN_POINT('',(531.9,8.7,-5.));
#583=DIRECTION('',(0.,0.,-1.));
#584=DIRECTION('',(-1.,0.,0.));
#585=AXIS2_PLACEMENT_3D('',#582,#583,#584);
#586=CIRCLE('',#585,2.1);
#587=EDGE_CURVE('',#579,#581,#586,.T.);
#588=ORIENTED_EDGE('',*,*,#587,.F.);
#589=CARTESIAN_POINT('',(531.9,8.7,-5.));
#590=DIRECTION('',(0.,0.,-1.));
#591=DIRECTION('',(-1.,0.,0.));
#592=AXIS2_PLACEMENT_3D('',#589,#590,#591);
#593=CIRCLE('',#592,2.1);
#594=EDGE_CURVE('',#581,#579,#593,.T.);
#595=ORIENTED_EDGE('',*,*,#594,.F.);
#596=EDGE_LOOP('',(#588,#595));
#597=FACE_BOUND('',#596,.T.);
#598=ORIENTED_EDGE('',*,*,#324,.F.);
#599=CARTESIAN_POINT('',(580.,117.,-5.));
#600=DIRECTION('',(0.,-1.,0.));
#601=VECTOR('',#600,114.);
#602=LINE('',#599,#601);
#603=EDGE_CURVE('',#311,#411,#602,.T.);
#604=ORIENTED_EDGE('',*,*,#603,.T.);
#605=ORIENTED_EDGE('',*,*,#416,.F.);
#606=CARTESIAN_POINT('',(484.,117.,-5.));
#607=DIRECTION('',(0.,-1.,0.));
#608=VECTOR('',#607,114.);
#609=LINE('',#606,#608);
#610=EDGE_CURVE('',#319,#409,#609,.T.);
#611=ORIENTED_EDGE('',*,*,#610,.F.);
#612=EDGE_LOOP('',(#598,#604,#605,#611));
#613=FACE_BOUND('',#612,.T.);
#614=ADVANCED_FACE('',(#557,#577,#597,#613),#537,.T.);
#615=CARTESIAN_POINT('',(838.,79.8,-12.));
#616=DIRECTION('',(0.,1.,0.));
#617=DIRECTION('',(0.,0.,1.));
#618=AXIS2_PLACEMENT_3D('',#615,#616,#617);
#619=PLANE('',#618);
#620=CARTESIAN_POINT('',(484.,79.8,-14.25));
#621=VERTEX_POINT('',#620);
#622=CARTESIAN_POINT('',(481.,79.8,-14.25));
#623=VERTEX_POINT('',#622);
#624=CARTESIAN_POINT('',(484.,79.8,-14.25));
#625=DIRECTION('',(-1.,0.,0.));
#626=VECTOR('',#625,3.);
#627=LINE('',#624,#626);
#628=EDGE_CURVE('',#621,#623,#627,.T.);
#629=ORIENTED_EDGE('',*,*,#628,.T.);
#630=CARTESIAN_POINT('',(481.,79.8,-9.75));
#631=VERTEX_POINT('',#630);
#632=CARTESIAN_POINT('',(481.,79.8,-9.75));
#633=DIRECTION('',(0.,0.,-1.));
#634=VECTOR('',#633,4.5);
#635=LINE('',#632,#634);
#636=EDGE_CURVE('',#631,#623,#635,.T.);
#637=ORIENTED_EDGE('',*,*,#636,.F.);
#638=CARTESIAN_POINT('',(484.,79.8,-9.75));
#639=VERTEX_POINT('',#638);
#640=CARTESIAN_POINT('',(484.,79.8,-9.75));
#641=DIRECTION('',(-1.,0.,0.));
#642=VECTOR('',#641,3.);
#643=LINE('',#640,#642);
#644=EDGE_CURVE('',#639,#631,#643,.T.);
#645=ORIENTED_EDGE('',*,*,#644,.F.);
#646=CARTESIAN_POINT('',(484.,79.8,-14.25));
#647=DIRECTION('',(0.,0.,1.));
#648=VECTOR('',#647,4.5);
#649=LINE('',#646,#648);
#650=EDGE_CURVE('',#621,#639,#649,.T.);
#651=ORIENTED_EDGE('',*,*,#650,.F.);
#652=EDGE_LOOP('',(#629,#637,#645,#651));
#653=FACE_BOUND('',#652,.T.);
#654=ADVANCED_FACE('',(#653),#619,.T.);
#655=CARTESIAN_POINT('',(838.,87.,-14.25));
#656=DIRECTION('',(0.,0.,1.));
#657=DIRECTION('',(0.,-1.,0.));
#658=AXIS2_PLACEMENT_3D('',#655,#656,#657);
#659=PLANE('',#658);
#660=CARTESIAN_POINT('',(484.,94.2,-14.25));
#661=VERTEX_POINT('',#660);
#662=CARTESIAN_POINT('',(481.,94.2,-14.25));
#663=VERTEX_POINT('',#662);
#664=CARTESIAN_POINT('',(484.,94.2,-14.25));
#665=DIRECTION('',(-1.,0.,0.));
#666=VECTOR('',#665,3.);
#667=LINE('',#664,#666);
#668=EDGE_CURVE('',#661,#663,#667,.T.);
#669=ORIENTED_EDGE('',*,*,#668,.T.);
#670=CARTESIAN_POINT('',(481.,79.8,-14.25));
#671=DIRECTION('',(0.,1.,-0.));
#672=VECTOR('',#671,14.4);
#673=LINE('',#670,#672);
#674=EDGE_CURVE('',#623,#663,#673,.T.);
#675=ORIENTED_EDGE('',*,*,#674,.F.);
#676=ORIENTED_EDGE('',*,*,#628,.F.);
#677=CARTESIAN_POINT('',(484.,94.2,-14.25));
#678=DIRECTION('',(0.,-1.,0.));
#679=VECTOR('',#678,14.4);
#680=LINE('',#677,#679);
#681=EDGE_CURVE('',#661,#621,#680,.T.);
#682=ORIENTED_EDGE('',*,*,#681,.F.);
#683=EDGE_LOOP('',(#669,#675,#676,#682));
#684=FACE_BOUND('',#683,.T.);
#685=ADVANCED_FACE('',(#684),#659,.T.);
#686=CARTESIAN_POINT('',(838.,94.2,-12.));
#687=DIRECTION('',(0.,-1.,0.));
#688=DIRECTION('',(0.,0.,-1.));
#689=AXIS2_PLACEMENT_3D('',#686,#687,#688);
#690=PLANE('',#689);
#691=CARTESIAN_POINT('',(484.,94.2,-9.75));
#692=VERTEX_POINT('',#691);
#693=CARTESIAN_POINT('',(481.,94.2,-9.75));
#694=VERTEX_POINT('',#693);
#695=CARTESIAN_POINT('',(484.,94.2,-9.75));
#696=DIRECTION('',(-1.,0.,0.));
#697=VECTOR('',#696,3.);
#698=LINE('',#695,#697);
#699=EDGE_CURVE('',#692,#694,#698,.T.);
#700=ORIENTED_EDGE('',*,*,#699,.T.);
#701=CARTESIAN_POINT('',(481.,94.2,-14.25));
#702=DIRECTION('',(0.,0.,1.));
#703=VECTOR('',#702,4.5);
#704=LINE('',#701,#703);
#705=EDGE_CURVE('',#663,#694,#704,.T.);
#706=ORIENTED_EDGE('',*,*,#705,.F.);
#707=ORIENTED_EDGE('',*,*,#668,.F.);
#708=CARTESIAN_POINT('',(484.,94.2,-9.75));
#709=DIRECTION('',(0.,0.,-1.));
#710=VECTOR('',#709,4.5);
#711=LINE('',#708,#710);
#712=EDGE_CURVE('',#692,#661,#711,.T.);
#713=ORIENTED_EDGE('',*,*,#712,.F.);
#714=EDGE_LOOP('',(#700,#706,#707,#713));
#715=FACE_BOUND('',#714,.T.);
#716=ADVANCED_FACE('',(#715),#690,.T.);
#717=CARTESIAN_POINT('',(838.,87.,-9.75));
#718=DIRECTION('',(0.,-0.,-1.));
#719=DIRECTION('',(0.,1.,-0.));
#720=AXIS2_PLACEMENT_3D('',#717,#718,#719);
#721=PLANE('',#720);
#722=ORIENTED_EDGE('',*,*,#644,.T.);
#723=CARTESIAN_POINT('',(481.,94.2,-9.75));
#724=DIRECTION('',(0.,-1.,0.));
#725=VECTOR('',#724,14.4);
#726=LINE('',#723,#725);
#727=EDGE_CURVE('',#694,#631,#726,.T.);
#728=ORIENTED_EDGE('',*,*,#727,.F.);
#729=ORIENTED_EDGE('',*,*,#699,.F.);
#730=CARTESIAN_POINT('',(484.,79.8,-9.75));
#731=DIRECTION('',(0.,1.,-0.));
#732=VECTOR('',#731,14.4);
#733=LINE('',#730,#732);
#734=EDGE_CURVE('',#639,#692,#733,.T.);
#735=ORIENTED_EDGE('',*,*,#734,.F.);
#736=EDGE_LOOP('',(#722,#728,#729,#735));
#737=FACE_BOUND('',#736,.T.);
#738=ADVANCED_FACE('',(#737),#721,.T.);
#739=CARTESIAN_POINT('',(838.,19.8,-12.));
#740=DIRECTION('',(0.,1.,-0.));
#741=DIRECTION('',(0.,0.,1.));
#742=AXIS2_PLACEMENT_3D('',#739,#740,#741);
#743=PLANE('',#742);
#744=CARTESIAN_POINT('',(484.,19.8,-14.25));
#745=VERTEX_POINT('',#744);
#746=CARTESIAN_POINT('',(481.,19.8,-14.25));
#747=VERTEX_POINT('',#746);
#748=CARTESIAN_POINT('',(484.,19.8,-14.25));
#749=DIRECTION('',(-1.,0.,0.));
#750=VECTOR('',#749,3.);
#751=LINE('',#748,#750);
#752=EDGE_CURVE('',#745,#747,#751,.T.);
#753=ORIENTED_EDGE('',*,*,#752,.T.);
#754=CARTESIAN_POINT('',(481.,19.8,-9.75));
#755=VERTEX_POINT('',#754);
#756=CARTESIAN_POINT('',(481.,19.8,-9.75));
#757=DIRECTION('',(0.,-0.,-1.));
#758=VECTOR('',#757,4.5);
#759=LINE('',#756,#758);
#760=EDGE_CURVE('',#755,#747,#759,.T.);
#761=ORIENTED_EDGE('',*,*,#760,.F.);
#762=CARTESIAN_POINT('',(484.,19.8,-9.75));
#763=VERTEX_POINT('',#762);
#764=CARTESIAN_POINT('',(484.,19.8,-9.75));
#765=DIRECTION('',(-1.,0.,0.));
#766=VECTOR('',#765,3.);
#767=LINE('',#764,#766);
#768=EDGE_CURVE('',#763,#755,#767,.T.);
#769=ORIENTED_EDGE('',*,*,#768,.F.);
#770=CARTESIAN_POINT('',(484.,19.8,-14.25));
#771=DIRECTION('',(0.,0.,1.));
#772=VECTOR('',#771,4.5);
#773=LINE('',#770,#772);
#774=EDGE_CURVE('',#745,#763,#773,.T.);
#775=ORIENTED_EDGE('',*,*,#774,.F.);
#776=EDGE_LOOP('',(#753,#761,#769,#775));
#777=FACE_BOUND('',#776,.T.);
#778=ADVANCED_FACE('',(#777),#743,.T.);
#779=CARTESIAN_POINT('',(838.,27.,-14.25));
#780=DIRECTION('',(0.,0.,1.));
#781=DIRECTION('',(0.,-1.,0.));
#782=AXIS2_PLACEMENT_3D('',#779,#780,#781);
#783=PLANE('',#782);
#784=CARTESIAN_POINT('',(484.,34.2,-14.25));
#785=VERTEX_POINT('',#784);
#786=CARTESIAN_POINT('',(481.,34.2,-14.25));
#787=VERTEX_POINT('',#786);
#788=CARTESIAN_POINT('',(484.,34.2,-14.25));
#789=DIRECTION('',(-1.,0.,0.));
#790=VECTOR('',#789,3.);
#791=LINE('',#788,#790);
#792=EDGE_CURVE('',#785,#787,#791,.T.);
#793=ORIENTED_EDGE('',*,*,#792,.T.);
#794=CARTESIAN_POINT('',(481.,19.8,-14.25));
#795=DIRECTION('',(0.,1.,-0.));
#796=VECTOR('',#795,14.4);
#797=LINE('',#794,#796);
#798=EDGE_CURVE('',#747,#787,#797,.T.);
#799=ORIENTED_EDGE('',*,*,#798,.F.);
#800=ORIENTED_EDGE('',*,*,#752,.F.);
#801=CARTESIAN_POINT('',(484.,34.2,-14.25));
#802=DIRECTION('',(0.,-1.,0.));
#803=VECTOR('',#802,14.4);
#804=LINE('',#801,#803);
#805=EDGE_CURVE('',#785,#745,#804,.T.);
#806=ORIENTED_EDGE('',*,*,#805,.F.);
#807=EDGE_LOOP('',(#793,#799,#800,#806));
#808=FACE_BOUND('',#807,.T.);
#809=ADVANCED_FACE('',(#808),#783,.T.);
#810=CARTESIAN_POINT('',(838.,34.2,-12.));
#811=DIRECTION('',(0.,-1.,0.));
#812=DIRECTION('',(0.,0.,-1.));
#813=AXIS2_PLACEMENT_3D('',#810,#811,#812);
#814=PLANE('',#813);
#815=CARTESIAN_POINT('',(484.,34.2,-9.75));
#816=VERTEX_POINT('',#815);
#817=CARTESIAN_POINT('',(481.,34.2,-9.75));
#818=VERTEX_POINT('',#817);
#819=CARTESIAN_POINT('',(484.,34.2,-9.75));
#820=DIRECTION('',(-1.,0.,0.));
#821=VECTOR('',#820,3.);
#822=LINE('',#819,#821);
#823=EDGE_CURVE('',#816,#818,#822,.T.);
#824=ORIENTED_EDGE('',*,*,#823,.T.);
#825=CARTESIAN_POINT('',(481.,34.2,-14.25));
#826=DIRECTION('',(0.,0.,1.));
#827=VECTOR('',#826,4.5);
#828=LINE('',#825,#827);
#829=EDGE_CURVE('',#787,#818,#828,.T.);
#830=ORIENTED_EDGE('',*,*,#829,.F.);
#831=ORIENTED_EDGE('',*,*,#792,.F.);
#832=CARTESIAN_POINT('',(484.,34.2,-9.75));
#833=DIRECTION('',(0.,0.,-1.));
#834=VECTOR('',#833,4.5);
#835=LINE('',#832,#834);
#836=EDGE_CURVE('',#816,#785,#835,.T.);
#837=ORIENTED_EDGE('',*,*,#836,.F.);
#838=EDGE_LOOP('',(#824,#830,#831,#837));
#839=FACE_BOUND('',#838,.T.);
#840=ADVANCED_FACE('',(#839),#814,.T.);
#841=CARTESIAN_POINT('',(838.,27.,-9.75));
#842=DIRECTION('',(0.,-0.,-1.));
#843=DIRECTION('',(0.,1.,-0.));
#844=AXIS2_PLACEMENT_3D('',#841,#842,#843);
#845=PLANE('',#844);
#846=ORIENTED_EDGE('',*,*,#768,.T.);
#847=CARTESIAN_POINT('',(481.,34.2,-9.75));
#848=DIRECTION('',(0.,-1.,0.));
#849=VECTOR('',#848,14.4);
#850=LINE('',#847,#849);
#851=EDGE_CURVE('',#818,#755,#850,.T.);
#852=ORIENTED_EDGE('',*,*,#851,.F.);
#853=ORIENTED_EDGE('',*,*,#823,.F.);
#854=CARTESIAN_POINT('',(484.,19.8,-9.75));
#855=DIRECTION('',(0.,1.,-0.));
#856=VECTOR('',#855,14.4);
#857=LINE('',#854,#856);
#858=EDGE_CURVE('',#763,#816,#857,.T.);
#859=ORIENTED_EDGE('',*,*,#858,.F.);
#860=EDGE_LOOP('',(#846,#852,#853,#859));
#861=FACE_BOUND('',#860,.T.);
#862=ADVANCED_FACE('',(#861),#845,.T.);
#863=CARTESIAN_POINT('',(510.456127788,157.,-12.628011175));
#864=DIRECTION('',(-1.,-0.,0.));
#865=DIRECTION('',(0.,-1.,0.));
#866=AXIS2_PLACEMENT_3D('',#863,#864,#865);
#867=PLANE('',#866);
#868=CARTESIAN_POINT('',(510.456127788,3.,-14.878011175));
#869=DIRECTION('',(0.,-1.,0.));
#870=VECTOR('',#869,3.);
#871=LINE('',#868,#870);
#872=EDGE_CURVE('',#393,#67,#871,.T.);
#873=ORIENTED_EDGE('',*,*,#872,.T.);
#874=ORIENTED_EDGE('',*,*,#96,.F.);
#875=CARTESIAN_POINT('',(510.456127788,3.,-10.378011175));
#876=DIRECTION('',(0.,-1.,0.));
#877=VECTOR('',#876,3.);
#878=LINE('',#875,#877);
#879=EDGE_CURVE('',#375,#85,#878,.T.);
#880=ORIENTED_EDGE('',*,*,#879,.F.);
#881=ORIENTED_EDGE('',*,*,#404,.F.);
#882=EDGE_LOOP('',(#873,#874,#880,#881));
#883=FACE_BOUND('',#882,.T.);
#884=ADVANCED_FACE('',(#883),#867,.T.);
#885=CARTESIAN_POINT('',(503.256127788,157.,-14.878011175));
#886=DIRECTION('',(0.,0.,1.));
#887=DIRECTION('',(1.,0.,0.));
#888=AXIS2_PLACEMENT_3D('',#885,#886,#887);
#889=PLANE('',#888);
#890=CARTESIAN_POINT('',(496.056127788,3.,-14.878011175));
#891=DIRECTION('',(0.,-1.,0.));
#892=VECTOR('',#891,3.);
#893=LINE('',#890,#892);
#894=EDGE_CURVE('',#385,#69,#893,.T.);
#895=ORIENTED_EDGE('',*,*,#894,.T.);
#896=ORIENTED_EDGE('',*,*,#74,.F.);
#897=ORIENTED_EDGE('',*,*,#872,.F.);
#898=ORIENTED_EDGE('',*,*,#398,.F.);
#899=EDGE_LOOP('',(#895,#896,#897,#898));
#900=FACE_BOUND('',#899,.T.);
#901=ADVANCED_FACE('',(#900),#889,.T.);
#902=CARTESIAN_POINT('',(496.056127788,157.,-12.628011175));
#903=DIRECTION('',(1.,0.,0.));
#904=DIRECTION('',(-0.,1.,0.));
#905=AXIS2_PLACEMENT_3D('',#902,#903,#904);
#906=PLANE('',#905);
#907=CARTESIAN_POINT('',(496.056127788,3.,-10.378011175));
#908=DIRECTION('',(0.,-1.,0.));
#909=VECTOR('',#908,3.);
#910=LINE('',#907,#909);
#911=EDGE_CURVE('',#377,#77,#910,.T.);
#912=ORIENTED_EDGE('',*,*,#911,.T.);
#913=ORIENTED_EDGE('',*,*,#82,.F.);
#914=ORIENTED_EDGE('',*,*,#894,.F.);
#915=ORIENTED_EDGE('',*,*,#390,.F.);
#916=EDGE_LOOP('',(#912,#913,#914,#915));
#917=FACE_BOUND('',#916,.T.);
#918=ADVANCED_FACE('',(#917),#906,.T.);
#919=CARTESIAN_POINT('',(503.256127788,157.,-10.378011175));
#920=DIRECTION('',(0.,0.,-1.));
#921=DIRECTION('',(-1.,0.,-0.));
#922=AXIS2_PLACEMENT_3D('',#919,#920,#921);
#923=PLANE('',#922);
#924=ORIENTED_EDGE('',*,*,#879,.T.);
#925=ORIENTED_EDGE('',*,*,#90,.F.);
#926=ORIENTED_EDGE('',*,*,#911,.F.);
#927=ORIENTED_EDGE('',*,*,#382,.F.);
#928=EDGE_LOOP('',(#924,#925,#926,#927));
#929=FACE_BOUND('',#928,.T.);
#930=ADVANCED_FACE('',(#929),#923,.T.);
#931=CARTESIAN_POINT('',(560.456127788,157.,-12.628011175));
#932=DIRECTION('',(-1.,-0.,0.));
#933=DIRECTION('',(0.,-1.,0.));
#934=AXIS2_PLACEMENT_3D('',#931,#932,#933);
#935=PLANE('',#934);
#936=CARTESIAN_POINT('',(560.456127788,3.,-14.878011175));
#937=DIRECTION('',(0.,-1.,0.));
#938=VECTOR('',#937,3.);
#939=LINE('',#936,#938);
#940=EDGE_CURVE('',#359,#33,#939,.T.);
#941=ORIENTED_EDGE('',*,*,#940,.T.);
#942=ORIENTED_EDGE('',*,*,#62,.F.);
#943=CARTESIAN_POINT('',(560.456127788,3.,-10.378011175));
#944=DIRECTION('',(0.,-1.,0.));
#945=VECTOR('',#944,3.);
#946=LINE('',#943,#945);
#947=EDGE_CURVE('',#341,#51,#946,.T.);
#948=ORIENTED_EDGE('',*,*,#947,.F.);
#949=ORIENTED_EDGE('',*,*,#370,.F.);
#950=EDGE_LOOP('',(#941,#942,#948,#949));
#951=FACE_BOUND('',#950,.T.);
#952=ADVANCED_FACE('',(#951),#935,.T.);
#953=CARTESIAN_POINT('',(553.256127788,157.,-14.878011175));
#954=DIRECTION('',(0.,0.,1.));
#955=DIRECTION('',(1.,0.,0.));
#956=AXIS2_PLACEMENT_3D('',#953,#954,#955);
#957=PLANE('',#956);
#958=CARTESIAN_POINT('',(546.056127788,3.,-14.878011175));
#959=DIRECTION('',(0.,-1.,0.));
#960=VECTOR('',#959,3.);
#961=LINE('',#958,#960);
#962=EDGE_CURVE('',#351,#35,#961,.T.);
#963=ORIENTED_EDGE('',*,*,#962,.T.);
#964=ORIENTED_EDGE('',*,*,#40,.F.);
#965=ORIENTED_EDGE('',*,*,#940,.F.);
#966=ORIENTED_EDGE('',*,*,#364,.F.);
#967=EDGE_LOOP('',(#963,#964,#965,#966));
#968=FACE_BOUND('',#967,.T.);
#969=ADVANCED_FACE('',(#968),#957,.T.);
#970=CARTESIAN_POINT('',(546.056127788,157.,-12.628011175));
#971=DIRECTION('',(1.,0.,0.));
#972=DIRECTION('',(-0.,1.,0.));
#973=AXIS2_PLACEMENT_3D('',#970,#971,#972);
#974=PLANE('',#973);
#975=CARTESIAN_POINT('',(546.056127788,3.,-10.378011175));
#976=DIRECTION('',(0.,-1.,0.));
#977=VECTOR('',#976,3.);
#978=LINE('',#975,#977);
#979=EDGE_CURVE('',#343,#43,#978,.T.);
#980=ORIENTED_EDGE('',*,*,#979,.T.);
#981=ORIENTED_EDGE('',*,*,#48,.F.);
#982=ORIENTED_EDGE('',*,*,#962,.F.);
#983=ORIENTED_EDGE('',*,*,#356,.F.);
#984=EDGE_LOOP('',(#980,#981,#982,#983));
#985=FACE_BOUND('',#984,.T.);
#986=ADVANCED_FACE('',(#985),#974,.T.);
#987=CARTESIAN_POINT('',(553.256127788,157.,-10.378011175));
#988=DIRECTION('',(0.,0.,-1.));
#989=DIRECTION('',(-1.,0.,-0.));
#990=AXIS2_PLACEMENT_3D('',#987,#988,#989);
#991=PLANE('',#990);
#992=ORIENTED_EDGE('',*,*,#947,.T.);
#993=ORIENTED_EDGE('',*,*,#56,.F.);
#994=ORIENTED_EDGE('',*,*,#979,.F.);
#995=ORIENTED_EDGE('',*,*,#348,.F.);
#996=EDGE_LOOP('',(#992,#993,#994,#995));
#997=FACE_BOUND('',#996,.T.);
#998=ADVANCED_FACE('',(#997),#991,.T.);
#999=CARTESIAN_POINT('',(510.456127788,157.,-12.628011175));
#1000=DIRECTION('',(-1.,-0.,0.));
#1001=DIRECTION('',(0.,-1.,0.));
#1002=AXIS2_PLACEMENT_3D('',#999,#1000,#1001);
#1003=PLANE('',#1002);
#1004=CARTESIAN_POINT('',(510.456127788,120.,-14.878011175));
#1005=VERTEX_POINT('',#1004);
#1006=CARTESIAN_POINT('',(510.456127788,120.,-14.878011175));
#1007=DIRECTION('',(0.,-1.,0.));
#1008=VECTOR('',#1007,3.);
#1009=LINE('',#1006,#1008);
#1010=EDGE_CURVE('',#1005,#276,#1009,.T.);
#1011=ORIENTED_EDGE('',*,*,#1010,.T.);
#1012=ORIENTED_EDGE('',*,*,#305,.F.);
#1013=CARTESIAN_POINT('',(510.456127788,120.,-10.378011175));
#1014=VERTEX_POINT('',#1013);
#1015=CARTESIAN_POINT('',(510.456127788,120.,-10.378011175));
#1016=DIRECTION('',(0.,-1.,0.));
#1017=VECTOR('',#1016,3.);
#1018=LINE('',#1015,#1017);
#1019=EDGE_CURVE('',#1014,#294,#1018,.T.);
#1020=ORIENTED_EDGE('',*,*,#1019,.F.);
#1021=CARTESIAN_POINT('',(510.456127788,120.,-14.878011175));
#1022=DIRECTION('',(0.,0.,1.));
#1023=VECTOR('',#1022,4.5);
#1024=LINE('',#1021,#1023);
#1025=EDGE_CURVE('',#1005,#1014,#1024,.T.);
#1026=ORIENTED_EDGE('',*,*,#1025,.F.);
#1027=EDGE_LOOP('',(#1011,#1012,#1020,#1026));
#1028=FACE_BOUND('',#1027,.T.);
#1029=ADVANCED_FACE('',(#1028),#1003,.T.);
#1030=CARTESIAN_POINT('',(503.256127788,157.,-10.378011175));
#1031=DIRECTION('',(0.,0.,-1.));
#1032=DIRECTION('',(-1.,0.,-0.));
#1033=AXIS2_PLACEMENT_3D('',#1030,#1031,#1032);
#1034=PLANE('',#1033);
#1035=ORIENTED_EDGE('',*,*,#1019,.T.);
#1036=ORIENTED_EDGE('',*,*,#299,.F.);
#1037=CARTESIAN_POINT('',(496.056127788,120.,-10.378011175));
#1038=VERTEX_POINT('',#1037);
#1039=CARTESIAN_POINT('',(496.056127788,120.,-10.378011175));
#1040=DIRECTION('',(0.,-1.,0.));
#1041=VECTOR('',#1040,3.);
#1042=LINE('',#1039,#1041);
#1043=EDGE_CURVE('',#1038,#286,#1042,.T.);
#1044=ORIENTED_EDGE('',*,*,#1043,.F.);
#1045=CARTESIAN_POINT('',(510.456127788,120.,-10.378011175));
#1046=DIRECTION('',(-1.,0.,-0.));
#1047=VECTOR('',#1046,14.4);
#1048=LINE('',#1045,#1047);
#1049=EDGE_CURVE('',#1014,#1038,#1048,.T.);
#1050=ORIENTED_EDGE('',*,*,#1049,.F.);
#1051=EDGE_LOOP('',(#1035,#1036,#1044,#1050));
#1052=FACE_BOUND('',#1051,.T.);
#1053=ADVANCED_FACE('',(#1052),#1034,.T.);
#1054=CARTESIAN_POINT('',(496.056127788,157.,-12.628011175));
#1055=DIRECTION('',(1.,0.,0.));
#1056=DIRECTION('',(-0.,1.,0.));
#1057=AXIS2_PLACEMENT_3D('',#1054,#1055,#1056);
#1058=PLANE('',#1057);
#1059=ORIENTED_EDGE('',*,*,#1043,.T.);
#1060=ORIENTED_EDGE('',*,*,#291,.F.);
#1061=CARTESIAN_POINT('',(496.056127788,120.,-14.878011175));
#1062=VERTEX_POINT('',#1061);
#1063=CARTESIAN_POINT('',(496.056127788,120.,-14.878011175));
#1064=DIRECTION('',(0.,-1.,0.));
#1065=VECTOR('',#1064,3.);
#1066=LINE('',#1063,#1065);
#1067=EDGE_CURVE('',#1062,#278,#1066,.T.);
#1068=ORIENTED_EDGE('',*,*,#1067,.F.);
#1069=CARTESIAN_POINT('',(496.056127788,120.,-10.378011175));
#1070=DIRECTION('',(0.,0.,-1.));
#1071=VECTOR('',#1070,4.5);
#1072=LINE('',#1069,#1071);
#1073=EDGE_CURVE('',#1038,#1062,#1072,.T.);
#1074=ORIENTED_EDGE('',*,*,#1073,.F.);
#1075=EDGE_LOOP('',(#1059,#1060,#1068,#1074));
#1076=FACE_BOUND('',#1075,.T.);
#1077=ADVANCED_FACE('',(#1076),#1058,.T.);
#1078=CARTESIAN_POINT('',(503.256127788,157.,-14.878011175));
#1079=DIRECTION('',(0.,0.,1.));
#1080=DIRECTION('',(1.,0.,0.));
#1081=AXIS2_PLACEMENT_3D('',#1078,#1079,#1080);
#1082=PLANE('',#1081);
#1083=ORIENTED_EDGE('',*,*,#1067,.T.);
#1084=ORIENTED_EDGE('',*,*,#283,.F.);
#1085=ORIENTED_EDGE('',*,*,#1010,.F.);
#1086=CARTESIAN_POINT('',(496.056127788,120.,-14.878011175));
#1087=DIRECTION('',(1.,-0.,0.));
#1088=VECTOR('',#1087,14.4);
#1089=LINE('',#1086,#1088);
#1090=EDGE_CURVE('',#1062,#1005,#1089,.T.);
#1091=ORIENTED_EDGE('',*,*,#1090,.F.);
#1092=EDGE_LOOP('',(#1083,#1084,#1085,#1091));
#1093=FACE_BOUND('',#1092,.T.);
#1094=ADVANCED_FACE('',(#1093),#1082,.T.);
#1095=CARTESIAN_POINT('',(560.456127788,157.,-12.628011175));
#1096=DIRECTION('',(-1.,-0.,0.));
#1097=DIRECTION('',(0.,-1.,0.));
#1098=AXIS2_PLACEMENT_3D('',#1095,#1096,#1097);
#1099=PLANE('',#1098);
#1100=CARTESIAN_POINT('',(560.456127788,120.,-14.878011175));
#1101=VERTEX_POINT('',#1100);
#1102=CARTESIAN_POINT('',(560.456127788,120.,-14.878011175));
#1103=DIRECTION('',(0.,-1.,0.));
#1104=VECTOR('',#1103,3.);
#1105=LINE('',#1102,#1104);
#1106=EDGE_CURVE('',#1101,#242,#1105,.T.);
#1107=ORIENTED_EDGE('',*,*,#1106,.T.);
#1108=ORIENTED_EDGE('',*,*,#271,.F.);
#1109=CARTESIAN_POINT('',(560.456127788,120.,-10.378011175));
#1110=VERTEX_POINT('',#1109);
#1111=CARTESIAN_POINT('',(560.456127788,120.,-10.378011175));
#1112=DIRECTION('',(0.,-1.,0.));
#1113=VECTOR('',#1112,3.);
#1114=LINE('',#1111,#1113);
#1115=EDGE_CURVE('',#1110,#260,#1114,.T.);
#1116=ORIENTED_EDGE('',*,*,#1115,.F.);
#1117=CARTESIAN_POINT('',(560.456127788,120.,-14.878011175));
#1118=DIRECTION('',(0.,0.,1.));
#1119=VECTOR('',#1118,4.5);
#1120=LINE('',#1117,#1119);
#1121=EDGE_CURVE('',#1101,#1110,#1120,.T.);
#1122=ORIENTED_EDGE('',*,*,#1121,.F.);
#1123=EDGE_LOOP('',(#1107,#1108,#1116,#1122));
#1124=FACE_BOUND('',#1123,.T.);
#1125=ADVANCED_FACE('',(#1124),#1099,.T.);
#1126=CARTESIAN_POINT('',(553.256127788,157.,-10.378011175));
#1127=DIRECTION('',(0.,0.,-1.));
#1128=DIRECTION('',(-1.,0.,-0.));
#1129=AXIS2_PLACEMENT_3D('',#1126,#1127,#1128);
#1130=PLANE('',#1129);
#1131=ORIENTED_EDGE('',*,*,#1115,.T.);
#1132=ORIENTED_EDGE('',*,*,#265,.F.);
#1133=CARTESIAN_POINT('',(546.056127788,120.,-10.378011175));
#1134=VERTEX_POINT('',#1133);
#1135=CARTESIAN_POINT('',(546.056127788,120.,-10.378011175));
#1136=DIRECTION('',(0.,-1.,0.));
#1137=VECTOR('',#1136,3.);
#1138=LINE('',#1135,#1137);
#1139=EDGE_CURVE('',#1134,#252,#1138,.T.);
#1140=ORIENTED_EDGE('',*,*,#1139,.F.);
#1141=CARTESIAN_POINT('',(560.456127788,120.,-10.378011175));
#1142=DIRECTION('',(-1.,0.,-0.));
#1143=VECTOR('',#1142,14.4);
#1144=LINE('',#1141,#1143);
#1145=EDGE_CURVE('',#1110,#1134,#1144,.T.);
#1146=ORIENTED_EDGE('',*,*,#1145,.F.);
#1147=EDGE_LOOP('',(#1131,#1132,#1140,#1146));
#1148=FACE_BOUND('',#1147,.T.);
#1149=ADVANCED_FACE('',(#1148),#1130,.T.);
#1150=CARTESIAN_POINT('',(546.056127788,157.,-12.628011175));
#1151=DIRECTION('',(1.,0.,0.));
#1152=DIRECTION('',(-0.,1.,0.));
#1153=AXIS2_PLACEMENT_3D('',#1150,#1151,#1152);
#1154=PLANE('',#1153);
#1155=ORIENTED_EDGE('',*,*,#1139,.T.);
#1156=ORIENTED_EDGE('',*,*,#257,.F.);
#1157=CARTESIAN_POINT('',(546.056127788,120.,-14.878011175));
#1158=VERTEX_POINT('',#1157);
#1159=CARTESIAN_POINT('',(546.056127788,120.,-14.878011175));
#1160=DIRECTION('',(0.,-1.,0.));
#1161=VECTOR('',#1160,3.);
#1162=LINE('',#1159,#1161);
#1163=EDGE_CURVE('',#1158,#244,#1162,.T.);
#1164=ORIENTED_EDGE('',*,*,#1163,.F.);
#1165=CARTESIAN_POINT('',(546.056127788,120.,-10.378011175));
#1166=DIRECTION('',(0.,0.,-1.));
#1167=VECTOR('',#1166,4.5);
#1168=LINE('',#1165,#1167);
#1169=EDGE_CURVE('',#1134,#1158,#1168,.T.);
#1170=ORIENTED_EDGE('',*,*,#1169,.F.);
#1171=EDGE_LOOP('',(#1155,#1156,#1164,#1170));
#1172=FACE_BOUND('',#1171,.T.);
#1173=ADVANCED_FACE('',(#1172),#1154,.T.);
#1174=CARTESIAN_POINT('',(553.256127788,157.,-14.878011175));
#1175=DIRECTION('',(0.,0.,1.));
#1176=DIRECTION('',(1.,0.,0.));
#1177=AXIS2_PLACEMENT_3D('',#1174,#1175,#1176);
#1178=PLANE('',#1177);
#1179=ORIENTED_EDGE('',*,*,#1163,.T.);
#1180=ORIENTED_EDGE('',*,*,#249,.F.);
#1181=ORIENTED_EDGE('',*,*,#1106,.F.);
#1182=CARTESIAN_POINT('',(546.056127788,120.,-14.878011175));
#1183=DIRECTION('',(1.,-0.,0.));
#1184=VECTOR('',#1183,14.4);
#1185=LINE('',#1182,#1184);
#1186=EDGE_CURVE('',#1158,#1101,#1185,.T.);
#1187=ORIENTED_EDGE('',*,*,#1186,.F.);
#1188=EDGE_LOOP('',(#1179,#1180,#1181,#1187));
#1189=FACE_BOUND('',#1188,.T.);
#1190=ADVANCED_FACE('',(#1189),#1178,.T.);
#1191=CARTESIAN_POINT('',(483.,118.,-5.));
#1192=DIRECTION('',(0.,0.,1.));
#1193=DIRECTION('',(1.,0.,-0.));
#1194=AXIS2_PLACEMENT_3D('',#1191,#1192,#1193);
#1195=CYLINDRICAL_SURFACE('',#1194,2.);
#1196=ORIENTED_EDGE('',*,*,#197,.F.);
#1197=CARTESIAN_POINT('',(481.,118.,0.));
#1198=VERTEX_POINT('',#1197);
#1199=CARTESIAN_POINT('',(481.,118.,0.));
#1200=DIRECTION('',(-0.,-0.,-1.));
#1201=VECTOR('',#1200,29.883333333);
#1202=LINE('',#1199,#1201);
#1203=EDGE_CURVE('',#1198,#185,#1202,.T.);
#1204=ORIENTED_EDGE('',*,*,#1203,.F.);
#1205=CARTESIAN_POINT('',(483.,120.,0.));
#1206=VERTEX_POINT('',#1205);
#1207=CARTESIAN_POINT('',(483.,118.,0.));
#1208=DIRECTION('',(-0.,-0.,1.));
#1209=DIRECTION('',(-1.,0.,0.));
#1210=AXIS2_PLACEMENT_3D('',#1207,#1208,#1209);
#1211=CIRCLE('',#1210,2.);
#1212=EDGE_CURVE('',#1206,#1198,#1211,.T.);
#1213=ORIENTED_EDGE('',*,*,#1212,.F.);
#1214=CARTESIAN_POINT('',(483.,120.,-30.));
#1215=DIRECTION('',(0.,0.,1.));
#1216=VECTOR('',#1215,30.);
#1217=LINE('',#1214,#1216);
#1218=EDGE_CURVE('',#143,#1206,#1217,.T.);
#1219=ORIENTED_EDGE('',*,*,#1218,.F.);
#1220=EDGE_LOOP('',(#1196,#1204,#1213,#1219));
#1221=FACE_BOUND('',#1220,.T.);
#1222=ADVANCED_FACE('',(#1221),#1195,.T.);
#1223=CARTESIAN_POINT('',(481.,60.,-5.));
#1224=DIRECTION('',(-1.,0.,0.));
#1225=DIRECTION('',(0.,0.,1.));
#1226=AXIS2_PLACEMENT_3D('',#1223,#1224,#1225);
#1227=PLANE('',#1226);
#1228=CARTESIAN_POINT('',(481.,2.,0.));
#1229=VERTEX_POINT('',#1228);
#1230=CARTESIAN_POINT('',(481.,118.,0.));
#1231=DIRECTION('',(0.,-1.,0.));
#1232=VECTOR('',#1231,116.);
#1233=LINE('',#1230,#1232);
#1234=EDGE_CURVE('',#1198,#1229,#1233,.T.);
#1235=ORIENTED_EDGE('',*,*,#1234,.F.);
#1236=ORIENTED_EDGE('',*,*,#1203,.T.);
#1237=ORIENTED_EDGE('',*,*,#190,.F.);
#1238=CARTESIAN_POINT('',(481.,2.,-23.116666667));
#1239=DIRECTION('',(0.,0.,1.));
#1240=VECTOR('',#1239,23.116666667);
#1241=LINE('',#1238,#1240);
#1242=EDGE_CURVE('',#176,#1229,#1241,.T.);
#1243=ORIENTED_EDGE('',*,*,#1242,.T.);
#1244=EDGE_LOOP('',(#1235,#1236,#1237,#1243));
#1245=FACE_BOUND('',#1244,.T.);
#1246=ORIENTED_EDGE('',*,*,#798,.T.);
#1247=ORIENTED_EDGE('',*,*,#829,.T.);
#1248=ORIENTED_EDGE('',*,*,#851,.T.);
#1249=ORIENTED_EDGE('',*,*,#760,.T.);
#1250=EDGE_LOOP('',(#1246,#1247,#1248,#1249));
#1251=FACE_BOUND('',#1250,.T.);
#1252=ORIENTED_EDGE('',*,*,#674,.T.);
#1253=ORIENTED_EDGE('',*,*,#705,.T.);
#1254=ORIENTED_EDGE('',*,*,#727,.T.);
#1255=ORIENTED_EDGE('',*,*,#636,.T.);
#1256=EDGE_LOOP('',(#1252,#1253,#1254,#1255));
#1257=FACE_BOUND('',#1256,.T.);
#1258=ADVANCED_FACE('',(#1245,#1251,#1257),#1227,.T.);
#1259=CARTESIAN_POINT('',(483.,2.,-5.));
#1260=DIRECTION('',(0.,0.,1.));
#1261=DIRECTION('',(1.,0.,-0.));
#1262=AXIS2_PLACEMENT_3D('',#1259,#1260,#1261);
#1263=CYLINDRICAL_SURFACE('',#1262,2.);
#1264=ORIENTED_EDGE('',*,*,#182,.F.);
#1265=ORIENTED_EDGE('',*,*,#130,.F.);
#1266=CARTESIAN_POINT('',(483.,2.,0.));
#1267=DIRECTION('',(-0.,-0.,1.));
#1268=DIRECTION('',(-1.,0.,0.));
#1269=AXIS2_PLACEMENT_3D('',#1266,#1267,#1268);
#1270=CIRCLE('',#1269,2.);
#1271=EDGE_CURVE('',#1229,#119,#1270,.T.);
#1272=ORIENTED_EDGE('',*,*,#1271,.F.);
#1273=ORIENTED_EDGE('',*,*,#1242,.F.);
#1274=EDGE_LOOP('',(#1264,#1265,#1272,#1273));
#1275=FACE_BOUND('',#1274,.T.);
#1276=ADVANCED_FACE('',(#1275),#1263,.T.);
#1277=CARTESIAN_POINT('',(484.,60.,-5.));
#1278=DIRECTION('',(1.,0.,0.));
#1279=DIRECTION('',(0.,0.,-1.));
#1280=AXIS2_PLACEMENT_3D('',#1277,#1278,#1279);
#1281=PLANE('',#1280);
#1282=ORIENTED_EDGE('',*,*,#231,.F.);
#1283=ORIENTED_EDGE('',*,*,#330,.F.);
#1284=ORIENTED_EDGE('',*,*,#610,.T.);
#1285=ORIENTED_EDGE('',*,*,#429,.T.);
#1286=EDGE_LOOP('',(#1282,#1283,#1284,#1285));
#1287=FACE_BOUND('',#1286,.T.);
#1288=ORIENTED_EDGE('',*,*,#858,.T.);
#1289=ORIENTED_EDGE('',*,*,#836,.T.);
#1290=ORIENTED_EDGE('',*,*,#805,.T.);
#1291=ORIENTED_EDGE('',*,*,#774,.T.);
#1292=EDGE_LOOP('',(#1288,#1289,#1290,#1291));
#1293=FACE_BOUND('',#1292,.T.);
#1294=ORIENTED_EDGE('',*,*,#734,.T.);
#1295=ORIENTED_EDGE('',*,*,#712,.T.);
#1296=ORIENTED_EDGE('',*,*,#681,.T.);
#1297=ORIENTED_EDGE('',*,*,#650,.T.);
#1298=EDGE_LOOP('',(#1294,#1295,#1296,#1297));
#1299=FACE_BOUND('',#1298,.T.);
#1300=ADVANCED_FACE('',(#1287,#1293,#1299),#1281,.T.);
#1301=CARTESIAN_POINT('',(-139.,0.,0.));
#1302=DIRECTION('',(0.,0.,-1.));
#1303=DIRECTION('',(-1.,0.,0.));
#1304=AXIS2_PLACEMENT_3D('',#1301,#1302,#1303);
#1305=PLANE('',#1304);
#1306=ORIENTED_EDGE('',*,*,#522,.F.);
#1307=CARTESIAN_POINT('',(581.,120.,0.));
#1308=VERTEX_POINT('',#1307);
#1309=CARTESIAN_POINT('',(581.,118.,0.));
#1310=DIRECTION('',(-0.,-0.,1.));
#1311=DIRECTION('',(-1.,0.,0.));
#1312=AXIS2_PLACEMENT_3D('',#1309,#1310,#1311);
#1313=CIRCLE('',#1312,2.);
#1314=EDGE_CURVE('',#509,#1308,#1313,.T.);
#1315=ORIENTED_EDGE('',*,*,#1314,.T.);
#1316=CARTESIAN_POINT('',(581.,120.,0.));
#1317=DIRECTION('',(-1.,0.,0.));
#1318=VECTOR('',#1317,98.);
#1319=LINE('',#1316,#1318);
#1320=EDGE_CURVE('',#1308,#1206,#1319,.T.);
#1321=ORIENTED_EDGE('',*,*,#1320,.T.);
#1322=ORIENTED_EDGE('',*,*,#1212,.T.);
#1323=ORIENTED_EDGE('',*,*,#1234,.T.);
#1324=ORIENTED_EDGE('',*,*,#1271,.T.);
#1325=ORIENTED_EDGE('',*,*,#124,.T.);
#1326=CARTESIAN_POINT('',(581.,2.,0.));
#1327=DIRECTION('',(-0.,-0.,1.));
#1328=DIRECTION('',(-1.,0.,0.));
#1329=AXIS2_PLACEMENT_3D('',#1326,#1327,#1328);
#1330=CIRCLE('',#1329,2.);
#1331=EDGE_CURVE('',#111,#517,#1330,.T.);
#1332=ORIENTED_EDGE('',*,*,#1331,.T.);
#1333=EDGE_LOOP('',(#1306,#1315,#1321,#1322,#1323,#1324,#1325,#1332));
#1334=FACE_BOUND('',#1333,.T.);
#1335=ADVANCED_FACE('',(#1334),#1305,.F.);
#1336=CARTESIAN_POINT('',(631.,120.,-5.));
#1337=DIRECTION('',(0.,1.,0.));
#1338=DIRECTION('',(-1.,0.,0.));
#1339=AXIS2_PLACEMENT_3D('',#1336,#1337,#1338);
#1340=PLANE('',#1339);
#1341=ORIENTED_EDGE('',*,*,#1320,.F.);
#1342=CARTESIAN_POINT('',(581.,120.,0.));
#1343=DIRECTION('',(0.,0.,-1.));
#1344=VECTOR('',#1343,30.);
#1345=LINE('',#1342,#1344);
#1346=EDGE_CURVE('',#1308,#141,#1345,.T.);
#1347=ORIENTED_EDGE('',*,*,#1346,.T.);
#1348=ORIENTED_EDGE('',*,*,#148,.T.);
#1349=ORIENTED_EDGE('',*,*,#1218,.T.);
#1350=EDGE_LOOP('',(#1341,#1347,#1348,#1349));
#1351=FACE_BOUND('',#1350,.T.);
#1352=ORIENTED_EDGE('',*,*,#1145,.T.);
#1353=ORIENTED_EDGE('',*,*,#1169,.T.);
#1354=ORIENTED_EDGE('',*,*,#1186,.T.);
#1355=ORIENTED_EDGE('',*,*,#1121,.T.);
#1356=EDGE_LOOP('',(#1352,#1353,#1354,#1355));
#1357=FACE_BOUND('',#1356,.T.);
#1358=ORIENTED_EDGE('',*,*,#1049,.T.);
#1359=ORIENTED_EDGE('',*,*,#1073,.T.);
#1360=ORIENTED_EDGE('',*,*,#1090,.T.);
#1361=ORIENTED_EDGE('',*,*,#1025,.T.);
#1362=EDGE_LOOP('',(#1358,#1359,#1360,#1361));
#1363=FACE_BOUND('',#1362,.T.);
#1364=ADVANCED_FACE('',(#1351,#1357,#1363),#1340,.T.);
#1365=CARTESIAN_POINT('',(580.,60.,-30.));
#1366=DIRECTION('',(1.,0.,0.));
#1367=DIRECTION('',(0.,0.,-1.));
#1368=AXIS2_PLACEMENT_3D('',#1365,#1366,#1367);
#1369=PLANE('',#1368);
#1370=CARTESIAN_POINT('',(580.,19.8,-14.25));
#1371=VERTEX_POINT('',#1370);
#1372=CARTESIAN_POINT('',(580.,34.2,-14.25));
#1373=VERTEX_POINT('',#1372);
#1374=CARTESIAN_POINT('',(580.,19.8,-14.25));
#1375=DIRECTION('',(0.,1.,-0.));
#1376=VECTOR('',#1375,14.4);
#1377=LINE('',#1374,#1376);
#1378=EDGE_CURVE('',#1371,#1373,#1377,.T.);
#1379=ORIENTED_EDGE('',*,*,#1378,.T.);
#1380=CARTESIAN_POINT('',(580.,34.2,-9.75));
#1381=VERTEX_POINT('',#1380);
#1382=CARTESIAN_POINT('',(580.,34.2,-14.25));
#1383=DIRECTION('',(0.,0.,1.));
#1384=VECTOR('',#1383,4.5);
#1385=LINE('',#1382,#1384);
#1386=EDGE_CURVE('',#1373,#1381,#1385,.T.);
#1387=ORIENTED_EDGE('',*,*,#1386,.T.);
#1388=CARTESIAN_POINT('',(580.,19.8,-9.75));
#1389=VERTEX_POINT('',#1388);
#1390=CARTESIAN_POINT('',(580.,34.2,-9.75));
#1391=DIRECTION('',(0.,-1.,0.));
#1392=VECTOR('',#1391,14.4);
#1393=LINE('',#1390,#1392);
#1394=EDGE_CURVE('',#1381,#1389,#1393,.T.);
#1395=ORIENTED_EDGE('',*,*,#1394,.T.);
#1396=CARTESIAN_POINT('',(580.,19.8,-9.75));
#1397=DIRECTION('',(0.,-0.,-1.));
#1398=VECTOR('',#1397,4.5);
#1399=LINE('',#1396,#1398);
#1400=EDGE_CURVE('',#1389,#1371,#1399,.T.);
#1401=ORIENTED_EDGE('',*,*,#1400,.T.);
#1402=EDGE_LOOP('',(#1379,#1387,#1395,#1401));
#1403=FACE_BOUND('',#1402,.T.);
#1404=CARTESIAN_POINT('',(580.,79.8,-14.25));
#1405=VERTEX_POINT('',#1404);
#1406=CARTESIAN_POINT('',(580.,94.2,-14.25));
#1407=VERTEX_POINT('',#1406);
#1408=CARTESIAN_POINT('',(580.,79.8,-14.25));
#1409=DIRECTION('',(0.,1.,-0.));
#1410=VECTOR('',#1409,14.4);
#1411=LINE('',#1408,#1410);
#1412=EDGE_CURVE('',#1405,#1407,#1411,.T.);
#1413=ORIENTED_EDGE('',*,*,#1412,.T.);
#1414=CARTESIAN_POINT('',(580.,94.2,-9.75));
#1415=VERTEX_POINT('',#1414);
#1416=CARTESIAN_POINT('',(580.,94.2,-14.25));
#1417=DIRECTION('',(0.,0.,1.));
#1418=VECTOR('',#1417,4.5);
#1419=LINE('',#1416,#1418);
#1420=EDGE_CURVE('',#1407,#1415,#1419,.T.);
#1421=ORIENTED_EDGE('',*,*,#1420,.T.);
#1422=CARTESIAN_POINT('',(580.,79.8,-9.75));
#1423=VERTEX_POINT('',#1422);
#1424=CARTESIAN_POINT('',(580.,94.2,-9.75));
#1425=DIRECTION('',(0.,-1.,0.));
#1426=VECTOR('',#1425,14.4);
#1427=LINE('',#1424,#1426);
#1428=EDGE_CURVE('',#1415,#1423,#1427,.T.);
#1429=ORIENTED_EDGE('',*,*,#1428,.T.);
#1430=CARTESIAN_POINT('',(580.,79.8,-9.75));
#1431=DIRECTION('',(0.,0.,-1.));
#1432=VECTOR('',#1431,4.5);
#1433=LINE('',#1430,#1432);
#1434=EDGE_CURVE('',#1423,#1405,#1433,.T.);
#1435=ORIENTED_EDGE('',*,*,#1434,.T.);
#1436=EDGE_LOOP('',(#1413,#1421,#1429,#1435));
#1437=FACE_BOUND('',#1436,.T.);
#1438=ORIENTED_EDGE('',*,*,#316,.F.);
#1439=ORIENTED_EDGE('',*,*,#217,.T.);
#1440=ORIENTED_EDGE('',*,*,#422,.F.);
#1441=ORIENTED_EDGE('',*,*,#603,.F.);
#1442=EDGE_LOOP('',(#1438,#1439,#1440,#1441));
#1443=FACE_BOUND('',#1442,.T.);
#1444=ADVANCED_FACE('',(#1403,#1437,#1443),#1369,.F.);
#1445=CARTESIAN_POINT('',(568.,94.2,-12.));
#1446=DIRECTION('',(0.,1.,0.));
#1447=DIRECTION('',(0.,0.,1.));
#1448=AXIS2_PLACEMENT_3D('',#1445,#1446,#1447);
#1449=PLANE('',#1448);
#1450=ORIENTED_EDGE('',*,*,#481,.T.);
#1451=CARTESIAN_POINT('',(580.,94.2,-9.75));
#1452=DIRECTION('',(1.,0.,-0.));
#1453=VECTOR('',#1452,3.);
#1454=LINE('',#1451,#1453);
#1455=EDGE_CURVE('',#1415,#476,#1454,.T.);
#1456=ORIENTED_EDGE('',*,*,#1455,.F.);
#1457=ORIENTED_EDGE('',*,*,#1420,.F.);
#1458=CARTESIAN_POINT('',(580.,94.2,-14.25));
#1459=DIRECTION('',(1.,0.,-0.));
#1460=VECTOR('',#1459,3.);
#1461=LINE('',#1458,#1460);
#1462=EDGE_CURVE('',#1407,#474,#1461,.T.);
#1463=ORIENTED_EDGE('',*,*,#1462,.T.);
#1464=EDGE_LOOP('',(#1450,#1456,#1457,#1463));
#1465=FACE_BOUND('',#1464,.T.);
#1466=ADVANCED_FACE('',(#1465),#1449,.F.);
#1467=CARTESIAN_POINT('',(568.,87.,-14.25));
#1468=DIRECTION('',(0.,-0.,-1.));
#1469=DIRECTION('',(0.,1.,-0.));
#1470=AXIS2_PLACEMENT_3D('',#1467,#1468,#1469);
#1471=PLANE('',#1470);
#1472=ORIENTED_EDGE('',*,*,#489,.T.);
#1473=ORIENTED_EDGE('',*,*,#1462,.F.);
#1474=ORIENTED_EDGE('',*,*,#1412,.F.);
#1475=CARTESIAN_POINT('',(580.,79.8,-14.25));
#1476=DIRECTION('',(1.,0.,-0.));
#1477=VECTOR('',#1476,3.);
#1478=LINE('',#1475,#1477);
#1479=EDGE_CURVE('',#1405,#484,#1478,.T.);
#1480=ORIENTED_EDGE('',*,*,#1479,.T.);
#1481=EDGE_LOOP('',(#1472,#1473,#1474,#1480));
#1482=FACE_BOUND('',#1481,.T.);
#1483=ADVANCED_FACE('',(#1482),#1471,.F.);
#1484=CARTESIAN_POINT('',(568.,79.8,-12.));
#1485=DIRECTION('',(0.,-1.,0.));
#1486=DIRECTION('',(0.,0.,-1.));
#1487=AXIS2_PLACEMENT_3D('',#1484,#1485,#1486);
#1488=PLANE('',#1487);
#1489=ORIENTED_EDGE('',*,*,#497,.T.);
#1490=ORIENTED_EDGE('',*,*,#1479,.F.);
#1491=ORIENTED_EDGE('',*,*,#1434,.F.);
#1492=CARTESIAN_POINT('',(580.,79.8,-9.75));
#1493=DIRECTION('',(1.,0.,-0.));
#1494=VECTOR('',#1493,3.);
#1495=LINE('',#1492,#1494);
#1496=EDGE_CURVE('',#1423,#492,#1495,.T.);
#1497=ORIENTED_EDGE('',*,*,#1496,.T.);
#1498=EDGE_LOOP('',(#1489,#1490,#1491,#1497));
#1499=FACE_BOUND('',#1498,.T.);
#1500=ADVANCED_FACE('',(#1499),#1488,.F.);
#1501=CARTESIAN_POINT('',(568.,87.,-9.75));
#1502=DIRECTION('',(0.,0.,1.));
#1503=DIRECTION('',(0.,-1.,0.));
#1504=AXIS2_PLACEMENT_3D('',#1501,#1502,#1503);
#1505=PLANE('',#1504);
#1506=ORIENTED_EDGE('',*,*,#503,.T.);
#1507=ORIENTED_EDGE('',*,*,#1496,.F.);
#1508=ORIENTED_EDGE('',*,*,#1428,.F.);
#1509=ORIENTED_EDGE('',*,*,#1455,.T.);
#1510=EDGE_LOOP('',(#1506,#1507,#1508,#1509));
#1511=FACE_BOUND('',#1510,.T.);
#1512=ADVANCED_FACE('',(#1511),#1505,.F.);
#1513=CARTESIAN_POINT('',(573.,34.2,-12.));
#1514=DIRECTION('',(0.,1.,0.));
#1515=DIRECTION('',(0.,0.,1.));
#1516=AXIS2_PLACEMENT_3D('',#1513,#1514,#1515);
#1517=PLANE('',#1516);
#1518=ORIENTED_EDGE('',*,*,#447,.T.);
#1519=CARTESIAN_POINT('',(580.,34.2,-9.75));
#1520=DIRECTION('',(1.,0.,-0.));
#1521=VECTOR('',#1520,3.);
#1522=LINE('',#1519,#1521);
#1523=EDGE_CURVE('',#1381,#442,#1522,.T.);
#1524=ORIENTED_EDGE('',*,*,#1523,.F.);
#1525=ORIENTED_EDGE('',*,*,#1386,.F.);
#1526=CARTESIAN_POINT('',(580.,34.2,-14.25));
#1527=DIRECTION('',(1.,0.,-0.));
#1528=VECTOR('',#1527,3.);
#1529=LINE('',#1526,#1528);
#1530=EDGE_CURVE('',#1373,#440,#1529,.T.);
#1531=ORIENTED_EDGE('',*,*,#1530,.T.);
#1532=EDGE_LOOP('',(#1518,#1524,#1525,#1531));
#1533=FACE_BOUND('',#1532,.T.);
#1534=ADVANCED_FACE('',(#1533),#1517,.F.);
#1535=CARTESIAN_POINT('',(573.,27.,-14.25));
#1536=DIRECTION('',(0.,-0.,-1.));
#1537=DIRECTION('',(0.,1.,-0.));
#1538=AXIS2_PLACEMENT_3D('',#1535,#1536,#1537);
#1539=PLANE('',#1538);
#1540=ORIENTED_EDGE('',*,*,#455,.T.);
#1541=ORIENTED_EDGE('',*,*,#1530,.F.);
#1542=ORIENTED_EDGE('',*,*,#1378,.F.);
#1543=CARTESIAN_POINT('',(580.,19.8,-14.25));
#1544=DIRECTION('',(1.,0.,-0.));
#1545=VECTOR('',#1544,3.);
#1546=LINE('',#1543,#1545);
#1547=EDGE_CURVE('',#1371,#450,#1546,.T.);
#1548=ORIENTED_EDGE('',*,*,#1547,.T.);
#1549=EDGE_LOOP('',(#1540,#1541,#1542,#1548));
#1550=FACE_BOUND('',#1549,.T.);
#1551=ADVANCED_FACE('',(#1550),#1539,.F.);
#1552=CARTESIAN_POINT('',(573.,19.8,-12.));
#1553=DIRECTION('',(0.,-1.,0.));
#1554=DIRECTION('',(0.,-0.,-1.));
#1555=AXIS2_PLACEMENT_3D('',#1552,#1553,#1554);
#1556=PLANE('',#1555);
#1557=ORIENTED_EDGE('',*,*,#463,.T.);
#1558=ORIENTED_EDGE('',*,*,#1547,.F.);
#1559=ORIENTED_EDGE('',*,*,#1400,.F.);
#1560=CARTESIAN_POINT('',(580.,19.8,-9.75));
#1561=DIRECTION('',(1.,0.,-0.));
#1562=VECTOR('',#1561,3.);
#1563=LINE('',#1560,#1562);
#1564=EDGE_CURVE('',#1389,#458,#1563,.T.);
#1565=ORIENTED_EDGE('',*,*,#1564,.T.);
#1566=EDGE_LOOP('',(#1557,#1558,#1559,#1565));
#1567=FACE_BOUND('',#1566,.T.);
#1568=ADVANCED_FACE('',(#1567),#1556,.F.);
#1569=CARTESIAN_POINT('',(573.,27.,-9.75));
#1570=DIRECTION('',(0.,0.,1.));
#1571=DIRECTION('',(0.,-1.,0.));
#1572=AXIS2_PLACEMENT_3D('',#1569,#1570,#1571);
#1573=PLANE('',#1572);
#1574=ORIENTED_EDGE('',*,*,#469,.T.);
#1575=ORIENTED_EDGE('',*,*,#1564,.F.);
#1576=ORIENTED_EDGE('',*,*,#1394,.F.);
#1577=ORIENTED_EDGE('',*,*,#1523,.T.);
#1578=EDGE_LOOP('',(#1574,#1575,#1576,#1577));
#1579=FACE_BOUND('',#1578,.T.);
#1580=ADVANCED_FACE('',(#1579),#1573,.F.);
#1581=CARTESIAN_POINT('',(581.,2.,-5.));
#1582=DIRECTION('',(0.,0.,1.));
#1583=DIRECTION('',(1.,0.,-0.));
#1584=AXIS2_PLACEMENT_3D('',#1581,#1582,#1583);
#1585=CYLINDRICAL_SURFACE('',#1584,2.);
#1586=ORIENTED_EDGE('',*,*,#172,.F.);
#1587=ORIENTED_EDGE('',*,*,#528,.F.);
#1588=ORIENTED_EDGE('',*,*,#1331,.F.);
#1589=ORIENTED_EDGE('',*,*,#116,.F.);
#1590=EDGE_LOOP('',(#1586,#1587,#1588,#1589));
#1591=FACE_BOUND('',#1590,.T.);
#1592=ADVANCED_FACE('',(#1591),#1585,.T.);
#1593=CARTESIAN_POINT('',(581.,118.,-5.));
#1594=DIRECTION('',(0.,0.,-1.));
#1595=DIRECTION('',(-1.,0.,0.));
#1596=AXIS2_PLACEMENT_3D('',#1593,#1594,#1595);
#1597=CYLINDRICAL_SURFACE('',#1596,2.);
#1598=ORIENTED_EDGE('',*,*,#1314,.F.);
#1599=ORIENTED_EDGE('',*,*,#514,.F.);
#1600=ORIENTED_EDGE('',*,*,#157,.F.);
#1601=ORIENTED_EDGE('',*,*,#1346,.F.);
#1602=EDGE_LOOP('',(#1598,#1599,#1600,#1601));
#1603=FACE_BOUND('',#1602,.T.);
#1604=ADVANCED_FACE('',(#1603),#1597,.T.);
#1605=CARTESIAN_POINT('',(531.9,8.7,-8.));
#1606=DIRECTION('',(0.,0.,1.));
#1607=DIRECTION('',(1.,0.,-0.));
#1608=AXIS2_PLACEMENT_3D('',#1605,#1606,#1607);
#1609=CYLINDRICAL_SURFACE('',#1608,1.5);
#1610=CARTESIAN_POINT('',(533.4,8.7,-5.));
#1611=VERTEX_POINT('',#1610);
#1612=CARTESIAN_POINT('',(533.4,8.7,-8.));
#1613=VERTEX_POINT('',#1612);
#1614=CARTESIAN_POINT('',(533.4,8.7,-5.));
#1615=DIRECTION('',(-0.,-0.,-1.));
#1616=VECTOR('',#1615,3.);
#1617=LINE('',#1614,#1616);
#1618=EDGE_CURVE('',#1611,#1613,#1617,.T.);
#1619=ORIENTED_EDGE('',*,*,#1618,.F.);
#1620=CARTESIAN_POINT('',(530.4,8.7,-5.));
#1621=VERTEX_POINT('',#1620);
#1622=CARTESIAN_POINT('',(531.9,8.7,-5.));
#1623=DIRECTION('',(-0.,-0.,1.));
#1624=DIRECTION('',(-1.,0.,0.));
#1625=AXIS2_PLACEMENT_3D('',#1622,#1623,#1624);
#1626=CIRCLE('',#1625,1.5);
#1627=EDGE_CURVE('',#1611,#1621,#1626,.T.);
#1628=ORIENTED_EDGE('',*,*,#1627,.T.);
#1629=CARTESIAN_POINT('',(531.9,8.7,-5.));
#1630=DIRECTION('',(-0.,-0.,1.));
#1631=DIRECTION('',(-1.,0.,0.));
#1632=AXIS2_PLACEMENT_3D('',#1629,#1630,#1631);
#1633=CIRCLE('',#1632,1.5);
#1634=EDGE_CURVE('',#1621,#1611,#1633,.T.);
#1635=ORIENTED_EDGE('',*,*,#1634,.T.);
#1636=ORIENTED_EDGE('',*,*,#1618,.T.);
#1637=CARTESIAN_POINT('',(530.4,8.7,-8.));
#1638=VERTEX_POINT('',#1637);
#1639=CARTESIAN_POINT('',(531.9,8.7,-8.));
#1640=DIRECTION('',(0.,0.,-1.));
#1641=DIRECTION('',(-1.,0.,0.));
#1642=AXIS2_PLACEMENT_3D('',#1639,#1640,#1641);
#1643=CIRCLE('',#1642,1.5);
#1644=EDGE_CURVE('',#1613,#1638,#1643,.T.);
#1645=ORIENTED_EDGE('',*,*,#1644,.T.);
#1646=CARTESIAN_POINT('',(531.9,8.7,-8.));
#1647=DIRECTION('',(0.,0.,-1.));
#1648=DIRECTION('',(-1.,0.,0.));
#1649=AXIS2_PLACEMENT_3D('',#1646,#1647,#1648);
#1650=CIRCLE('',#1649,1.5);
#1651=EDGE_CURVE('',#1638,#1613,#1650,.T.);
#1652=ORIENTED_EDGE('',*,*,#1651,.T.);
#1653=EDGE_LOOP('',(#1619,#1628,#1635,#1636,#1645,#1652));
#1654=FACE_BOUND('',#1653,.T.);
#1655=ADVANCED_FACE('',(#1654),#1609,.F.);
#1656=CARTESIAN_POINT('',(531.9,8.7,-8.));
#1657=DIRECTION('',(0.,0.,1.));
#1658=DIRECTION('',(1.,0.,-0.));
#1659=AXIS2_PLACEMENT_3D('',#1656,#1657,#1658);
#1660=CYLINDRICAL_SURFACE('',#1659,2.1);
#1661=CARTESIAN_POINT('',(534.,8.7,-8.));
#1662=VERTEX_POINT('',#1661);
#1663=CARTESIAN_POINT('',(534.,8.7,-5.));
#1664=DIRECTION('',(-0.,-0.,-1.));
#1665=VECTOR('',#1664,3.);
#1666=LINE('',#1663,#1665);
#1667=EDGE_CURVE('',#579,#1662,#1666,.T.);
#1668=ORIENTED_EDGE('',*,*,#1667,.T.);
#1669=CARTESIAN_POINT('',(529.8,8.7,-8.));
#1670=VERTEX_POINT('',#1669);
#1671=CARTESIAN_POINT('',(531.9,8.7,-8.));
#1672=DIRECTION('',(0.,0.,-1.));
#1673=DIRECTION('',(-1.,0.,0.));
#1674=AXIS2_PLACEMENT_3D('',#1671,#1672,#1673);
#1675=CIRCLE('',#1674,2.1);
#1676=EDGE_CURVE('',#1670,#1662,#1675,.T.);
#1677=ORIENTED_EDGE('',*,*,#1676,.F.);
#1678=CARTESIAN_POINT('',(531.9,8.7,-8.));
#1679=DIRECTION('',(0.,0.,-1.));
#1680=DIRECTION('',(-1.,0.,0.));
#1681=AXIS2_PLACEMENT_3D('',#1678,#1679,#1680);
#1682=CIRCLE('',#1681,2.1);
#1683=EDGE_CURVE('',#1662,#1670,#1682,.T.);
#1684=ORIENTED_EDGE('',*,*,#1683,.F.);
#1685=ORIENTED_EDGE('',*,*,#1667,.F.);
#1686=ORIENTED_EDGE('',*,*,#587,.T.);
#1687=ORIENTED_EDGE('',*,*,#594,.T.);
#1688=EDGE_LOOP('',(#1668,#1677,#1684,#1685,#1686,#1687));
#1689=FACE_BOUND('',#1688,.T.);
#1690=ADVANCED_FACE('',(#1689),#1660,.T.);
#1691=CARTESIAN_POINT('',(0.,0.,-8.));
#1692=DIRECTION('',(0.,0.,-1.));
#1693=DIRECTION('',(-1.,0.,0.));
#1694=AXIS2_PLACEMENT_3D('',#1691,#1692,#1693);
#1695=PLANE('',#1694);
#1696=ORIENTED_EDGE('',*,*,#1644,.F.);
#1697=ORIENTED_EDGE('',*,*,#1651,.F.);
#1698=EDGE_LOOP('',(#1696,#1697));
#1699=FACE_BOUND('',#1698,.T.);
#1700=ORIENTED_EDGE('',*,*,#1676,.T.);
#1701=ORIENTED_EDGE('',*,*,#1683,.T.);
#1702=EDGE_LOOP('',(#1700,#1701));
#1703=FACE_BOUND('',#1702,.T.);
#1704=ADVANCED_FACE('',(#1699,#1703),#1695,.T.);
#1705=CARTESIAN_POINT('',(-139.,0.,-5.));
#1706=DIRECTION('',(0.,0.,-1.));
#1707=DIRECTION('',(-1.,0.,0.));
#1708=AXIS2_PLACEMENT_3D('',#1705,#1706,#1707);
#1709=PLANE('',#1708);
#1710=ORIENTED_EDGE('',*,*,#1627,.F.);
#1711=ORIENTED_EDGE('',*,*,#1634,.F.);
#1712=EDGE_LOOP('',(#1710,#1711));
#1713=FACE_BOUND('',#1712,.T.);
#1714=ADVANCED_FACE('',(#1713),#1709,.T.);
#1715=CARTESIAN_POINT('',(573.592245579,60.044921935,-8.));
#1716=DIRECTION('',(0.,0.,1.));
#1717=DIRECTION('',(1.,0.,-0.));
#1718=AXIS2_PLACEMENT_3D('',#1715,#1716,#1717);
#1719=CYLINDRICAL_SURFACE('',#1718,1.5);
#1720=CARTESIAN_POINT('',(575.092245579,60.044921935,-5.));
#1721=VERTEX_POINT('',#1720);
#1722=CARTESIAN_POINT('',(575.092245579,60.044921935,-8.));
#1723=VERTEX_POINT('',#1722);
#1724=CARTESIAN_POINT('',(575.092245579,60.044921935,-5.));
#1725=DIRECTION('',(-0.,-0.,-1.));
#1726=VECTOR('',#1725,3.);
#1727=LINE('',#1724,#1726);
#1728=EDGE_CURVE('',#1721,#1723,#1727,.T.);
#1729=ORIENTED_EDGE('',*,*,#1728,.F.);
#1730=CARTESIAN_POINT('',(572.092245579,60.044921935,-5.));
#1731=VERTEX_POINT('',#1730);
#1732=CARTESIAN_POINT('',(573.592245579,60.044921935,-5.));
#1733=DIRECTION('',(-0.,-0.,1.));
#1734=DIRECTION('',(-1.,0.,0.));
#1735=AXIS2_PLACEMENT_3D('',#1732,#1733,#1734);
#1736=CIRCLE('',#1735,1.5);
#1737=EDGE_CURVE('',#1721,#1731,#1736,.T.);
#1738=ORIENTED_EDGE('',*,*,#1737,.T.);
#1739=CARTESIAN_POINT('',(573.592245579,60.044921935,-5.));
#1740=DIRECTION('',(-0.,-0.,1.));
#1741=DIRECTION('',(-1.,0.,0.));
#1742=AXIS2_PLACEMENT_3D('',#1739,#1740,#1741);
#1743=CIRCLE('',#1742,1.5);
#1744=EDGE_CURVE('',#1731,#1721,#1743,.T.);
#1745=ORIENTED_EDGE('',*,*,#1744,.T.);
#1746=ORIENTED_EDGE('',*,*,#1728,.T.);
#1747=CARTESIAN_POINT('',(572.092245579,60.044921935,-8.));
#1748=VERTEX_POINT('',#1747);
#1749=CARTESIAN_POINT('',(573.592245579,60.044921935,-8.));
#1750=DIRECTION('',(0.,0.,-1.));
#1751=DIRECTION('',(-1.,0.,0.));
#1752=AXIS2_PLACEMENT_3D('',#1749,#1750,#1751);
#1753=CIRCLE('',#1752,1.5);
#1754=EDGE_CURVE('',#1723,#1748,#1753,.T.);
#1755=ORIENTED_EDGE('',*,*,#1754,.T.);
#1756=CARTESIAN_POINT('',(573.592245579,60.044921935,-8.));
#1757=DIRECTION('',(0.,0.,-1.));
#1758=DIRECTION('',(-1.,0.,0.));
#1759=AXIS2_PLACEMENT_3D('',#1756,#1757,#1758);
#1760=CIRCLE('',#1759,1.5);
#1761=EDGE_CURVE('',#1748,#1723,#1760,.T.);
#1762=ORIENTED_EDGE('',*,*,#1761,.T.);
#1763=EDGE_LOOP('',(#1729,#1738,#1745,#1746,#1755,#1762));
#1764=FACE_BOUND('',#1763,.T.);
#1765=ADVANCED_FACE('',(#1764),#1719,.F.);
#1766=CARTESIAN_POINT('',(573.592245579,60.044921935,-8.));
#1767=DIRECTION('',(0.,0.,1.));
#1768=DIRECTION('',(1.,0.,-0.));
#1769=AXIS2_PLACEMENT_3D('',#1766,#1767,#1768);
#1770=CYLINDRICAL_SURFACE('',#1769,2.1);
#1771=CARTESIAN_POINT('',(575.692245579,60.044921935,-8.));
#1772=VERTEX_POINT('',#1771);
#1773=CARTESIAN_POINT('',(575.692245579,60.044921935,-5.));
#1774=DIRECTION('',(-0.,-0.,-1.));
#1775=VECTOR('',#1774,3.);
#1776=LINE('',#1773,#1775);
#1777=EDGE_CURVE('',#559,#1772,#1776,.T.);
#1778=ORIENTED_EDGE('',*,*,#1777,.T.);
#1779=CARTESIAN_POINT('',(571.492245579,60.044921935,-8.));
#1780=VERTEX_POINT('',#1779);
#1781=CARTESIAN_POINT('',(573.592245579,60.044921935,-8.));
#1782=DIRECTION('',(0.,0.,-1.));
#1783=DIRECTION('',(-1.,0.,0.));
#1784=AXIS2_PLACEMENT_3D('',#1781,#1782,#1783);
#1785=CIRCLE('',#1784,2.1);
#1786=EDGE_CURVE('',#1780,#1772,#1785,.T.);
#1787=ORIENTED_EDGE('',*,*,#1786,.F.);
#1788=CARTESIAN_POINT('',(573.592245579,60.044921935,-8.));
#1789=DIRECTION('',(0.,0.,-1.));
#1790=DIRECTION('',(-1.,0.,0.));
#1791=AXIS2_PLACEMENT_3D('',#1788,#1789,#1790);
#1792=CIRCLE('',#1791,2.1);
#1793=EDGE_CURVE('',#1772,#1780,#1792,.T.);
#1794=ORIENTED_EDGE('',*,*,#1793,.F.);
#1795=ORIENTED_EDGE('',*,*,#1777,.F.);
#1796=ORIENTED_EDGE('',*,*,#567,.T.);
#1797=ORIENTED_EDGE('',*,*,#574,.T.);
#1798=EDGE_LOOP('',(#1778,#1787,#1794,#1795,#1796,#1797));
#1799=FACE_BOUND('',#1798,.T.);
#1800=ADVANCED_FACE('',(#1799),#1770,.T.);
#1801=CARTESIAN_POINT('',(0.,0.,-8.));
#1802=DIRECTION('',(0.,0.,-1.));
#1803=DIRECTION('',(-1.,0.,0.));
#1804=AXIS2_PLACEMENT_3D('',#1801,#1802,#1803);
#1805=PLANE('',#1804);
#1806=ORIENTED_EDGE('',*,*,#1754,.F.);
#1807=ORIENTED_EDGE('',*,*,#1761,.F.);
#1808=EDGE_LOOP('',(#1806,#1807));
#1809=FACE_BOUND('',#1808,.T.);
#1810=ORIENTED_EDGE('',*,*,#1786,.T.);
#1811=ORIENTED_EDGE('',*,*,#1793,.T.);
#1812=EDGE_LOOP('',(#1810,#1811));
#1813=FACE_BOUND('',#1812,.T.);
#1814=ADVANCED_FACE('',(#1809,#1813),#1805,.T.);
#1815=CARTESIAN_POINT('',(-139.,0.,-5.));
#1816=DIRECTION('',(0.,0.,-1.));
#1817=DIRECTION('',(-1.,0.,0.));
#1818=AXIS2_PLACEMENT_3D('',#1815,#1816,#1817);
#1819=PLANE('',#1818);
#1820=ORIENTED_EDGE('',*,*,#1737,.F.);
#1821=ORIENTED_EDGE('',*,*,#1744,.F.);
#1822=EDGE_LOOP('',(#1820,#1821));
#1823=FACE_BOUND('',#1822,.T.);
#1824=ADVANCED_FACE('',(#1823),#1819,.T.);
#1825=CARTESIAN_POINT('',(531.9,112.2,-8.));
#1826=DIRECTION('',(0.,0.,1.));
#1827=DIRECTION('',(1.,0.,-0.));
#1828=AXIS2_PLACEMENT_3D('',#1825,#1826,#1827);
#1829=CYLINDRICAL_SURFACE('',#1828,1.5);
#1830=CARTESIAN_POINT('',(533.4,112.2,-5.));
#1831=VERTEX_POINT('',#1830);
#1832=CARTESIAN_POINT('',(533.4,112.2,-8.));
#1833=VERTEX_POINT('',#1832);
#1834=CARTESIAN_POINT('',(533.4,112.2,-5.));
#1835=DIRECTION('',(-0.,-0.,-1.));
#1836=VECTOR('',#1835,3.);
#1837=LINE('',#1834,#1836);
#1838=EDGE_CURVE('',#1831,#1833,#1837,.T.);
#1839=ORIENTED_EDGE('',*,*,#1838,.F.);
#1840=CARTESIAN_POINT('',(530.4,112.2,-5.));
#1841=VERTEX_POINT('',#1840);
#1842=CARTESIAN_POINT('',(531.9,112.2,-5.));
#1843=DIRECTION('',(-0.,-0.,1.));
#1844=DIRECTION('',(-1.,0.,0.));
#1845=AXIS2_PLACEMENT_3D('',#1842,#1843,#1844);
#1846=CIRCLE('',#1845,1.5);
#1847=EDGE_CURVE('',#1831,#1841,#1846,.T.);
#1848=ORIENTED_EDGE('',*,*,#1847,.T.);
#1849=CARTESIAN_POINT('',(531.9,112.2,-5.));
#1850=DIRECTION('',(-0.,-0.,1.));
#1851=DIRECTION('',(-1.,0.,0.));
#1852=AXIS2_PLACEMENT_3D('',#1849,#1850,#1851);
#1853=CIRCLE('',#1852,1.5);
#1854=EDGE_CURVE('',#1841,#1831,#1853,.T.);
#1855=ORIENTED_EDGE('',*,*,#1854,.T.);
#1856=ORIENTED_EDGE('',*,*,#1838,.T.);
#1857=CARTESIAN_POINT('',(530.4,112.2,-8.));
#1858=VERTEX_POINT('',#1857);
#1859=CARTESIAN_POINT('',(531.9,112.2,-8.));
#1860=DIRECTION('',(0.,0.,-1.));
#1861=DIRECTION('',(-1.,0.,0.));
#1862=AXIS2_PLACEMENT_3D('',#1859,#1860,#1861);
#1863=CIRCLE('',#1862,1.5);
#1864=EDGE_CURVE('',#1833,#1858,#1863,.T.);
#1865=ORIENTED_EDGE('',*,*,#1864,.T.);
#1866=CARTESIAN_POINT('',(531.9,112.2,-8.));
#1867=DIRECTION('',(0.,0.,-1.));
#1868=DIRECTION('',(-1.,0.,0.));
#1869=AXIS2_PLACEMENT_3D('',#1866,#1867,#1868);
#1870=CIRCLE('',#1869,1.5);
#1871=EDGE_CURVE('',#1858,#1833,#1870,.T.);
#1872=ORIENTED_EDGE('',*,*,#1871,.T.);
#1873=EDGE_LOOP('',(#1839,#1848,#1855,#1856,#1865,#1872));
#1874=FACE_BOUND('',#1873,.T.);
#1875=ADVANCED_FACE('',(#1874),#1829,.F.);
#1876=CARTESIAN_POINT('',(531.9,112.2,-8.));
#1877=DIRECTION('',(0.,0.,1.));
#1878=DIRECTION('',(1.,0.,-0.));
#1879=AXIS2_PLACEMENT_3D('',#1876,#1877,#1878);
#1880=CYLINDRICAL_SURFACE('',#1879,2.1);
#1881=CARTESIAN_POINT('',(534.,112.2,-8.));
#1882=VERTEX_POINT('',#1881);
#1883=CARTESIAN_POINT('',(534.,112.2,-5.));
#1884=DIRECTION('',(-0.,-0.,-1.));
#1885=VECTOR('',#1884,3.);
#1886=LINE('',#1883,#1885);
#1887=EDGE_CURVE('',#539,#1882,#1886,.T.);
#1888=ORIENTED_EDGE('',*,*,#1887,.T.);
#1889=CARTESIAN_POINT('',(529.8,112.2,-8.));
#1890=VERTEX_POINT('',#1889);
#1891=CARTESIAN_POINT('',(531.9,112.2,-8.));
#1892=DIRECTION('',(0.,0.,-1.));
#1893=DIRECTION('',(-1.,0.,0.));
#1894=AXIS2_PLACEMENT_3D('',#1891,#1892,#1893);
#1895=CIRCLE('',#1894,2.1);
#1896=EDGE_CURVE('',#1890,#1882,#1895,.T.);
#1897=ORIENTED_EDGE('',*,*,#1896,.F.);
#1898=CARTESIAN_POINT('',(531.9,112.2,-8.));
#1899=DIRECTION('',(0.,0.,-1.));
#1900=DIRECTION('',(-1.,0.,0.));
#1901=AXIS2_PLACEMENT_3D('',#1898,#1899,#1900);
#1902=CIRCLE('',#1901,2.1);
#1903=EDGE_CURVE('',#1882,#1890,#1902,.T.);
#1904=ORIENTED_EDGE('',*,*,#1903,.F.);
#1905=ORIENTED_EDGE('',*,*,#1887,.F.);
#1906=ORIENTED_EDGE('',*,*,#547,.T.);
#1907=ORIENTED_EDGE('',*,*,#554,.T.);
#1908=EDGE_LOOP('',(#1888,#1897,#1904,#1905,#1906,#1907));
#1909=FACE_BOUND('',#1908,.T.);
#1910=ADVANCED_FACE('',(#1909),#1880,.T.);
#1911=CARTESIAN_POINT('',(0.,0.,-8.));
#1912=DIRECTION('',(0.,0.,-1.));
#1913=DIRECTION('',(-1.,0.,0.));
#1914=AXIS2_PLACEMENT_3D('',#1911,#1912,#1913);
#1915=PLANE('',#1914);
#1916=ORIENTED_EDGE('',*,*,#1864,.F.);
#1917=ORIENTED_EDGE('',*,*,#1871,.F.);
#1918=EDGE_LOOP('',(#1916,#1917));
#1919=FACE_BOUND('',#1918,.T.);
#1920=ORIENTED_EDGE('',*,*,#1896,.T.);
#1921=ORIENTED_EDGE('',*,*,#1903,.T.);
#1922=EDGE_LOOP('',(#1920,#1921));
#1923=FACE_BOUND('',#1922,.T.);
#1924=ADVANCED_FACE('',(#1919,#1923),#1915,.T.);
#1925=CARTESIAN_POINT('',(-139.,0.,-5.));
#1926=DIRECTION('',(0.,0.,-1.));
#1927=DIRECTION('',(-1.,0.,0.));
#1928=AXIS2_PLACEMENT_3D('',#1925,#1926,#1927);
#1929=PLANE('',#1928);
#1930=ORIENTED_EDGE('',*,*,#1847,.F.);
#1931=ORIENTED_EDGE('',*,*,#1854,.F.);
#1932=EDGE_LOOP('',(#1930,#1931));
#1933=FACE_BOUND('',#1932,.T.);
#1934=ADVANCED_FACE('',(#1933),#1929,.T.);
#1935=CLOSED_SHELL('',(#134,#235,#334,#433,#532,#614,#654,#685,#716,#738,#778,#809,#840,#862,#884,#901,#918,#930,#952,#969,#986,#998,#1029,#1053,#1077,#1094,
#1125,#1149,#1173,#1190,#1222,#1258,#1276,#1300,#1335,#1364,#1444,#1466,#1483,#1500,#1512,#1534,#1551,#1568,#1580,#1592,#1604,#1655,#1690,#1704,#1714,
#1765,#1800,#1814,#1824,#1875,#1910,#1924,#1934));
#1936=MANIFOLD_SOLID_BREP('macropad case',#1935);
#1937=COLOUR_RGB('',0.627451003,0.627451003,0.643137276);
#1938=FILL_AREA_STYLE_COLOUR('',#1937);
#1939=FILL_AREA_STYLE('',(#1938));
#1940=SURFACE_STYLE_FILL_AREA(#1939);
#1941=SURFACE_SIDE_STYLE('',(#1940));
#1942=SURFACE_STYLE_USAGE(.BOTH.,#1941);
#1943=PRESENTATION_STYLE_ASSIGNMENT((#1942));
#26=STYLED_ITEM('',(#1943),#1936);
#16=SHAPE_REPRESENTATION('root',(#15),#10);
#17=ADVANCED_BREP_SHAPE_REPRESENTATION('root',(#1936),#10);
#1951=SHAPE_REPRESENTATION_RELATIONSHIP('','',#16,#17);
#1952=CARTESIAN_POINT('',(0.,0.,0.));
#1953=DIRECTION('',(0.,0.,1.));
#1954=DIRECTION('',(1.,0.,0.));
#1955=AXIS2_PLACEMENT_3D('',#1952,#1953,#1954);
#1957=MAPPED_ITEM('',#1956,#1955);
#1956=REPRESENTATION_MAP(#1955,#16);
#1958=APPLICATION_CONTEXT('Managed model based 3d engineering');
#1959=APPLICATION_PROTOCOL_DEFINITION('international standard','ap242_managed_model_based_3d_engineering',2014,#1958);
#1960=PRODUCT_CONTEXT('',#1958,'mechanical');
#1961=PRODUCT_DEFINITION_CONTEXT('part definition',#1958,'design');
#24=PRODUCT('root','root','',(#1960));
#1962=PRODUCT_RELATED_PRODUCT_CATEGORY('part','',(#24));
#1963=PRODUCT_DEFINITION_FORMATION_WITH_SPECIFIED_SOURCE('','',#24,.NOT_KNOWN.);
#25=PRODUCT_DEFINITION('design','',#1963,#1961);
#23=PRODUCT_DEFINITION_SHAPE('','',#25);
#1964=SHAPE_DEFINITION_REPRESENTATION(#23,#16);
#11=DRAUGHTING_MODEL('',(#1957),#10);
#1965=DESCRIPTIVE_REPRESENTATION_ITEM('KEY','C:\\Users\\cybdo\\AppData\\Local\\Packages\\Shapr3D.Shapr3D_j403pzjkqtqbj\\TempState\\0d49903c-d9d2-4568-b0bb-bc2bb1c0cb8c.tmp');
#1966=PROPERTY_DEFINITION('KEY','',#25);
#1967=REPRESENTATION('',(#1965),#10);
#1968=PROPERTY_DEFINITION_REPRESENTATION(#1966,#1967);
#1969=GENERAL_PROPERTY('','KEY','');
#1970=GENERAL_PROPERTY_ASSOCIATION('','',#1969,#1966);
#1=MECHANICAL_DESIGN_GEOMETRIC_PRESENTATION_REPRESENTATION('',(#26),#10);
ENDSEC;
END-ISO-10303-21;
