ISO-10303-21;
HEADER;

/* File generated by Shapr3D Version 26.100.11031.0 */

FILE_DESCRIPTION(('HOOPS Exchange Step'),'2;1');

FILE_NAME('C:\\Users\\cybdo\\AppData\\Local\\Packages\\Shapr3D.Shapr3D_j403pzjkqtqbj\\TempState\\export\\temp_export',
'2026-06-21T20:54:11+10:00',
('cybdo'),
('Shapr3D Limited'),
'HOOPS Exchange 2026.3',
'Shapr3D',
'Authorized');

FILE_SCHEMA( ('AP242_MANAGED_MODEL_BASED_3D_ENGINEERING_MIM_LF {1 0 10303 442 1 1 4}') );

ENDSEC;

DATA;
#3=(NAMED_UNIT(*)PLANE_ANGLE_UNIT()SI_UNIT($,.RADIAN.));
#4=PLANE_ANGLE_MEASURE_WITH_UNIT(PLANE_ANGLE_MEASURE(0.0174532925),#3);
#5=(CONVERSION_BASED_UNIT('DEGREE',#4)NAMED_UNIT(#6)PLANE_ANGLE_UNIT());
#6=DIMENSIONAL_EXPONENTS(0.,0.,0.,0.,0.,0.,0.);
#7=(NAMED_UNIT(*)SI_UNIT($,.STERADIAN.)SOLID_ANGLE_UNIT());
#8=(LENGTH_UNIT()NAMED_UNIT(*)SI_UNIT(.MILLI.,.METRE.));
#9=UNCERTAINTY_MEASURE_WITH_UNIT(LENGTH_MEASURE(1.000000E-05),#8,'DISTANCE_ACCURACY_VALUE','Maximum Tolerance applied to model');
#10=(GEOMETRIC_REPRESENTATION_CONTEXT(3)GLOBAL_UNCERTAINTY_ASSIGNED_CONTEXT((#9))GLOBAL_UNIT_ASSIGNED_CONTEXT((#8,#5,#7))REPRESENTATION_CONTEXT('','root'));
#12=CARTESIAN_POINT('',(0.,0.,0.));
#13=DIRECTION('',(0.,0.,1.));
#14=DIRECTION('',(1.,0.,0.));
#15=AXIS2_PLACEMENT_3D('',#12,#13,#14);
#27=CARTESIAN_POINT('',(150.,70.,5.));
#28=DIRECTION('',(-0.,1.,0.));
#29=DIRECTION('',(-1.,-0.,0.));
#30=AXIS2_PLACEMENT_3D('',#27,#28,#29);
#31=PLANE('',#30);
#32=CARTESIAN_POINT('',(-0.,70.,0.));
#33=VERTEX_POINT('',#32);
#34=CARTESIAN_POINT('',(300.,70.,0.));
#35=VERTEX_POINT('',#34);
#36=CARTESIAN_POINT('',(0.,70.,0.));
#37=DIRECTION('',(1.,0.,0.));
#38=VECTOR('',#37,300.);
#39=LINE('',#36,#38);
#40=EDGE_CURVE('',#33,#35,#39,.T.);
#41=ORIENTED_EDGE('',*,*,#40,.T.);
#42=CARTESIAN_POINT('',(300.,70.,5.));
#43=VERTEX_POINT('',#42);
#44=CARTESIAN_POINT('',(300.,70.,5.));
#45=DIRECTION('',(0.,0.,-1.));
#46=VECTOR('',#45,5.);
#47=LINE('',#44,#46);
#48=EDGE_CURVE('',#43,#35,#47,.T.);
#49=ORIENTED_EDGE('',*,*,#48,.F.);
#50=CARTESIAN_POINT('',(-0.,70.,5.));
#51=VERTEX_POINT('',#50);
#52=CARTESIAN_POINT('',(0.,70.,5.));
#53=DIRECTION('',(1.,0.,0.));
#54=VECTOR('',#53,300.);
#55=LINE('',#52,#54);
#56=EDGE_CURVE('',#51,#43,#55,.T.);
#57=ORIENTED_EDGE('',*,*,#56,.F.);
#58=CARTESIAN_POINT('',(-0.,70.,5.));
#59=DIRECTION('',(0.,0.,-1.));
#60=VECTOR('',#59,5.);
#61=LINE('',#58,#60);
#62=EDGE_CURVE('',#51,#33,#61,.T.);
#63=ORIENTED_EDGE('',*,*,#62,.T.);
#64=EDGE_LOOP('',(#41,#49,#57,#63));
#65=FACE_BOUND('',#64,.T.);
#66=ADVANCED_FACE('',(#65),#31,.F.);
#67=CARTESIAN_POINT('',(300.,85.,5.));
#68=DIRECTION('',(-1.,0.,0.));
#69=DIRECTION('',(0.,0.,1.));
#70=AXIS2_PLACEMENT_3D('',#67,#68,#69);
#71=PLANE('',#70);
#72=CARTESIAN_POINT('',(300.,100.,0.));
#73=VERTEX_POINT('',#72);
#74=CARTESIAN_POINT('',(300.,70.,0.));
#75=DIRECTION('',(0.,1.,0.));
#76=VECTOR('',#75,30.);
#77=LINE('',#74,#76);
#78=EDGE_CURVE('',#35,#73,#77,.T.);
#79=ORIENTED_EDGE('',*,*,#78,.T.);
#80=CARTESIAN_POINT('',(300.,100.,5.));
#81=VERTEX_POINT('',#80);
#82=CARTESIAN_POINT('',(300.,100.,5.));
#83=DIRECTION('',(0.,0.,-1.));
#84=VECTOR('',#83,5.);
#85=LINE('',#82,#84);
#86=EDGE_CURVE('',#81,#73,#85,.T.);
#87=ORIENTED_EDGE('',*,*,#86,.F.);
#88=CARTESIAN_POINT('',(300.,70.,5.));
#89=DIRECTION('',(0.,1.,0.));
#90=VECTOR('',#89,30.);
#91=LINE('',#88,#90);
#92=EDGE_CURVE('',#43,#81,#91,.T.);
#93=ORIENTED_EDGE('',*,*,#92,.F.);
#94=ORIENTED_EDGE('',*,*,#48,.T.);
#95=EDGE_LOOP('',(#79,#87,#93,#94));
#96=FACE_BOUND('',#95,.T.);
#97=ADVANCED_FACE('',(#96),#71,.F.);
#98=CARTESIAN_POINT('',(150.,100.,5.));
#99=DIRECTION('',(0.,-1.,0.));
#100=DIRECTION('',(1.,0.,0.));
#101=AXIS2_PLACEMENT_3D('',#98,#99,#100);
#102=PLANE('',#101);
#103=CARTESIAN_POINT('',(-0.,100.,0.));
#104=VERTEX_POINT('',#103);
#105=CARTESIAN_POINT('',(300.,100.,0.));
#106=DIRECTION('',(-1.,-0.,0.));
#107=VECTOR('',#106,300.);
#108=LINE('',#105,#107);
#109=EDGE_CURVE('',#73,#104,#108,.T.);
#110=ORIENTED_EDGE('',*,*,#109,.T.);
#111=CARTESIAN_POINT('',(-0.,100.,5.));
#112=VERTEX_POINT('',#111);
#113=CARTESIAN_POINT('',(-0.,100.,5.));
#114=DIRECTION('',(0.,0.,-1.));
#115=VECTOR('',#114,5.);
#116=LINE('',#113,#115);
#117=EDGE_CURVE('',#112,#104,#116,.T.);
#118=ORIENTED_EDGE('',*,*,#117,.F.);
#119=CARTESIAN_POINT('',(300.,100.,5.));
#120=DIRECTION('',(-1.,-0.,0.));
#121=VECTOR('',#120,300.);
#122=LINE('',#119,#121);
#123=EDGE_CURVE('',#81,#112,#122,.T.);
#124=ORIENTED_EDGE('',*,*,#123,.F.);
#125=ORIENTED_EDGE('',*,*,#86,.T.);
#126=EDGE_LOOP('',(#110,#118,#124,#125));
#127=FACE_BOUND('',#126,.T.);
#128=ADVANCED_FACE('',(#127),#102,.F.);
#129=CARTESIAN_POINT('',(-0.,85.,5.));
#130=DIRECTION('',(1.,0.,0.));
#131=DIRECTION('',(-0.,1.,0.));
#132=AXIS2_PLACEMENT_3D('',#129,#130,#131);
#133=PLANE('',#132);
#134=CARTESIAN_POINT('',(-0.,100.,0.));
#135=DIRECTION('',(0.,-1.,0.));
#136=VECTOR('',#135,30.);
#137=LINE('',#134,#136);
#138=EDGE_CURVE('',#104,#33,#137,.T.);
#139=ORIENTED_EDGE('',*,*,#138,.T.);
#140=ORIENTED_EDGE('',*,*,#62,.F.);
#141=CARTESIAN_POINT('',(-0.,100.,5.));
#142=DIRECTION('',(0.,-1.,0.));
#143=VECTOR('',#142,30.);
#144=LINE('',#141,#143);
#145=EDGE_CURVE('',#112,#51,#144,.T.);
#146=ORIENTED_EDGE('',*,*,#145,.F.);
#147=ORIENTED_EDGE('',*,*,#117,.T.);
#148=EDGE_LOOP('',(#139,#140,#146,#147));
#149=FACE_BOUND('',#148,.T.);
#150=ADVANCED_FACE('',(#149),#133,.F.);
#151=CARTESIAN_POINT('',(0.,0.,5.));
#152=DIRECTION('',(0.,0.,1.));
#153=DIRECTION('',(1.,0.,0.));
#154=AXIS2_PLACEMENT_3D('',#151,#152,#153);
#155=PLANE('',#154);
#156=CARTESIAN_POINT('',(295.8,85.,5.));
#157=VERTEX_POINT('',#156);
#158=CARTESIAN_POINT('',(299.2,85.,5.));
#159=VERTEX_POINT('',#158);
#160=CARTESIAN_POINT('',(297.5,85.,5.));
#161=DIRECTION('',(0.,0.,1.));
#162=DIRECTION('',(1.,0.,-0.));
#163=AXIS2_PLACEMENT_3D('',#160,#161,#162);
#164=CIRCLE('',#163,1.7);
#165=EDGE_CURVE('',#157,#159,#164,.T.);
#166=ORIENTED_EDGE('',*,*,#165,.F.);
#167=CARTESIAN_POINT('',(297.5,85.,5.));
#168=DIRECTION('',(0.,0.,1.));
#169=DIRECTION('',(1.,0.,-0.));
#170=AXIS2_PLACEMENT_3D('',#167,#168,#169);
#171=CIRCLE('',#170,1.7);
#172=EDGE_CURVE('',#159,#157,#171,.T.);
#173=ORIENTED_EDGE('',*,*,#172,.F.);
#174=EDGE_LOOP('',(#166,#173));
#175=FACE_BOUND('',#174,.T.);
#176=CARTESIAN_POINT('',(0.8,85.,5.));
#177=VERTEX_POINT('',#176);
#178=CARTESIAN_POINT('',(4.2,85.,5.));
#179=VERTEX_POINT('',#178);
#180=CARTESIAN_POINT('',(2.5,85.,5.));
#181=DIRECTION('',(0.,0.,1.));
#182=DIRECTION('',(1.,0.,-0.));
#183=AXIS2_PLACEMENT_3D('',#180,#181,#182);
#184=CIRCLE('',#183,1.7);
#185=EDGE_CURVE('',#177,#179,#184,.T.);
#186=ORIENTED_EDGE('',*,*,#185,.F.);
#187=CARTESIAN_POINT('',(2.5,85.,5.));
#188=DIRECTION('',(0.,0.,1.));
#189=DIRECTION('',(1.,0.,-0.));
#190=AXIS2_PLACEMENT_3D('',#187,#188,#189);
#191=CIRCLE('',#190,1.7);
#192=EDGE_CURVE('',#179,#177,#191,.T.);
#193=ORIENTED_EDGE('',*,*,#192,.F.);
#194=EDGE_LOOP('',(#186,#193));
#195=FACE_BOUND('',#194,.T.);
#196=ORIENTED_EDGE('',*,*,#56,.T.);
#197=ORIENTED_EDGE('',*,*,#92,.T.);
#198=ORIENTED_EDGE('',*,*,#123,.T.);
#199=ORIENTED_EDGE('',*,*,#145,.T.);
#200=EDGE_LOOP('',(#196,#197,#198,#199));
#201=FACE_BOUND('',#200,.T.);
#202=ADVANCED_FACE('',(#175,#195,#201),#155,.T.);
#203=CARTESIAN_POINT('',(0.,0.,0.));
#204=DIRECTION('',(0.,0.,1.));
#205=DIRECTION('',(1.,0.,0.));
#206=AXIS2_PLACEMENT_3D('',#203,#204,#205);
#207=PLANE('',#206);
#208=CARTESIAN_POINT('',(4.9,85.,0.));
#209=VERTEX_POINT('',#208);
#210=CARTESIAN_POINT('',(0.1,85.,0.));
#211=VERTEX_POINT('',#210);
#212=CARTESIAN_POINT('',(2.5,85.,0.));
#213=DIRECTION('',(0.,0.,1.));
#214=DIRECTION('',(1.,0.,-0.));
#215=AXIS2_PLACEMENT_3D('',#212,#213,#214);
#216=CIRCLE('',#215,2.4);
#217=EDGE_CURVE('',#209,#211,#216,.T.);
#218=ORIENTED_EDGE('',*,*,#217,.T.);
#219=CARTESIAN_POINT('',(2.5,85.,0.));
#220=DIRECTION('',(0.,0.,1.));
#221=DIRECTION('',(1.,0.,-0.));
#222=AXIS2_PLACEMENT_3D('',#219,#220,#221);
#223=CIRCLE('',#222,2.4);
#224=EDGE_CURVE('',#211,#209,#223,.T.);
#225=ORIENTED_EDGE('',*,*,#224,.T.);
#226=EDGE_LOOP('',(#218,#225));
#227=FACE_BOUND('',#226,.T.);
#228=CARTESIAN_POINT('',(299.9,85.,0.));
#229=VERTEX_POINT('',#228);
#230=CARTESIAN_POINT('',(295.1,85.,0.));
#231=VERTEX_POINT('',#230);
#232=CARTESIAN_POINT('',(297.5,85.,0.));
#233=DIRECTION('',(0.,0.,1.));
#234=DIRECTION('',(1.,0.,-0.));
#235=AXIS2_PLACEMENT_3D('',#232,#233,#234);
#236=CIRCLE('',#235,2.4);
#237=EDGE_CURVE('',#229,#231,#236,.T.);
#238=ORIENTED_EDGE('',*,*,#237,.T.);
#239=CARTESIAN_POINT('',(297.5,85.,0.));
#240=DIRECTION('',(0.,0.,1.));
#241=DIRECTION('',(1.,0.,-0.));
#242=AXIS2_PLACEMENT_3D('',#239,#240,#241);
#243=CIRCLE('',#242,2.4);
#244=EDGE_CURVE('',#231,#229,#243,.T.);
#245=ORIENTED_EDGE('',*,*,#244,.T.);
#246=EDGE_LOOP('',(#238,#245));
#247=FACE_BOUND('',#246,.T.);
#248=ORIENTED_EDGE('',*,*,#40,.F.);
#249=ORIENTED_EDGE('',*,*,#138,.F.);
#250=ORIENTED_EDGE('',*,*,#109,.F.);
#251=ORIENTED_EDGE('',*,*,#78,.F.);
#252=EDGE_LOOP('',(#248,#249,#250,#251));
#253=FACE_BOUND('',#252,.T.);
#254=ADVANCED_FACE('',(#227,#247,#253),#207,.F.);
#255=CARTESIAN_POINT('',(2.5,85.,6.2));
#256=DIRECTION('',(0.,0.,-1.));
#257=DIRECTION('',(-1.,0.,0.));
#258=AXIS2_PLACEMENT_3D('',#255,#256,#257);
#259=CYLINDRICAL_SURFACE('',#258,1.7);
#260=CARTESIAN_POINT('',(0.8,85.,0.7));
#261=VERTEX_POINT('',#260);
#262=CARTESIAN_POINT('',(0.8,85.,0.7));
#263=DIRECTION('',(-0.,-0.,1.));
#264=VECTOR('',#263,4.3);
#265=LINE('',#262,#264);
#266=EDGE_CURVE('',#261,#177,#265,.T.);
#267=ORIENTED_EDGE('',*,*,#266,.F.);
#268=CARTESIAN_POINT('',(4.2,85.,0.7));
#269=VERTEX_POINT('',#268);
#270=CARTESIAN_POINT('',(2.5,85.,0.7));
#271=DIRECTION('',(-0.,-0.,-1.));
#272=DIRECTION('',(1.,0.,-0.));
#273=AXIS2_PLACEMENT_3D('',#270,#271,#272);
#274=CIRCLE('',#273,1.7);
#275=EDGE_CURVE('',#261,#269,#274,.T.);
#276=ORIENTED_EDGE('',*,*,#275,.T.);
#277=CARTESIAN_POINT('',(2.5,85.,0.7));
#278=DIRECTION('',(-0.,-0.,-1.));
#279=DIRECTION('',(1.,0.,-0.));
#280=AXIS2_PLACEMENT_3D('',#277,#278,#279);
#281=CIRCLE('',#280,1.7);
#282=EDGE_CURVE('',#269,#261,#281,.T.);
#283=ORIENTED_EDGE('',*,*,#282,.T.);
#284=ORIENTED_EDGE('',*,*,#266,.T.);
#285=ORIENTED_EDGE('',*,*,#185,.T.);
#286=ORIENTED_EDGE('',*,*,#192,.T.);
#287=EDGE_LOOP('',(#267,#276,#283,#284,#285,#286));
#288=FACE_BOUND('',#287,.T.);
#289=ADVANCED_FACE('',(#288),#259,.F.);
#290=CARTESIAN_POINT('',(297.5,85.,5.5));
#291=DIRECTION('',(0.,0.,-1.));
#292=DIRECTION('',(-1.,0.,0.));
#293=AXIS2_PLACEMENT_3D('',#290,#291,#292);
#294=CYLINDRICAL_SURFACE('',#293,1.7);
#295=CARTESIAN_POINT('',(295.8,85.,0.7));
#296=VERTEX_POINT('',#295);
#297=CARTESIAN_POINT('',(295.8,85.,0.7));
#298=DIRECTION('',(-0.,-0.,1.));
#299=VECTOR('',#298,4.3);
#300=LINE('',#297,#299);
#301=EDGE_CURVE('',#296,#157,#300,.T.);
#302=ORIENTED_EDGE('',*,*,#301,.F.);
#303=CARTESIAN_POINT('',(299.2,85.,0.7));
#304=VERTEX_POINT('',#303);
#305=CARTESIAN_POINT('',(297.5,85.,0.7));
#306=DIRECTION('',(-0.,-0.,-1.));
#307=DIRECTION('',(1.,0.,-0.));
#308=AXIS2_PLACEMENT_3D('',#305,#306,#307);
#309=CIRCLE('',#308,1.7);
#310=EDGE_CURVE('',#296,#304,#309,.T.);
#311=ORIENTED_EDGE('',*,*,#310,.T.);
#312=CARTESIAN_POINT('',(297.5,85.,0.7));
#313=DIRECTION('',(-0.,-0.,-1.));
#314=DIRECTION('',(1.,0.,-0.));
#315=AXIS2_PLACEMENT_3D('',#312,#313,#314);
#316=CIRCLE('',#315,1.7);
#317=EDGE_CURVE('',#304,#296,#316,.T.);
#318=ORIENTED_EDGE('',*,*,#317,.T.);
#319=ORIENTED_EDGE('',*,*,#301,.T.);
#320=ORIENTED_EDGE('',*,*,#165,.T.);
#321=ORIENTED_EDGE('',*,*,#172,.T.);
#322=EDGE_LOOP('',(#302,#311,#318,#319,#320,#321));
#323=FACE_BOUND('',#322,.T.);
#324=ADVANCED_FACE('',(#323),#294,.F.);
#325=CARTESIAN_POINT('',(297.5,85.,0.7));
#326=DIRECTION('',(0.,0.,-1.));
#327=DIRECTION('',(-1.,0.,0.));
#328=AXIS2_PLACEMENT_3D('',#325,#326,#327);
#329=CONICAL_SURFACE('',#328,1.7,45.);
#330=CARTESIAN_POINT('',(295.1,85.,0.));
#331=DIRECTION('',(0.707106781,-0.,0.707106781));
#332=VECTOR('',#331,0.989949494);
#333=LINE('',#330,#332);
#334=EDGE_CURVE('',#231,#296,#333,.T.);
#335=ORIENTED_EDGE('',*,*,#334,.F.);
#336=ORIENTED_EDGE('',*,*,#237,.F.);
#337=ORIENTED_EDGE('',*,*,#244,.F.);
#338=ORIENTED_EDGE('',*,*,#334,.T.);
#339=ORIENTED_EDGE('',*,*,#317,.F.);
#340=ORIENTED_EDGE('',*,*,#310,.F.);
#341=EDGE_LOOP('',(#335,#336,#337,#338,#339,#340));
#342=FACE_BOUND('',#341,.T.);
#343=ADVANCED_FACE('',(#342),#329,.F.);
#344=CARTESIAN_POINT('',(2.5,85.,0.7));
#345=DIRECTION('',(0.,0.,-1.));
#346=DIRECTION('',(-1.,0.,0.));
#347=AXIS2_PLACEMENT_3D('',#344,#345,#346);
#348=CONICAL_SURFACE('',#347,1.7,45.);
#349=CARTESIAN_POINT('',(0.1,85.,-0.));
#350=DIRECTION('',(0.707106781,-0.,0.707106781));
#351=VECTOR('',#350,0.989949494);
#352=LINE('',#349,#351);
#353=EDGE_CURVE('',#211,#261,#352,.T.);
#354=ORIENTED_EDGE('',*,*,#353,.F.);
#355=ORIENTED_EDGE('',*,*,#217,.F.);
#356=ORIENTED_EDGE('',*,*,#224,.F.);
#357=ORIENTED_EDGE('',*,*,#353,.T.);
#358=ORIENTED_EDGE('',*,*,#282,.F.);
#359=ORIENTED_EDGE('',*,*,#275,.F.);
#360=EDGE_LOOP('',(#354,#355,#356,#357,#358,#359));
#361=FACE_BOUND('',#360,.T.);
#362=ADVANCED_FACE('',(#361),#348,.F.);
#363=CLOSED_SHELL('',(#66,#97,#128,#150,#202,#254,#289,#324,#343,#362));
#364=MANIFOLD_SOLID_BREP('Body 380',#363);
#365=COLOUR_RGB('',0.627451003,0.627451003,0.643137276);
#366=FILL_AREA_STYLE_COLOUR('',#365);
#367=FILL_AREA_STYLE('',(#366));
#368=SURFACE_STYLE_FILL_AREA(#367);
#369=SURFACE_SIDE_STYLE('',(#368));
#370=SURFACE_STYLE_USAGE(.BOTH.,#369);
#371=PRESENTATION_STYLE_ASSIGNMENT((#370));
#26=STYLED_ITEM('',(#371),#364);
#373=CARTESIAN_POINT('',(150.,0.,20.));
#374=DIRECTION('',(-0.,1.,0.));
#375=DIRECTION('',(-1.,-0.,0.));
#376=AXIS2_PLACEMENT_3D('',#373,#374,#375);
#377=PLANE('',#376);
#378=CARTESIAN_POINT('',(168.964538664,0.,6.473833691));
#379=VERTEX_POINT('',#378);
#380=CARTESIAN_POINT('',(168.964538664,0.,10.973833691));
#381=VERTEX_POINT('',#380);
#382=CARTESIAN_POINT('',(168.964538664,0.,6.473833691));
#383=DIRECTION('',(0.,0.,1.));
#384=VECTOR('',#383,4.5);
#385=LINE('',#382,#384);
#386=EDGE_CURVE('',#379,#381,#385,.T.);
#387=ORIENTED_EDGE('',*,*,#386,.T.);
#388=CARTESIAN_POINT('',(183.364538664,0.,10.973833691));
#389=VERTEX_POINT('',#388);
#390=CARTESIAN_POINT('',(168.964538664,0.,10.973833691));
#391=DIRECTION('',(1.,0.,0.));
#392=VECTOR('',#391,14.4);
#393=LINE('',#390,#392);
#394=EDGE_CURVE('',#381,#389,#393,.T.);
#395=ORIENTED_EDGE('',*,*,#394,.T.);
#396=CARTESIAN_POINT('',(183.364538664,0.,6.473833691));
#397=VERTEX_POINT('',#396);
#398=CARTESIAN_POINT('',(183.364538664,0.,10.973833691));
#399=DIRECTION('',(0.,0.,-1.));
#400=VECTOR('',#399,4.5);
#401=LINE('',#398,#400);
#402=EDGE_CURVE('',#389,#397,#401,.T.);
#403=ORIENTED_EDGE('',*,*,#402,.T.);
#404=CARTESIAN_POINT('',(183.364538664,0.,6.473833691));
#405=DIRECTION('',(-1.,-0.,0.));
#406=VECTOR('',#405,14.4);
#407=LINE('',#404,#406);
#408=EDGE_CURVE('',#397,#379,#407,.T.);
#409=ORIENTED_EDGE('',*,*,#408,.T.);
#410=EDGE_LOOP('',(#387,#395,#403,#409));
#411=FACE_BOUND('',#410,.T.);
#412=CARTESIAN_POINT('',(268.964538664,0.,6.473833691));
#413=VERTEX_POINT('',#412);
#414=CARTESIAN_POINT('',(268.964538664,0.,10.973833691));
#415=VERTEX_POINT('',#414);
#416=CARTESIAN_POINT('',(268.964538664,0.,6.473833691));
#417=DIRECTION('',(0.,0.,1.));
#418=VECTOR('',#417,4.5);
#419=LINE('',#416,#418);
#420=EDGE_CURVE('',#413,#415,#419,.T.);
#421=ORIENTED_EDGE('',*,*,#420,.T.);
#422=CARTESIAN_POINT('',(283.364538664,0.,10.973833691));
#423=VERTEX_POINT('',#422);
#424=CARTESIAN_POINT('',(268.964538664,0.,10.973833691));
#425=DIRECTION('',(1.,0.,0.));
#426=VECTOR('',#425,14.4);
#427=LINE('',#424,#426);
#428=EDGE_CURVE('',#415,#423,#427,.T.);
#429=ORIENTED_EDGE('',*,*,#428,.T.);
#430=CARTESIAN_POINT('',(283.364538664,0.,6.473833691));
#431=VERTEX_POINT('',#430);
#432=CARTESIAN_POINT('',(283.364538664,0.,10.973833691));
#433=DIRECTION('',(0.,0.,-1.));
#434=VECTOR('',#433,4.5);
#435=LINE('',#432,#434);
#436=EDGE_CURVE('',#423,#431,#435,.T.);
#437=ORIENTED_EDGE('',*,*,#436,.T.);
#438=CARTESIAN_POINT('',(283.364538664,0.,6.473833691));
#439=DIRECTION('',(-1.,-0.,0.));
#440=VECTOR('',#439,14.4);
#441=LINE('',#438,#440);
#442=EDGE_CURVE('',#431,#413,#441,.T.);
#443=ORIENTED_EDGE('',*,*,#442,.T.);
#444=EDGE_LOOP('',(#421,#429,#437,#443));
#445=FACE_BOUND('',#444,.T.);
#446=CARTESIAN_POINT('',(18.964538664,0.,6.473833691));
#447=VERTEX_POINT('',#446);
#448=CARTESIAN_POINT('',(18.964538664,0.,10.973833691));
#449=VERTEX_POINT('',#448);
#450=CARTESIAN_POINT('',(18.964538664,0.,6.473833691));
#451=DIRECTION('',(0.,0.,1.));
#452=VECTOR('',#451,4.5);
#453=LINE('',#450,#452);
#454=EDGE_CURVE('',#447,#449,#453,.T.);
#455=ORIENTED_EDGE('',*,*,#454,.T.);
#456=CARTESIAN_POINT('',(33.364538664,0.,10.973833691));
#457=VERTEX_POINT('',#456);
#458=CARTESIAN_POINT('',(18.964538664,0.,10.973833691));
#459=DIRECTION('',(1.,0.,0.));
#460=VECTOR('',#459,14.4);
#461=LINE('',#458,#460);
#462=EDGE_CURVE('',#449,#457,#461,.T.);
#463=ORIENTED_EDGE('',*,*,#462,.T.);
#464=CARTESIAN_POINT('',(33.364538664,0.,6.473833691));
#465=VERTEX_POINT('',#464);
#466=CARTESIAN_POINT('',(33.364538664,0.,10.973833691));
#467=DIRECTION('',(0.,0.,-1.));
#468=VECTOR('',#467,4.5);
#469=LINE('',#466,#468);
#470=EDGE_CURVE('',#457,#465,#469,.T.);
#471=ORIENTED_EDGE('',*,*,#470,.T.);
#472=CARTESIAN_POINT('',(33.364538664,0.,6.473833691));
#473=DIRECTION('',(-1.,-0.,0.));
#474=VECTOR('',#473,14.4);
#475=LINE('',#472,#474);
#476=EDGE_CURVE('',#465,#447,#475,.T.);
#477=ORIENTED_EDGE('',*,*,#476,.T.);
#478=EDGE_LOOP('',(#455,#463,#471,#477));
#479=FACE_BOUND('',#478,.T.);
#480=CARTESIAN_POINT('',(0.,0.,-5.));
#481=VERTEX_POINT('',#480);
#482=CARTESIAN_POINT('',(300.,0.,-5.));
#483=VERTEX_POINT('',#482);
#484=CARTESIAN_POINT('',(0.,-0.,-5.));
#485=DIRECTION('',(1.,0.,0.));
#486=VECTOR('',#485,300.);
#487=LINE('',#484,#486);
#488=EDGE_CURVE('',#481,#483,#487,.T.);
#489=ORIENTED_EDGE('',*,*,#488,.T.);
#490=CARTESIAN_POINT('',(300.,0.,20.));
#491=VERTEX_POINT('',#490);
#492=CARTESIAN_POINT('',(300.,0.,20.));
#493=DIRECTION('',(0.,0.,-1.));
#494=VECTOR('',#493,25.);
#495=LINE('',#492,#494);
#496=EDGE_CURVE('',#491,#483,#495,.T.);
#497=ORIENTED_EDGE('',*,*,#496,.F.);
#498=CARTESIAN_POINT('',(0.,0.,20.));
#499=VERTEX_POINT('',#498);
#500=CARTESIAN_POINT('',(0.,0.,20.));
#501=DIRECTION('',(1.,0.,0.));
#502=VECTOR('',#501,300.);
#503=LINE('',#500,#502);
#504=EDGE_CURVE('',#499,#491,#503,.T.);
#505=ORIENTED_EDGE('',*,*,#504,.F.);
#506=CARTESIAN_POINT('',(0.,0.,20.));
#507=DIRECTION('',(0.,0.,-1.));
#508=VECTOR('',#507,25.);
#509=LINE('',#506,#508);
#510=EDGE_CURVE('',#499,#481,#509,.T.);
#511=ORIENTED_EDGE('',*,*,#510,.T.);
#512=EDGE_LOOP('',(#489,#497,#505,#511));
#513=FACE_BOUND('',#512,.T.);
#514=CARTESIAN_POINT('',(68.964538664,0.,6.473833691));
#515=VERTEX_POINT('',#514);
#516=CARTESIAN_POINT('',(68.964538664,0.,10.973833691));
#517=VERTEX_POINT('',#516);
#518=CARTESIAN_POINT('',(68.964538664,0.,6.473833691));
#519=DIRECTION('',(0.,0.,1.));
#520=VECTOR('',#519,4.5);
#521=LINE('',#518,#520);
#522=EDGE_CURVE('',#515,#517,#521,.T.);
#523=ORIENTED_EDGE('',*,*,#522,.T.);
#524=CARTESIAN_POINT('',(83.364538664,0.,10.973833691));
#525=VERTEX_POINT('',#524);
#526=CARTESIAN_POINT('',(68.964538664,0.,10.973833691));
#527=DIRECTION('',(1.,0.,0.));
#528=VECTOR('',#527,14.4);
#529=LINE('',#526,#528);
#530=EDGE_CURVE('',#517,#525,#529,.T.);
#531=ORIENTED_EDGE('',*,*,#530,.T.);
#532=CARTESIAN_POINT('',(83.364538664,0.,6.473833691));
#533=VERTEX_POINT('',#532);
#534=CARTESIAN_POINT('',(83.364538664,0.,10.973833691));
#535=DIRECTION('',(0.,0.,-1.));
#536=VECTOR('',#535,4.5);
#537=LINE('',#534,#536);
#538=EDGE_CURVE('',#525,#533,#537,.T.);
#539=ORIENTED_EDGE('',*,*,#538,.T.);
#540=CARTESIAN_POINT('',(83.364538664,0.,6.473833691));
#541=DIRECTION('',(-1.,-0.,0.));
#542=VECTOR('',#541,14.4);
#543=LINE('',#540,#542);
#544=EDGE_CURVE('',#533,#515,#543,.T.);
#545=ORIENTED_EDGE('',*,*,#544,.T.);
#546=EDGE_LOOP('',(#523,#531,#539,#545));
#547=FACE_BOUND('',#546,.T.);
#548=CARTESIAN_POINT('',(118.964538664,0.,6.473833691));
#549=VERTEX_POINT('',#548);
#550=CARTESIAN_POINT('',(118.964538664,0.,10.973833691));
#551=VERTEX_POINT('',#550);
#552=CARTESIAN_POINT('',(118.964538664,0.,6.473833691));
#553=DIRECTION('',(0.,0.,1.));
#554=VECTOR('',#553,4.5);
#555=LINE('',#552,#554);
#556=EDGE_CURVE('',#549,#551,#555,.T.);
#557=ORIENTED_EDGE('',*,*,#556,.T.);
#558=CARTESIAN_POINT('',(133.364538664,0.,10.973833691));
#559=VERTEX_POINT('',#558);
#560=CARTESIAN_POINT('',(118.964538664,0.,10.973833691));
#561=DIRECTION('',(1.,0.,0.));
#562=VECTOR('',#561,14.4);
#563=LINE('',#560,#562);
#564=EDGE_CURVE('',#551,#559,#563,.T.);
#565=ORIENTED_EDGE('',*,*,#564,.T.);
#566=CARTESIAN_POINT('',(133.364538664,0.,6.473833691));
#567=VERTEX_POINT('',#566);
#568=CARTESIAN_POINT('',(133.364538664,0.,10.973833691));
#569=DIRECTION('',(0.,0.,-1.));
#570=VECTOR('',#569,4.5);
#571=LINE('',#568,#570);
#572=EDGE_CURVE('',#559,#567,#571,.T.);
#573=ORIENTED_EDGE('',*,*,#572,.T.);
#574=CARTESIAN_POINT('',(133.364538664,0.,6.473833691));
#575=DIRECTION('',(-1.,-0.,0.));
#576=VECTOR('',#575,14.4);
#577=LINE('',#574,#576);
#578=EDGE_CURVE('',#567,#549,#577,.T.);
#579=ORIENTED_EDGE('',*,*,#578,.T.);
#580=EDGE_LOOP('',(#557,#565,#573,#579));
#581=FACE_BOUND('',#580,.T.);
#582=CARTESIAN_POINT('',(218.964538664,0.,6.473833691));
#583=VERTEX_POINT('',#582);
#584=CARTESIAN_POINT('',(218.964538664,0.,10.973833691));
#585=VERTEX_POINT('',#584);
#586=CARTESIAN_POINT('',(218.964538664,0.,6.473833691));
#587=DIRECTION('',(0.,0.,1.));
#588=VECTOR('',#587,4.5);
#589=LINE('',#586,#588);
#590=EDGE_CURVE('',#583,#585,#589,.T.);
#591=ORIENTED_EDGE('',*,*,#590,.T.);
#592=CARTESIAN_POINT('',(233.364538664,0.,10.973833691));
#593=VERTEX_POINT('',#592);
#594=CARTESIAN_POINT('',(218.964538664,0.,10.973833691));
#595=DIRECTION('',(1.,0.,0.));
#596=VECTOR('',#595,14.4);
#597=LINE('',#594,#596);
#598=EDGE_CURVE('',#585,#593,#597,.T.);
#599=ORIENTED_EDGE('',*,*,#598,.T.);
#600=CARTESIAN_POINT('',(233.364538664,0.,6.473833691));
#601=VERTEX_POINT('',#600);
#602=CARTESIAN_POINT('',(233.364538664,0.,10.973833691));
#603=DIRECTION('',(0.,0.,-1.));
#604=VECTOR('',#603,4.5);
#605=LINE('',#602,#604);
#606=EDGE_CURVE('',#593,#601,#605,.T.);
#607=ORIENTED_EDGE('',*,*,#606,.T.);
#608=CARTESIAN_POINT('',(233.364538664,0.,6.473833691));
#609=DIRECTION('',(-1.,-0.,0.));
#610=VECTOR('',#609,14.4);
#611=LINE('',#608,#610);
#612=EDGE_CURVE('',#601,#583,#611,.T.);
#613=ORIENTED_EDGE('',*,*,#612,.T.);
#614=EDGE_LOOP('',(#591,#599,#607,#613));
#615=FACE_BOUND('',#614,.T.);
#616=ADVANCED_FACE('',(#411,#445,#479,#513,#547,#581,#615),#377,.F.);
#617=CARTESIAN_POINT('',(150.,3.,14.));
#618=DIRECTION('',(0.,-1.,0.));
#619=DIRECTION('',(1.,0.,0.));
#620=AXIS2_PLACEMENT_3D('',#617,#618,#619);
#621=PLANE('',#620);
#622=CARTESIAN_POINT('',(168.964538664,3.,6.473833691));
#623=VERTEX_POINT('',#622);
#624=CARTESIAN_POINT('',(168.964538664,3.,10.973833691));
#625=VERTEX_POINT('',#624);
#626=CARTESIAN_POINT('',(168.964538664,3.,6.473833691));
#627=DIRECTION('',(0.,0.,1.));
#628=VECTOR('',#627,4.5);
#629=LINE('',#626,#628);
#630=EDGE_CURVE('',#623,#625,#629,.T.);
#631=ORIENTED_EDGE('',*,*,#630,.F.);
#632=CARTESIAN_POINT('',(183.364538664,3.,6.473833691));
#633=VERTEX_POINT('',#632);
#634=CARTESIAN_POINT('',(183.364538664,3.,6.473833691));
#635=DIRECTION('',(-1.,-0.,0.));
#636=VECTOR('',#635,14.4);
#637=LINE('',#634,#636);
#638=EDGE_CURVE('',#633,#623,#637,.T.);
#639=ORIENTED_EDGE('',*,*,#638,.F.);
#640=CARTESIAN_POINT('',(183.364538664,3.,10.973833691));
#641=VERTEX_POINT('',#640);
#642=CARTESIAN_POINT('',(183.364538664,3.,10.973833691));
#643=DIRECTION('',(0.,0.,-1.));
#644=VECTOR('',#643,4.5);
#645=LINE('',#642,#644);
#646=EDGE_CURVE('',#641,#633,#645,.T.);
#647=ORIENTED_EDGE('',*,*,#646,.F.);
#648=CARTESIAN_POINT('',(168.964538664,3.,10.973833691));
#649=DIRECTION('',(1.,0.,0.));
#650=VECTOR('',#649,14.4);
#651=LINE('',#648,#650);
#652=EDGE_CURVE('',#625,#641,#651,.T.);
#653=ORIENTED_EDGE('',*,*,#652,.F.);
#654=EDGE_LOOP('',(#631,#639,#647,#653));
#655=FACE_BOUND('',#654,.T.);
#656=CARTESIAN_POINT('',(268.964538664,3.,6.473833691));
#657=VERTEX_POINT('',#656);
#658=CARTESIAN_POINT('',(268.964538664,3.,10.973833691));
#659=VERTEX_POINT('',#658);
#660=CARTESIAN_POINT('',(268.964538664,3.,6.473833691));
#661=DIRECTION('',(0.,0.,1.));
#662=VECTOR('',#661,4.5);
#663=LINE('',#660,#662);
#664=EDGE_CURVE('',#657,#659,#663,.T.);
#665=ORIENTED_EDGE('',*,*,#664,.F.);
#666=CARTESIAN_POINT('',(283.364538664,3.,6.473833691));
#667=VERTEX_POINT('',#666);
#668=CARTESIAN_POINT('',(283.364538664,3.,6.473833691));
#669=DIRECTION('',(-1.,-0.,0.));
#670=VECTOR('',#669,14.4);
#671=LINE('',#668,#670);
#672=EDGE_CURVE('',#667,#657,#671,.T.);
#673=ORIENTED_EDGE('',*,*,#672,.F.);
#674=CARTESIAN_POINT('',(283.364538664,3.,10.973833691));
#675=VERTEX_POINT('',#674);
#676=CARTESIAN_POINT('',(283.364538664,3.,10.973833691));
#677=DIRECTION('',(0.,0.,-1.));
#678=VECTOR('',#677,4.5);
#679=LINE('',#676,#678);
#680=EDGE_CURVE('',#675,#667,#679,.T.);
#681=ORIENTED_EDGE('',*,*,#680,.F.);
#682=CARTESIAN_POINT('',(268.964538664,3.,10.973833691));
#683=DIRECTION('',(1.,0.,0.));
#684=VECTOR('',#683,14.4);
#685=LINE('',#682,#684);
#686=EDGE_CURVE('',#659,#675,#685,.T.);
#687=ORIENTED_EDGE('',*,*,#686,.F.);
#688=EDGE_LOOP('',(#665,#673,#681,#687));
#689=FACE_BOUND('',#688,.T.);
#690=CARTESIAN_POINT('',(18.964538664,3.,6.473833691));
#691=VERTEX_POINT('',#690);
#692=CARTESIAN_POINT('',(18.964538664,3.,10.973833691));
#693=VERTEX_POINT('',#692);
#694=CARTESIAN_POINT('',(18.964538664,3.,6.473833691));
#695=DIRECTION('',(0.,0.,1.));
#696=VECTOR('',#695,4.5);
#697=LINE('',#694,#696);
#698=EDGE_CURVE('',#691,#693,#697,.T.);
#699=ORIENTED_EDGE('',*,*,#698,.F.);
#700=CARTESIAN_POINT('',(33.364538664,3.,6.473833691));
#701=VERTEX_POINT('',#700);
#702=CARTESIAN_POINT('',(33.364538664,3.,6.473833691));
#703=DIRECTION('',(-1.,-0.,0.));
#704=VECTOR('',#703,14.4);
#705=LINE('',#702,#704);
#706=EDGE_CURVE('',#701,#691,#705,.T.);
#707=ORIENTED_EDGE('',*,*,#706,.F.);
#708=CARTESIAN_POINT('',(33.364538664,3.,10.973833691));
#709=VERTEX_POINT('',#708);
#710=CARTESIAN_POINT('',(33.364538664,3.,10.973833691));
#711=DIRECTION('',(0.,0.,-1.));
#712=VECTOR('',#711,4.5);
#713=LINE('',#710,#712);
#714=EDGE_CURVE('',#709,#701,#713,.T.);
#715=ORIENTED_EDGE('',*,*,#714,.F.);
#716=CARTESIAN_POINT('',(18.964538664,3.,10.973833691));
#717=DIRECTION('',(1.,0.,0.));
#718=VECTOR('',#717,14.4);
#719=LINE('',#716,#718);
#720=EDGE_CURVE('',#693,#709,#719,.T.);
#721=ORIENTED_EDGE('',*,*,#720,.F.);
#722=EDGE_LOOP('',(#699,#707,#715,#721));
#723=FACE_BOUND('',#722,.T.);
#724=CARTESIAN_POINT('',(295.,3.,-5.));
#725=VERTEX_POINT('',#724);
#726=CARTESIAN_POINT('',(5.,3.,-5.));
#727=VERTEX_POINT('',#726);
#728=CARTESIAN_POINT('',(295.,3.,-5.));
#729=DIRECTION('',(-1.,-0.,0.));
#730=VECTOR('',#729,290.);
#731=LINE('',#728,#730);
#732=EDGE_CURVE('',#725,#727,#731,.T.);
#733=ORIENTED_EDGE('',*,*,#732,.T.);
#734=CARTESIAN_POINT('',(5.,3.,14.));
#735=VERTEX_POINT('',#734);
#736=CARTESIAN_POINT('',(5.,3.,14.));
#737=DIRECTION('',(0.,0.,-1.));
#738=VECTOR('',#737,19.);
#739=LINE('',#736,#738);
#740=EDGE_CURVE('',#735,#727,#739,.T.);
#741=ORIENTED_EDGE('',*,*,#740,.F.);
#742=CARTESIAN_POINT('',(295.,3.,14.));
#743=VERTEX_POINT('',#742);
#744=CARTESIAN_POINT('',(295.,3.,14.));
#745=DIRECTION('',(-1.,-0.,0.));
#746=VECTOR('',#745,290.);
#747=LINE('',#744,#746);
#748=EDGE_CURVE('',#743,#735,#747,.T.);
#749=ORIENTED_EDGE('',*,*,#748,.F.);
#750=CARTESIAN_POINT('',(295.,3.,14.));
#751=DIRECTION('',(0.,0.,-1.));
#752=VECTOR('',#751,19.);
#753=LINE('',#750,#752);
#754=EDGE_CURVE('',#743,#725,#753,.T.);
#755=ORIENTED_EDGE('',*,*,#754,.T.);
#756=EDGE_LOOP('',(#733,#741,#749,#755));
#757=FACE_BOUND('',#756,.T.);
#758=CARTESIAN_POINT('',(68.964538664,3.,6.473833691));
#759=VERTEX_POINT('',#758);
#760=CARTESIAN_POINT('',(68.964538664,3.,10.973833691));
#761=VERTEX_POINT('',#760);
#762=CARTESIAN_POINT('',(68.964538664,3.,6.473833691));
#763=DIRECTION('',(0.,0.,1.));
#764=VECTOR('',#763,4.5);
#765=LINE('',#762,#764);
#766=EDGE_CURVE('',#759,#761,#765,.T.);
#767=ORIENTED_EDGE('',*,*,#766,.F.);
#768=CARTESIAN_POINT('',(83.364538664,3.,6.473833691));
#769=VERTEX_POINT('',#768);
#770=CARTESIAN_POINT('',(83.364538664,3.,6.473833691));
#771=DIRECTION('',(-1.,-0.,0.));
#772=VECTOR('',#771,14.4);
#773=LINE('',#770,#772);
#774=EDGE_CURVE('',#769,#759,#773,.T.);
#775=ORIENTED_EDGE('',*,*,#774,.F.);
#776=CARTESIAN_POINT('',(83.364538664,3.,10.973833691));
#777=VERTEX_POINT('',#776);
#778=CARTESIAN_POINT('',(83.364538664,3.,10.973833691));
#779=DIRECTION('',(0.,0.,-1.));
#780=VECTOR('',#779,4.5);
#781=LINE('',#778,#780);
#782=EDGE_CURVE('',#777,#769,#781,.T.);
#783=ORIENTED_EDGE('',*,*,#782,.F.);
#784=CARTESIAN_POINT('',(68.964538664,3.,10.973833691));
#785=DIRECTION('',(1.,0.,0.));
#786=VECTOR('',#785,14.4);
#787=LINE('',#784,#786);
#788=EDGE_CURVE('',#761,#777,#787,.T.);
#789=ORIENTED_EDGE('',*,*,#788,.F.);
#790=EDGE_LOOP('',(#767,#775,#783,#789));
#791=FACE_BOUND('',#790,.T.);
#792=CARTESIAN_POINT('',(118.964538664,3.,6.473833691));
#793=VERTEX_POINT('',#792);
#794=CARTESIAN_POINT('',(118.964538664,3.,10.973833691));
#795=VERTEX_POINT('',#794);
#796=CARTESIAN_POINT('',(118.964538664,3.,6.473833691));
#797=DIRECTION('',(0.,0.,1.));
#798=VECTOR('',#797,4.5);
#799=LINE('',#796,#798);
#800=EDGE_CURVE('',#793,#795,#799,.T.);
#801=ORIENTED_EDGE('',*,*,#800,.F.);
#802=CARTESIAN_POINT('',(133.364538664,3.,6.473833691));
#803=VERTEX_POINT('',#802);
#804=CARTESIAN_POINT('',(133.364538664,3.,6.473833691));
#805=DIRECTION('',(-1.,-0.,0.));
#806=VECTOR('',#805,14.4);
#807=LINE('',#804,#806);
#808=EDGE_CURVE('',#803,#793,#807,.T.);
#809=ORIENTED_EDGE('',*,*,#808,.F.);
#810=CARTESIAN_POINT('',(133.364538664,3.,10.973833691));
#811=VERTEX_POINT('',#810);
#812=CARTESIAN_POINT('',(133.364538664,3.,10.973833691));
#813=DIRECTION('',(0.,0.,-1.));
#814=VECTOR('',#813,4.5);
#815=LINE('',#812,#814);
#816=EDGE_CURVE('',#811,#803,#815,.T.);
#817=ORIENTED_EDGE('',*,*,#816,.F.);
#818=CARTESIAN_POINT('',(118.964538664,3.,10.973833691));
#819=DIRECTION('',(1.,0.,0.));
#820=VECTOR('',#819,14.4);
#821=LINE('',#818,#820);
#822=EDGE_CURVE('',#795,#811,#821,.T.);
#823=ORIENTED_EDGE('',*,*,#822,.F.);
#824=EDGE_LOOP('',(#801,#809,#817,#823));
#825=FACE_BOUND('',#824,.T.);
#826=CARTESIAN_POINT('',(218.964538664,3.,6.473833691));
#827=VERTEX_POINT('',#826);
#828=CARTESIAN_POINT('',(218.964538664,3.,10.973833691));
#829=VERTEX_POINT('',#828);
#830=CARTESIAN_POINT('',(218.964538664,3.,6.473833691));
#831=DIRECTION('',(0.,0.,1.));
#832=VECTOR('',#831,4.5);
#833=LINE('',#830,#832);
#834=EDGE_CURVE('',#827,#829,#833,.T.);
#835=ORIENTED_EDGE('',*,*,#834,.F.);
#836=CARTESIAN_POINT('',(233.364538664,3.,6.473833691));
#837=VERTEX_POINT('',#836);
#838=CARTESIAN_POINT('',(233.364538664,3.,6.473833691));
#839=DIRECTION('',(-1.,-0.,0.));
#840=VECTOR('',#839,14.4);
#841=LINE('',#838,#840);
#842=EDGE_CURVE('',#837,#827,#841,.T.);
#843=ORIENTED_EDGE('',*,*,#842,.F.);
#844=CARTESIAN_POINT('',(233.364538664,3.,10.973833691));
#845=VERTEX_POINT('',#844);
#846=CARTESIAN_POINT('',(233.364538664,3.,10.973833691));
#847=DIRECTION('',(0.,0.,-1.));
#848=VECTOR('',#847,4.5);
#849=LINE('',#846,#848);
#850=EDGE_CURVE('',#845,#837,#849,.T.);
#851=ORIENTED_EDGE('',*,*,#850,.F.);
#852=CARTESIAN_POINT('',(218.964538664,3.,10.973833691));
#853=DIRECTION('',(1.,0.,0.));
#854=VECTOR('',#853,14.4);
#855=LINE('',#852,#854);
#856=EDGE_CURVE('',#829,#845,#855,.T.);
#857=ORIENTED_EDGE('',*,*,#856,.F.);
#858=EDGE_LOOP('',(#835,#843,#851,#857));
#859=FACE_BOUND('',#858,.T.);
#860=ADVANCED_FACE('',(#655,#689,#723,#757,#791,#825,#859),#621,.F.);
#861=CARTESIAN_POINT('',(150.,30.,20.));
#862=DIRECTION('',(0.,-1.,0.));
#863=DIRECTION('',(1.,0.,0.));
#864=AXIS2_PLACEMENT_3D('',#861,#862,#863);
#865=PLANE('',#864);
#866=CARTESIAN_POINT('',(35.8,30.,-3.));
#867=VERTEX_POINT('',#866);
#868=CARTESIAN_POINT('',(35.8,30.,14.));
#869=VERTEX_POINT('',#868);
#870=CARTESIAN_POINT('',(35.8,30.,-3.));
#871=DIRECTION('',(0.,0.,1.));
#872=VECTOR('',#871,17.);
#873=LINE('',#870,#872);
#874=EDGE_CURVE('',#867,#869,#873,.T.);
#875=ORIENTED_EDGE('',*,*,#874,.T.);
#876=CARTESIAN_POINT('',(6.,30.,14.));
#877=VERTEX_POINT('',#876);
#878=CARTESIAN_POINT('',(35.8,30.,14.));
#879=DIRECTION('',(-1.,-0.,0.));
#880=VECTOR('',#879,29.8);
#881=LINE('',#878,#880);
#882=EDGE_CURVE('',#869,#877,#881,.T.);
#883=ORIENTED_EDGE('',*,*,#882,.T.);
#884=CARTESIAN_POINT('',(6.,30.,-3.));
#885=VERTEX_POINT('',#884);
#886=CARTESIAN_POINT('',(6.,30.,14.));
#887=DIRECTION('',(0.,0.,-1.));
#888=VECTOR('',#887,17.);
#889=LINE('',#886,#888);
#890=EDGE_CURVE('',#877,#885,#889,.T.);
#891=ORIENTED_EDGE('',*,*,#890,.T.);
#892=CARTESIAN_POINT('',(6.,30.,-3.));
#893=DIRECTION('',(1.,0.,0.));
#894=VECTOR('',#893,29.8);
#895=LINE('',#892,#894);
#896=EDGE_CURVE('',#885,#867,#895,.T.);
#897=ORIENTED_EDGE('',*,*,#896,.T.);
#898=EDGE_LOOP('',(#875,#883,#891,#897));
#899=FACE_BOUND('',#898,.T.);
#900=CARTESIAN_POINT('',(300.,30.,-5.));
#901=VERTEX_POINT('',#900);
#902=CARTESIAN_POINT('',(-0.,30.,-5.));
#903=VERTEX_POINT('',#902);
#904=CARTESIAN_POINT('',(300.,30.,-5.));
#905=DIRECTION('',(-1.,-0.,0.));
#906=VECTOR('',#905,300.);
#907=LINE('',#904,#906);
#908=EDGE_CURVE('',#901,#903,#907,.T.);
#909=ORIENTED_EDGE('',*,*,#908,.T.);
#910=CARTESIAN_POINT('',(-0.,30.,20.));
#911=VERTEX_POINT('',#910);
#912=CARTESIAN_POINT('',(-0.,30.,20.));
#913=DIRECTION('',(0.,0.,-1.));
#914=VECTOR('',#913,25.);
#915=LINE('',#912,#914);
#916=EDGE_CURVE('',#911,#903,#915,.T.);
#917=ORIENTED_EDGE('',*,*,#916,.F.);
#918=CARTESIAN_POINT('',(300.,30.,20.));
#919=VERTEX_POINT('',#918);
#920=CARTESIAN_POINT('',(300.,30.,20.));
#921=DIRECTION('',(-1.,-0.,0.));
#922=VECTOR('',#921,300.);
#923=LINE('',#920,#922);
#924=EDGE_CURVE('',#919,#911,#923,.T.);
#925=ORIENTED_EDGE('',*,*,#924,.F.);
#926=CARTESIAN_POINT('',(300.,30.,20.));
#927=DIRECTION('',(0.,0.,-1.));
#928=VECTOR('',#927,25.);
#929=LINE('',#926,#928);
#930=EDGE_CURVE('',#919,#901,#929,.T.);
#931=ORIENTED_EDGE('',*,*,#930,.T.);
#932=EDGE_LOOP('',(#909,#917,#925,#931));
#933=FACE_BOUND('',#932,.T.);
#934=CARTESIAN_POINT('',(177.4,30.,6.));
#935=VERTEX_POINT('',#934);
#936=CARTESIAN_POINT('',(177.4,30.,12.));
#937=VERTEX_POINT('',#936);
#938=CARTESIAN_POINT('',(177.4,30.,6.));
#939=DIRECTION('',(0.,0.,1.));
#940=VECTOR('',#939,6.);
#941=LINE('',#938,#940);
#942=EDGE_CURVE('',#935,#937,#941,.T.);
#943=ORIENTED_EDGE('',*,*,#942,.T.);
#944=CARTESIAN_POINT('',(165.3,30.,12.));
#945=VERTEX_POINT('',#944);
#946=CARTESIAN_POINT('',(177.4,30.,12.));
#947=DIRECTION('',(-1.,-0.,0.));
#948=VECTOR('',#947,12.1);
#949=LINE('',#946,#948);
#950=EDGE_CURVE('',#937,#945,#949,.T.);
#951=ORIENTED_EDGE('',*,*,#950,.T.);
#952=CARTESIAN_POINT('',(165.3,30.,6.));
#953=VERTEX_POINT('',#952);
#954=CARTESIAN_POINT('',(165.3,30.,12.));
#955=DIRECTION('',(0.,0.,-1.));
#956=VECTOR('',#955,6.);
#957=LINE('',#954,#956);
#958=EDGE_CURVE('',#945,#953,#957,.T.);
#959=ORIENTED_EDGE('',*,*,#958,.T.);
#960=CARTESIAN_POINT('',(165.3,30.,6.));
#961=DIRECTION('',(1.,0.,0.));
#962=VECTOR('',#961,12.1);
#963=LINE('',#960,#962);
#964=EDGE_CURVE('',#953,#935,#963,.T.);
#965=ORIENTED_EDGE('',*,*,#964,.T.);
#966=EDGE_LOOP('',(#943,#951,#959,#965));
#967=FACE_BOUND('',#966,.T.);
#968=ADVANCED_FACE('',(#899,#933,#967),#865,.F.);
#969=CARTESIAN_POINT('',(150.,27.,14.));
#970=DIRECTION('',(-0.,1.,0.));
#971=DIRECTION('',(-1.,-0.,0.));
#972=AXIS2_PLACEMENT_3D('',#969,#970,#971);
#973=PLANE('',#972);
#974=CARTESIAN_POINT('',(35.8,27.,-3.));
#975=VERTEX_POINT('',#974);
#976=CARTESIAN_POINT('',(35.8,27.,14.));
#977=VERTEX_POINT('',#976);
#978=CARTESIAN_POINT('',(35.8,27.,-3.));
#979=DIRECTION('',(0.,0.,1.));
#980=VECTOR('',#979,17.);
#981=LINE('',#978,#980);
#982=EDGE_CURVE('',#975,#977,#981,.T.);
#983=ORIENTED_EDGE('',*,*,#982,.F.);
#984=CARTESIAN_POINT('',(6.,27.,-3.));
#985=VERTEX_POINT('',#984);
#986=CARTESIAN_POINT('',(6.,27.,-3.));
#987=DIRECTION('',(1.,0.,0.));
#988=VECTOR('',#987,29.8);
#989=LINE('',#986,#988);
#990=EDGE_CURVE('',#985,#975,#989,.T.);
#991=ORIENTED_EDGE('',*,*,#990,.F.);
#992=CARTESIAN_POINT('',(6.,27.,14.));
#993=VERTEX_POINT('',#992);
#994=CARTESIAN_POINT('',(6.,27.,14.));
#995=DIRECTION('',(0.,0.,-1.));
#996=VECTOR('',#995,17.);
#997=LINE('',#994,#996);
#998=EDGE_CURVE('',#993,#985,#997,.T.);
#999=ORIENTED_EDGE('',*,*,#998,.F.);
#1000=CARTESIAN_POINT('',(5.,27.,14.));
#1001=VERTEX_POINT('',#1000);
#1002=CARTESIAN_POINT('',(5.,27.,14.));
#1003=DIRECTION('',(1.,0.,0.));
#1004=VECTOR('',#1003,1.);
#1005=LINE('',#1002,#1004);
#1006=EDGE_CURVE('',#1001,#993,#1005,.T.);
#1007=ORIENTED_EDGE('',*,*,#1006,.F.);
#1008=CARTESIAN_POINT('',(5.,27.,-5.));
#1009=VERTEX_POINT('',#1008);
#1010=CARTESIAN_POINT('',(5.,27.,14.));
#1011=DIRECTION('',(0.,0.,-1.));
#1012=VECTOR('',#1011,19.);
#1013=LINE('',#1010,#1012);
#1014=EDGE_CURVE('',#1001,#1009,#1013,.T.);
#1015=ORIENTED_EDGE('',*,*,#1014,.T.);
#1016=CARTESIAN_POINT('',(295.,27.,-5.));
#1017=VERTEX_POINT('',#1016);
#1018=CARTESIAN_POINT('',(5.,27.,-5.));
#1019=DIRECTION('',(1.,0.,0.));
#1020=VECTOR('',#1019,290.);
#1021=LINE('',#1018,#1020);
#1022=EDGE_CURVE('',#1009,#1017,#1021,.T.);
#1023=ORIENTED_EDGE('',*,*,#1022,.T.);
#1024=CARTESIAN_POINT('',(295.,27.,14.));
#1025=VERTEX_POINT('',#1024);
#1026=CARTESIAN_POINT('',(295.,27.,14.));
#1027=DIRECTION('',(0.,0.,-1.));
#1028=VECTOR('',#1027,19.);
#1029=LINE('',#1026,#1028);
#1030=EDGE_CURVE('',#1025,#1017,#1029,.T.);
#1031=ORIENTED_EDGE('',*,*,#1030,.F.);
#1032=CARTESIAN_POINT('',(35.8,27.,14.));
#1033=DIRECTION('',(1.,0.,0.));
#1034=VECTOR('',#1033,259.2);
#1035=LINE('',#1032,#1034);
#1036=EDGE_CURVE('',#977,#1025,#1035,.T.);
#1037=ORIENTED_EDGE('',*,*,#1036,.F.);
#1038=EDGE_LOOP('',(#983,#991,#999,#1007,#1015,#1023,#1031,#1037));
#1039=FACE_BOUND('',#1038,.T.);
#1040=CARTESIAN_POINT('',(177.4,27.,6.));
#1041=VERTEX_POINT('',#1040);
#1042=CARTESIAN_POINT('',(177.4,27.,12.));
#1043=VERTEX_POINT('',#1042);
#1044=CARTESIAN_POINT('',(177.4,27.,6.));
#1045=DIRECTION('',(0.,0.,1.));
#1046=VECTOR('',#1045,6.);
#1047=LINE('',#1044,#1046);
#1048=EDGE_CURVE('',#1041,#1043,#1047,.T.);
#1049=ORIENTED_EDGE('',*,*,#1048,.F.);
#1050=CARTESIAN_POINT('',(165.3,27.,6.));
#1051=VERTEX_POINT('',#1050);
#1052=CARTESIAN_POINT('',(165.3,27.,6.));
#1053=DIRECTION('',(1.,0.,0.));
#1054=VECTOR('',#1053,12.1);
#1055=LINE('',#1052,#1054);
#1056=EDGE_CURVE('',#1051,#1041,#1055,.T.);
#1057=ORIENTED_EDGE('',*,*,#1056,.F.);
#1058=CARTESIAN_POINT('',(165.3,27.,12.));
#1059=VERTEX_POINT('',#1058);
#1060=CARTESIAN_POINT('',(165.3,27.,12.));
#1061=DIRECTION('',(0.,0.,-1.));
#1062=VECTOR('',#1061,6.);
#1063=LINE('',#1060,#1062);
#1064=EDGE_CURVE('',#1059,#1051,#1063,.T.);
#1065=ORIENTED_EDGE('',*,*,#1064,.F.);
#1066=CARTESIAN_POINT('',(177.4,27.,12.));
#1067=DIRECTION('',(-1.,-0.,0.));
#1068=VECTOR('',#1067,12.1);
#1069=LINE('',#1066,#1068);
#1070=EDGE_CURVE('',#1043,#1059,#1069,.T.);
#1071=ORIENTED_EDGE('',*,*,#1070,.F.);
#1072=EDGE_LOOP('',(#1049,#1057,#1065,#1071));
#1073=FACE_BOUND('',#1072,.T.);
#1074=ADVANCED_FACE('',(#1039,#1073),#973,.F.);
#1075=CARTESIAN_POINT('',(300.,15.,20.));
#1076=DIRECTION('',(-1.,0.,0.));
#1077=DIRECTION('',(0.,0.,1.));
#1078=AXIS2_PLACEMENT_3D('',#1075,#1076,#1077);
#1079=PLANE('',#1078);
#1080=CARTESIAN_POINT('',(300.,0.,-5.));
#1081=DIRECTION('',(0.,1.,0.));
#1082=VECTOR('',#1081,30.);
#1083=LINE('',#1080,#1082);
#1084=EDGE_CURVE('',#483,#901,#1083,.T.);
#1085=ORIENTED_EDGE('',*,*,#1084,.T.);
#1086=ORIENTED_EDGE('',*,*,#930,.F.);
#1087=CARTESIAN_POINT('',(300.,0.,20.));
#1088=DIRECTION('',(0.,1.,0.));
#1089=VECTOR('',#1088,30.);
#1090=LINE('',#1087,#1089);
#1091=EDGE_CURVE('',#491,#919,#1090,.T.);
#1092=ORIENTED_EDGE('',*,*,#1091,.F.);
#1093=ORIENTED_EDGE('',*,*,#496,.T.);
#1094=EDGE_LOOP('',(#1085,#1086,#1092,#1093));
#1095=FACE_BOUND('',#1094,.T.);
#1096=ADVANCED_FACE('',(#1095),#1079,.F.);
#1097=CARTESIAN_POINT('',(-0.,15.,20.));
#1098=DIRECTION('',(1.,0.,0.));
#1099=DIRECTION('',(-0.,1.,0.));
#1100=AXIS2_PLACEMENT_3D('',#1097,#1098,#1099);
#1101=PLANE('',#1100);
#1102=CARTESIAN_POINT('',(-0.,30.,-5.));
#1103=DIRECTION('',(0.,-1.,0.));
#1104=VECTOR('',#1103,30.);
#1105=LINE('',#1102,#1104);
#1106=EDGE_CURVE('',#903,#481,#1105,.T.);
#1107=ORIENTED_EDGE('',*,*,#1106,.T.);
#1108=ORIENTED_EDGE('',*,*,#510,.F.);
#1109=CARTESIAN_POINT('',(-0.,30.,20.));
#1110=DIRECTION('',(0.,-1.,0.));
#1111=VECTOR('',#1110,30.);
#1112=LINE('',#1109,#1111);
#1113=EDGE_CURVE('',#911,#499,#1112,.T.);
#1114=ORIENTED_EDGE('',*,*,#1113,.F.);
#1115=ORIENTED_EDGE('',*,*,#916,.T.);
#1116=EDGE_LOOP('',(#1107,#1108,#1114,#1115));
#1117=FACE_BOUND('',#1116,.T.);
#1118=ADVANCED_FACE('',(#1117),#1101,.F.);
#1119=CARTESIAN_POINT('',(0.,0.,20.));
#1120=DIRECTION('',(0.,0.,1.));
#1121=DIRECTION('',(1.,0.,0.));
#1122=AXIS2_PLACEMENT_3D('',#1119,#1120,#1121);
#1123=PLANE('',#1122);
#1124=ORIENTED_EDGE('',*,*,#504,.T.);
#1125=ORIENTED_EDGE('',*,*,#1091,.T.);
#1126=ORIENTED_EDGE('',*,*,#924,.T.);
#1127=ORIENTED_EDGE('',*,*,#1113,.T.);
#1128=EDGE_LOOP('',(#1124,#1125,#1126,#1127));
#1129=FACE_BOUND('',#1128,.T.);
#1130=ADVANCED_FACE('',(#1129),#1123,.T.);
#1131=CARTESIAN_POINT('',(0.,0.,-5.));
#1132=DIRECTION('',(0.,0.,1.));
#1133=DIRECTION('',(1.,0.,0.));
#1134=AXIS2_PLACEMENT_3D('',#1131,#1132,#1133);
#1135=PLANE('',#1134);
#1136=CARTESIAN_POINT('',(1.,15.,-5.));
#1137=VERTEX_POINT('',#1136);
#1138=CARTESIAN_POINT('',(2.5,15.,-5.));
#1139=DIRECTION('',(0.,0.,-1.));
#1140=DIRECTION('',(-1.,0.,0.));
#1141=AXIS2_PLACEMENT_3D('',#1138,#1139,#1140);
#1142=CIRCLE('',#1141,1.5);
#1143=EDGE_CURVE('',#1137,#1137,#1142,.T.);
#1144=ORIENTED_EDGE('',*,*,#1143,.F.);
#1145=EDGE_LOOP('',(#1144));
#1146=FACE_BOUND('',#1145,.T.);
#1147=CARTESIAN_POINT('',(296.210627317,14.804133214,-5.));
#1148=VERTEX_POINT('',#1147);
#1149=CARTESIAN_POINT('',(297.710627317,14.804133214,-5.));
#1150=DIRECTION('',(0.,0.,-1.));
#1151=DIRECTION('',(-1.,0.,0.));
#1152=AXIS2_PLACEMENT_3D('',#1149,#1150,#1151);
#1153=CIRCLE('',#1152,1.5);
#1154=EDGE_CURVE('',#1148,#1148,#1153,.T.);
#1155=ORIENTED_EDGE('',*,*,#1154,.F.);
#1156=EDGE_LOOP('',(#1155));
#1157=FACE_BOUND('',#1156,.T.);
#1158=ORIENTED_EDGE('',*,*,#732,.F.);
#1159=CARTESIAN_POINT('',(295.,27.,-5.));
#1160=DIRECTION('',(0.,-1.,0.));
#1161=VECTOR('',#1160,24.);
#1162=LINE('',#1159,#1161);
#1163=EDGE_CURVE('',#1017,#725,#1162,.T.);
#1164=ORIENTED_EDGE('',*,*,#1163,.F.);
#1165=ORIENTED_EDGE('',*,*,#1022,.F.);
#1166=CARTESIAN_POINT('',(5.,3.,-5.));
#1167=DIRECTION('',(0.,1.,0.));
#1168=VECTOR('',#1167,24.);
#1169=LINE('',#1166,#1168);
#1170=EDGE_CURVE('',#727,#1009,#1169,.T.);
#1171=ORIENTED_EDGE('',*,*,#1170,.F.);
#1172=EDGE_LOOP('',(#1158,#1164,#1165,#1171));
#1173=FACE_BOUND('',#1172,.T.);
#1174=ORIENTED_EDGE('',*,*,#488,.F.);
#1175=ORIENTED_EDGE('',*,*,#1106,.F.);
#1176=ORIENTED_EDGE('',*,*,#908,.F.);
#1177=ORIENTED_EDGE('',*,*,#1084,.F.);
#1178=EDGE_LOOP('',(#1174,#1175,#1176,#1177));
#1179=FACE_BOUND('',#1178,.T.);
#1180=ADVANCED_FACE('',(#1146,#1157,#1173,#1179),#1135,.F.);
#1181=CARTESIAN_POINT('',(295.,15.,14.));
#1182=DIRECTION('',(1.,0.,0.));
#1183=DIRECTION('',(0.,0.,-1.));
#1184=AXIS2_PLACEMENT_3D('',#1181,#1182,#1183);
#1185=PLANE('',#1184);
#1186=ORIENTED_EDGE('',*,*,#1163,.T.);
#1187=ORIENTED_EDGE('',*,*,#754,.F.);
#1188=CARTESIAN_POINT('',(295.,27.,14.));
#1189=DIRECTION('',(0.,-1.,0.));
#1190=VECTOR('',#1189,24.);
#1191=LINE('',#1188,#1190);
#1192=EDGE_CURVE('',#1025,#743,#1191,.T.);
#1193=ORIENTED_EDGE('',*,*,#1192,.F.);
#1194=ORIENTED_EDGE('',*,*,#1030,.T.);
#1195=EDGE_LOOP('',(#1186,#1187,#1193,#1194));
#1196=FACE_BOUND('',#1195,.T.);
#1197=ADVANCED_FACE('',(#1196),#1185,.F.);
#1198=CARTESIAN_POINT('',(5.,15.,14.));
#1199=DIRECTION('',(-1.,0.,0.));
#1200=DIRECTION('',(0.,0.,1.));
#1201=AXIS2_PLACEMENT_3D('',#1198,#1199,#1200);
#1202=PLANE('',#1201);
#1203=ORIENTED_EDGE('',*,*,#1170,.T.);
#1204=ORIENTED_EDGE('',*,*,#1014,.F.);
#1205=CARTESIAN_POINT('',(5.,3.,14.));
#1206=DIRECTION('',(0.,1.,0.));
#1207=VECTOR('',#1206,24.);
#1208=LINE('',#1205,#1207);
#1209=EDGE_CURVE('',#735,#1001,#1208,.T.);
#1210=ORIENTED_EDGE('',*,*,#1209,.F.);
#1211=ORIENTED_EDGE('',*,*,#740,.T.);
#1212=EDGE_LOOP('',(#1203,#1204,#1210,#1211));
#1213=FACE_BOUND('',#1212,.T.);
#1214=ADVANCED_FACE('',(#1213),#1202,.F.);
#1215=CARTESIAN_POINT('',(0.,0.,14.));
#1216=DIRECTION('',(0.,0.,1.));
#1217=DIRECTION('',(1.,0.,0.));
#1218=AXIS2_PLACEMENT_3D('',#1215,#1216,#1217);
#1219=PLANE('',#1218);
#1220=ORIENTED_EDGE('',*,*,#1006,.T.);
#1221=CARTESIAN_POINT('',(6.,27.,14.));
#1222=DIRECTION('',(-0.,1.,0.));
#1223=VECTOR('',#1222,3.);
#1224=LINE('',#1221,#1223);
#1225=EDGE_CURVE('',#993,#877,#1224,.T.);
#1226=ORIENTED_EDGE('',*,*,#1225,.T.);
#1227=ORIENTED_EDGE('',*,*,#882,.F.);
#1228=CARTESIAN_POINT('',(35.8,27.,14.));
#1229=DIRECTION('',(-0.,1.,0.));
#1230=VECTOR('',#1229,3.);
#1231=LINE('',#1228,#1230);
#1232=EDGE_CURVE('',#977,#869,#1231,.T.);
#1233=ORIENTED_EDGE('',*,*,#1232,.F.);
#1234=ORIENTED_EDGE('',*,*,#1036,.T.);
#1235=ORIENTED_EDGE('',*,*,#1192,.T.);
#1236=ORIENTED_EDGE('',*,*,#748,.T.);
#1237=ORIENTED_EDGE('',*,*,#1209,.T.);
#1238=EDGE_LOOP('',(#1220,#1226,#1227,#1233,#1234,#1235,#1236,#1237));
#1239=FACE_BOUND('',#1238,.T.);
#1240=CARTESIAN_POINT('',(44.,15.,14.));
#1241=VERTEX_POINT('',#1240);
#1242=CARTESIAN_POINT('',(41.9,15.,14.));
#1243=DIRECTION('',(-0.,-0.,-1.));
#1244=DIRECTION('',(1.,0.,-0.));
#1245=AXIS2_PLACEMENT_3D('',#1242,#1243,#1244);
#1246=CIRCLE('',#1245,2.1);
#1247=EDGE_CURVE('',#1241,#1241,#1246,.T.);
#1248=ORIENTED_EDGE('',*,*,#1247,.F.);
#1249=EDGE_LOOP('',(#1248));
#1250=FACE_BOUND('',#1249,.T.);
#1251=CARTESIAN_POINT('',(121.3,16.5,14.));
#1252=VERTEX_POINT('',#1251);
#1253=CARTESIAN_POINT('',(119.2,16.5,14.));
#1254=DIRECTION('',(-0.,-0.,-1.));
#1255=DIRECTION('',(1.,0.,-0.));
#1256=AXIS2_PLACEMENT_3D('',#1253,#1254,#1255);
#1257=CIRCLE('',#1256,2.1);
#1258=EDGE_CURVE('',#1252,#1252,#1257,.T.);
#1259=ORIENTED_EDGE('',*,*,#1258,.F.);
#1260=EDGE_LOOP('',(#1259));
#1261=FACE_BOUND('',#1260,.T.);
#1262=CARTESIAN_POINT('',(291.8,21.1,14.));
#1263=VERTEX_POINT('',#1262);
#1264=CARTESIAN_POINT('',(289.7,21.1,14.));
#1265=DIRECTION('',(-0.,-0.,-1.));
#1266=DIRECTION('',(1.,0.,-0.));
#1267=AXIS2_PLACEMENT_3D('',#1264,#1265,#1266);
#1268=CIRCLE('',#1267,2.1);
#1269=EDGE_CURVE('',#1263,#1263,#1268,.T.);
#1270=ORIENTED_EDGE('',*,*,#1269,.F.);
#1271=EDGE_LOOP('',(#1270));
#1272=FACE_BOUND('',#1271,.T.);
#1273=ADVANCED_FACE('',(#1239,#1250,#1261,#1272),#1219,.F.);
#1274=CARTESIAN_POINT('',(41.9,15.,12.));
#1275=DIRECTION('',(0.,0.,1.));
#1276=DIRECTION('',(1.,0.,-0.));
#1277=AXIS2_PLACEMENT_3D('',#1274,#1275,#1276);
#1278=CYLINDRICAL_SURFACE('',#1277,1.5);
#1279=CARTESIAN_POINT('',(43.4,15.,14.6));
#1280=VERTEX_POINT('',#1279);
#1281=CARTESIAN_POINT('',(43.4,15.,12.));
#1282=VERTEX_POINT('',#1281);
#1283=CARTESIAN_POINT('',(43.4,15.,14.6));
#1284=DIRECTION('',(-0.,-0.,-1.));
#1285=VECTOR('',#1284,2.6);
#1286=LINE('',#1283,#1285);
#1287=EDGE_CURVE('',#1280,#1282,#1286,.T.);
#1288=ORIENTED_EDGE('',*,*,#1287,.F.);
#1289=CARTESIAN_POINT('',(41.9,15.,14.6));
#1290=DIRECTION('',(0.,0.,-1.));
#1291=DIRECTION('',(1.,0.,0.));
#1292=AXIS2_PLACEMENT_3D('',#1289,#1290,#1291);
#1293=CIRCLE('',#1292,1.5);
#1294=EDGE_CURVE('',#1280,#1280,#1293,.T.);
#1295=ORIENTED_EDGE('',*,*,#1294,.F.);
#1296=ORIENTED_EDGE('',*,*,#1287,.T.);
#1297=CARTESIAN_POINT('',(41.9,15.,12.));
#1298=DIRECTION('',(0.,0.,-1.));
#1299=DIRECTION('',(1.,0.,0.));
#1300=AXIS2_PLACEMENT_3D('',#1297,#1298,#1299);
#1301=CIRCLE('',#1300,1.5);
#1302=EDGE_CURVE('',#1282,#1282,#1301,.T.);
#1303=ORIENTED_EDGE('',*,*,#1302,.T.);
#1304=EDGE_LOOP('',(#1288,#1295,#1296,#1303));
#1305=FACE_BOUND('',#1304,.T.);
#1306=ADVANCED_FACE('',(#1305),#1278,.F.);
#1307=CARTESIAN_POINT('',(41.9,15.,12.));
#1308=DIRECTION('',(0.,0.,1.));
#1309=DIRECTION('',(1.,0.,-0.));
#1310=AXIS2_PLACEMENT_3D('',#1307,#1308,#1309);
#1311=CYLINDRICAL_SURFACE('',#1310,2.1);
#1312=CARTESIAN_POINT('',(44.,15.,12.));
#1313=VERTEX_POINT('',#1312);
#1314=CARTESIAN_POINT('',(44.,15.,14.));
#1315=DIRECTION('',(-0.,-0.,-1.));
#1316=VECTOR('',#1315,2.);
#1317=LINE('',#1314,#1316);
#1318=EDGE_CURVE('',#1241,#1313,#1317,.T.);
#1319=ORIENTED_EDGE('',*,*,#1318,.T.);
#1320=CARTESIAN_POINT('',(41.9,15.,12.));
#1321=DIRECTION('',(0.,0.,-1.));
#1322=DIRECTION('',(1.,0.,0.));
#1323=AXIS2_PLACEMENT_3D('',#1320,#1321,#1322);
#1324=CIRCLE('',#1323,2.1);
#1325=EDGE_CURVE('',#1313,#1313,#1324,.T.);
#1326=ORIENTED_EDGE('',*,*,#1325,.F.);
#1327=ORIENTED_EDGE('',*,*,#1318,.F.);
#1328=ORIENTED_EDGE('',*,*,#1247,.T.);
#1329=EDGE_LOOP('',(#1319,#1326,#1327,#1328));
#1330=FACE_BOUND('',#1329,.T.);
#1331=ADVANCED_FACE('',(#1330),#1311,.T.);
#1332=CARTESIAN_POINT('',(0.,0.,12.));
#1333=DIRECTION('',(0.,0.,-1.));
#1334=DIRECTION('',(1.,0.,0.));
#1335=AXIS2_PLACEMENT_3D('',#1332,#1333,#1334);
#1336=PLANE('',#1335);
#1337=ORIENTED_EDGE('',*,*,#1302,.F.);
#1338=EDGE_LOOP('',(#1337));
#1339=FACE_BOUND('',#1338,.T.);
#1340=ORIENTED_EDGE('',*,*,#1325,.T.);
#1341=EDGE_LOOP('',(#1340));
#1342=FACE_BOUND('',#1341,.T.);
#1343=ADVANCED_FACE('',(#1339,#1342),#1336,.T.);
#1344=CARTESIAN_POINT('',(0.,0.,14.6));
#1345=DIRECTION('',(0.,0.,-1.));
#1346=DIRECTION('',(1.,0.,0.));
#1347=AXIS2_PLACEMENT_3D('',#1344,#1345,#1346);
#1348=PLANE('',#1347);
#1349=ORIENTED_EDGE('',*,*,#1294,.T.);
#1350=EDGE_LOOP('',(#1349));
#1351=FACE_BOUND('',#1350,.T.);
#1352=ADVANCED_FACE('',(#1351),#1348,.T.);
#1353=CARTESIAN_POINT('',(119.2,16.5,12.));
#1354=DIRECTION('',(0.,0.,1.));
#1355=DIRECTION('',(1.,0.,-0.));
#1356=AXIS2_PLACEMENT_3D('',#1353,#1354,#1355);
#1357=CYLINDRICAL_SURFACE('',#1356,1.5);
#1358=CARTESIAN_POINT('',(120.7,16.5,14.5));
#1359=VERTEX_POINT('',#1358);
#1360=CARTESIAN_POINT('',(120.7,16.5,12.));
#1361=VERTEX_POINT('',#1360);
#1362=CARTESIAN_POINT('',(120.7,16.5,14.5));
#1363=DIRECTION('',(-0.,-0.,-1.));
#1364=VECTOR('',#1363,2.5);
#1365=LINE('',#1362,#1364);
#1366=EDGE_CURVE('',#1359,#1361,#1365,.T.);
#1367=ORIENTED_EDGE('',*,*,#1366,.F.);
#1368=CARTESIAN_POINT('',(119.2,16.5,14.5));
#1369=DIRECTION('',(0.,0.,-1.));
#1370=DIRECTION('',(1.,0.,0.));
#1371=AXIS2_PLACEMENT_3D('',#1368,#1369,#1370);
#1372=CIRCLE('',#1371,1.5);
#1373=EDGE_CURVE('',#1359,#1359,#1372,.T.);
#1374=ORIENTED_EDGE('',*,*,#1373,.F.);
#1375=ORIENTED_EDGE('',*,*,#1366,.T.);
#1376=CARTESIAN_POINT('',(119.2,16.5,12.));
#1377=DIRECTION('',(0.,0.,-1.));
#1378=DIRECTION('',(1.,0.,0.));
#1379=AXIS2_PLACEMENT_3D('',#1376,#1377,#1378);
#1380=CIRCLE('',#1379,1.5);
#1381=EDGE_CURVE('',#1361,#1361,#1380,.T.);
#1382=ORIENTED_EDGE('',*,*,#1381,.T.);
#1383=EDGE_LOOP('',(#1367,#1374,#1375,#1382));
#1384=FACE_BOUND('',#1383,.T.);
#1385=ADVANCED_FACE('',(#1384),#1357,.F.);
#1386=CARTESIAN_POINT('',(119.2,16.5,12.));
#1387=DIRECTION('',(0.,0.,1.));
#1388=DIRECTION('',(1.,0.,-0.));
#1389=AXIS2_PLACEMENT_3D('',#1386,#1387,#1388);
#1390=CYLINDRICAL_SURFACE('',#1389,2.1);
#1391=CARTESIAN_POINT('',(121.3,16.5,12.));
#1392=VERTEX_POINT('',#1391);
#1393=CARTESIAN_POINT('',(121.3,16.5,14.));
#1394=DIRECTION('',(-0.,-0.,-1.));
#1395=VECTOR('',#1394,2.);
#1396=LINE('',#1393,#1395);
#1397=EDGE_CURVE('',#1252,#1392,#1396,.T.);
#1398=ORIENTED_EDGE('',*,*,#1397,.T.);
#1399=CARTESIAN_POINT('',(119.2,16.5,12.));
#1400=DIRECTION('',(0.,0.,-1.));
#1401=DIRECTION('',(1.,0.,0.));
#1402=AXIS2_PLACEMENT_3D('',#1399,#1400,#1401);
#1403=CIRCLE('',#1402,2.1);
#1404=EDGE_CURVE('',#1392,#1392,#1403,.T.);
#1405=ORIENTED_EDGE('',*,*,#1404,.F.);
#1406=ORIENTED_EDGE('',*,*,#1397,.F.);
#1407=ORIENTED_EDGE('',*,*,#1258,.T.);
#1408=EDGE_LOOP('',(#1398,#1405,#1406,#1407));
#1409=FACE_BOUND('',#1408,.T.);
#1410=ADVANCED_FACE('',(#1409),#1390,.T.);
#1411=CARTESIAN_POINT('',(0.,0.,12.));
#1412=DIRECTION('',(0.,0.,-1.));
#1413=DIRECTION('',(1.,0.,0.));
#1414=AXIS2_PLACEMENT_3D('',#1411,#1412,#1413);
#1415=PLANE('',#1414);
#1416=ORIENTED_EDGE('',*,*,#1381,.F.);
#1417=EDGE_LOOP('',(#1416));
#1418=FACE_BOUND('',#1417,.T.);
#1419=ORIENTED_EDGE('',*,*,#1404,.T.);
#1420=EDGE_LOOP('',(#1419));
#1421=FACE_BOUND('',#1420,.T.);
#1422=ADVANCED_FACE('',(#1418,#1421),#1415,.T.);
#1423=CARTESIAN_POINT('',(0.,0.,14.5));
#1424=DIRECTION('',(0.,0.,-1.));
#1425=DIRECTION('',(1.,0.,0.));
#1426=AXIS2_PLACEMENT_3D('',#1423,#1424,#1425);
#1427=PLANE('',#1426);
#1428=ORIENTED_EDGE('',*,*,#1373,.T.);
#1429=EDGE_LOOP('',(#1428));
#1430=FACE_BOUND('',#1429,.T.);
#1431=ADVANCED_FACE('',(#1430),#1427,.T.);
#1432=CARTESIAN_POINT('',(289.7,21.1,12.));
#1433=DIRECTION('',(0.,0.,1.));
#1434=DIRECTION('',(1.,0.,-0.));
#1435=AXIS2_PLACEMENT_3D('',#1432,#1433,#1434);
#1436=CYLINDRICAL_SURFACE('',#1435,1.5);
#1437=CARTESIAN_POINT('',(291.2,21.1,13.5));
#1438=VERTEX_POINT('',#1437);
#1439=CARTESIAN_POINT('',(291.2,21.1,12.));
#1440=VERTEX_POINT('',#1439);
#1441=CARTESIAN_POINT('',(291.2,21.1,13.5));
#1442=DIRECTION('',(-0.,-0.,-1.));
#1443=VECTOR('',#1442,1.5);
#1444=LINE('',#1441,#1443);
#1445=EDGE_CURVE('',#1438,#1440,#1444,.T.);
#1446=ORIENTED_EDGE('',*,*,#1445,.F.);
#1447=CARTESIAN_POINT('',(288.2,21.1,13.5));
#1448=VERTEX_POINT('',#1447);
#1449=CARTESIAN_POINT('',(289.7,21.1,13.5));
#1450=DIRECTION('',(0.,0.,-1.));
#1451=DIRECTION('',(-1.,0.,0.));
#1452=AXIS2_PLACEMENT_3D('',#1449,#1450,#1451);
#1453=CIRCLE('',#1452,1.5);
#1454=EDGE_CURVE('',#1448,#1438,#1453,.T.);
#1455=ORIENTED_EDGE('',*,*,#1454,.F.);
#1456=CARTESIAN_POINT('',(289.7,21.1,13.5));
#1457=DIRECTION('',(0.,0.,-1.));
#1458=DIRECTION('',(-1.,0.,0.));
#1459=AXIS2_PLACEMENT_3D('',#1456,#1457,#1458);
#1460=CIRCLE('',#1459,1.5);
#1461=EDGE_CURVE('',#1438,#1448,#1460,.T.);
#1462=ORIENTED_EDGE('',*,*,#1461,.F.);
#1463=ORIENTED_EDGE('',*,*,#1445,.T.);
#1464=CARTESIAN_POINT('',(289.7,21.1,12.));
#1465=DIRECTION('',(0.,0.,-1.));
#1466=DIRECTION('',(1.,0.,0.));
#1467=AXIS2_PLACEMENT_3D('',#1464,#1465,#1466);
#1468=CIRCLE('',#1467,1.5);
#1469=EDGE_CURVE('',#1440,#1440,#1468,.T.);
#1470=ORIENTED_EDGE('',*,*,#1469,.T.);
#1471=EDGE_LOOP('',(#1446,#1455,#1462,#1463,#1470));
#1472=FACE_BOUND('',#1471,.T.);
#1473=ADVANCED_FACE('',(#1472),#1436,.F.);
#1474=CARTESIAN_POINT('',(289.7,21.1,12.));
#1475=DIRECTION('',(0.,0.,1.));
#1476=DIRECTION('',(1.,0.,-0.));
#1477=AXIS2_PLACEMENT_3D('',#1474,#1475,#1476);
#1478=CYLINDRICAL_SURFACE('',#1477,2.1);
#1479=CARTESIAN_POINT('',(291.8,21.1,12.));
#1480=VERTEX_POINT('',#1479);
#1481=CARTESIAN_POINT('',(291.8,21.1,14.));
#1482=DIRECTION('',(-0.,-0.,-1.));
#1483=VECTOR('',#1482,2.);
#1484=LINE('',#1481,#1483);
#1485=EDGE_CURVE('',#1263,#1480,#1484,.T.);
#1486=ORIENTED_EDGE('',*,*,#1485,.T.);
#1487=CARTESIAN_POINT('',(289.7,21.1,12.));
#1488=DIRECTION('',(0.,0.,-1.));
#1489=DIRECTION('',(1.,0.,0.));
#1490=AXIS2_PLACEMENT_3D('',#1487,#1488,#1489);
#1491=CIRCLE('',#1490,2.1);
#1492=EDGE_CURVE('',#1480,#1480,#1491,.T.);
#1493=ORIENTED_EDGE('',*,*,#1492,.F.);
#1494=ORIENTED_EDGE('',*,*,#1485,.F.);
#1495=ORIENTED_EDGE('',*,*,#1269,.T.);
#1496=EDGE_LOOP('',(#1486,#1493,#1494,#1495));
#1497=FACE_BOUND('',#1496,.T.);
#1498=ADVANCED_FACE('',(#1497),#1478,.T.);
#1499=CARTESIAN_POINT('',(0.,0.,12.));
#1500=DIRECTION('',(0.,0.,-1.));
#1501=DIRECTION('',(1.,0.,0.));
#1502=AXIS2_PLACEMENT_3D('',#1499,#1500,#1501);
#1503=PLANE('',#1502);
#1504=ORIENTED_EDGE('',*,*,#1469,.F.);
#1505=EDGE_LOOP('',(#1504));
#1506=FACE_BOUND('',#1505,.T.);
#1507=ORIENTED_EDGE('',*,*,#1492,.T.);
#1508=EDGE_LOOP('',(#1507));
#1509=FACE_BOUND('',#1508,.T.);
#1510=ADVANCED_FACE('',(#1506,#1509),#1503,.T.);
#1511=CARTESIAN_POINT('',(0.,0.,13.5));
#1512=DIRECTION('',(0.,0.,-1.));
#1513=DIRECTION('',(1.,0.,0.));
#1514=AXIS2_PLACEMENT_3D('',#1511,#1512,#1513);
#1515=PLANE('',#1514);
#1516=ORIENTED_EDGE('',*,*,#1454,.T.);
#1517=ORIENTED_EDGE('',*,*,#1461,.T.);
#1518=EDGE_LOOP('',(#1516,#1517));
#1519=FACE_BOUND('',#1518,.T.);
#1520=ADVANCED_FACE('',(#1519),#1515,.T.);
#1521=CARTESIAN_POINT('',(35.8,26.4,5.5));
#1522=DIRECTION('',(-1.,-0.,0.));
#1523=DIRECTION('',(0.,-1.,0.));
#1524=AXIS2_PLACEMENT_3D('',#1521,#1522,#1523);
#1525=PLANE('',#1524);
#1526=ORIENTED_EDGE('',*,*,#982,.T.);
#1527=ORIENTED_EDGE('',*,*,#1232,.T.);
#1528=ORIENTED_EDGE('',*,*,#874,.F.);
#1529=CARTESIAN_POINT('',(35.8,27.,-3.));
#1530=DIRECTION('',(-0.,1.,0.));
#1531=VECTOR('',#1530,3.);
#1532=LINE('',#1529,#1531);
#1533=EDGE_CURVE('',#975,#867,#1532,.T.);
#1534=ORIENTED_EDGE('',*,*,#1533,.F.);
#1535=EDGE_LOOP('',(#1526,#1527,#1528,#1534));
#1536=FACE_BOUND('',#1535,.T.);
#1537=ADVANCED_FACE('',(#1536),#1525,.T.);
#1538=CARTESIAN_POINT('',(27.,26.4,-3.));
#1539=DIRECTION('',(0.,0.,1.));
#1540=DIRECTION('',(1.,0.,0.));
#1541=AXIS2_PLACEMENT_3D('',#1538,#1539,#1540);
#1542=PLANE('',#1541);
#1543=ORIENTED_EDGE('',*,*,#990,.T.);
#1544=ORIENTED_EDGE('',*,*,#1533,.T.);
#1545=ORIENTED_EDGE('',*,*,#896,.F.);
#1546=CARTESIAN_POINT('',(6.,27.,-3.));
#1547=DIRECTION('',(-0.,1.,0.));
#1548=VECTOR('',#1547,3.);
#1549=LINE('',#1546,#1548);
#1550=EDGE_CURVE('',#985,#885,#1549,.T.);
#1551=ORIENTED_EDGE('',*,*,#1550,.F.);
#1552=EDGE_LOOP('',(#1543,#1544,#1545,#1551));
#1553=FACE_BOUND('',#1552,.T.);
#1554=ADVANCED_FACE('',(#1553),#1542,.T.);
#1555=CARTESIAN_POINT('',(6.,26.4,5.5));
#1556=DIRECTION('',(1.,0.,0.));
#1557=DIRECTION('',(-0.,1.,0.));
#1558=AXIS2_PLACEMENT_3D('',#1555,#1556,#1557);
#1559=PLANE('',#1558);
#1560=ORIENTED_EDGE('',*,*,#998,.T.);
#1561=ORIENTED_EDGE('',*,*,#1550,.T.);
#1562=ORIENTED_EDGE('',*,*,#890,.F.);
#1563=ORIENTED_EDGE('',*,*,#1225,.F.);
#1564=EDGE_LOOP('',(#1560,#1561,#1562,#1563));
#1565=FACE_BOUND('',#1564,.T.);
#1566=ADVANCED_FACE('',(#1565),#1559,.T.);
#1567=CARTESIAN_POINT('',(177.4,23.5,9.));
#1568=DIRECTION('',(-1.,-0.,0.));
#1569=DIRECTION('',(0.,-1.,0.));
#1570=AXIS2_PLACEMENT_3D('',#1567,#1568,#1569);
#1571=PLANE('',#1570);
#1572=ORIENTED_EDGE('',*,*,#1048,.T.);
#1573=CARTESIAN_POINT('',(177.4,27.,12.));
#1574=DIRECTION('',(-0.,1.,0.));
#1575=VECTOR('',#1574,3.);
#1576=LINE('',#1573,#1575);
#1577=EDGE_CURVE('',#1043,#937,#1576,.T.);
#1578=ORIENTED_EDGE('',*,*,#1577,.T.);
#1579=ORIENTED_EDGE('',*,*,#942,.F.);
#1580=CARTESIAN_POINT('',(177.4,27.,6.));
#1581=DIRECTION('',(-0.,1.,0.));
#1582=VECTOR('',#1581,3.);
#1583=LINE('',#1580,#1582);
#1584=EDGE_CURVE('',#1041,#935,#1583,.T.);
#1585=ORIENTED_EDGE('',*,*,#1584,.F.);
#1586=EDGE_LOOP('',(#1572,#1578,#1579,#1585));
#1587=FACE_BOUND('',#1586,.T.);
#1588=ADVANCED_FACE('',(#1587),#1571,.T.);
#1589=CARTESIAN_POINT('',(164.,23.5,6.));
#1590=DIRECTION('',(0.,0.,1.));
#1591=DIRECTION('',(1.,0.,0.));
#1592=AXIS2_PLACEMENT_3D('',#1589,#1590,#1591);
#1593=PLANE('',#1592);
#1594=ORIENTED_EDGE('',*,*,#1056,.T.);
#1595=ORIENTED_EDGE('',*,*,#1584,.T.);
#1596=ORIENTED_EDGE('',*,*,#964,.F.);
#1597=CARTESIAN_POINT('',(165.3,27.,6.));
#1598=DIRECTION('',(-0.,1.,0.));
#1599=VECTOR('',#1598,3.);
#1600=LINE('',#1597,#1599);
#1601=EDGE_CURVE('',#1051,#953,#1600,.T.);
#1602=ORIENTED_EDGE('',*,*,#1601,.F.);
#1603=EDGE_LOOP('',(#1594,#1595,#1596,#1602));
#1604=FACE_BOUND('',#1603,.T.);
#1605=ADVANCED_FACE('',(#1604),#1593,.T.);
#1606=CARTESIAN_POINT('',(165.3,23.5,9.));
#1607=DIRECTION('',(1.,0.,0.));
#1608=DIRECTION('',(-0.,1.,0.));
#1609=AXIS2_PLACEMENT_3D('',#1606,#1607,#1608);
#1610=PLANE('',#1609);
#1611=ORIENTED_EDGE('',*,*,#1064,.T.);
#1612=ORIENTED_EDGE('',*,*,#1601,.T.);
#1613=ORIENTED_EDGE('',*,*,#958,.F.);
#1614=CARTESIAN_POINT('',(165.3,27.,12.));
#1615=DIRECTION('',(-0.,1.,0.));
#1616=VECTOR('',#1615,3.);
#1617=LINE('',#1614,#1616);
#1618=EDGE_CURVE('',#1059,#945,#1617,.T.);
#1619=ORIENTED_EDGE('',*,*,#1618,.F.);
#1620=EDGE_LOOP('',(#1611,#1612,#1613,#1619));
#1621=FACE_BOUND('',#1620,.T.);
#1622=ADVANCED_FACE('',(#1621),#1610,.T.);
#1623=CARTESIAN_POINT('',(164.,23.5,12.));
#1624=DIRECTION('',(0.,0.,-1.));
#1625=DIRECTION('',(-1.,0.,0.));
#1626=AXIS2_PLACEMENT_3D('',#1623,#1624,#1625);
#1627=PLANE('',#1626);
#1628=ORIENTED_EDGE('',*,*,#1070,.T.);
#1629=ORIENTED_EDGE('',*,*,#1618,.T.);
#1630=ORIENTED_EDGE('',*,*,#950,.F.);
#1631=ORIENTED_EDGE('',*,*,#1577,.F.);
#1632=EDGE_LOOP('',(#1628,#1629,#1630,#1631));
#1633=FACE_BOUND('',#1632,.T.);
#1634=ADVANCED_FACE('',(#1633),#1627,.T.);
#1635=CARTESIAN_POINT('',(18.964538664,4.,8.723833691));
#1636=DIRECTION('',(1.,0.,0.));
#1637=DIRECTION('',(-0.,1.,0.));
#1638=AXIS2_PLACEMENT_3D('',#1635,#1636,#1637);
#1639=PLANE('',#1638);
#1640=ORIENTED_EDGE('',*,*,#698,.T.);
#1641=CARTESIAN_POINT('',(18.964538664,3.,10.973833691));
#1642=DIRECTION('',(0.,-1.,0.));
#1643=VECTOR('',#1642,3.);
#1644=LINE('',#1641,#1643);
#1645=EDGE_CURVE('',#693,#449,#1644,.T.);
#1646=ORIENTED_EDGE('',*,*,#1645,.T.);
#1647=ORIENTED_EDGE('',*,*,#454,.F.);
#1648=CARTESIAN_POINT('',(18.964538664,3.,6.473833691));
#1649=DIRECTION('',(0.,-1.,0.));
#1650=VECTOR('',#1649,3.);
#1651=LINE('',#1648,#1650);
#1652=EDGE_CURVE('',#691,#447,#1651,.T.);
#1653=ORIENTED_EDGE('',*,*,#1652,.F.);
#1654=EDGE_LOOP('',(#1640,#1646,#1647,#1653));
#1655=FACE_BOUND('',#1654,.T.);
#1656=ADVANCED_FACE('',(#1655),#1639,.T.);
#1657=CARTESIAN_POINT('',(26.164538664,4.,6.473833691));
#1658=DIRECTION('',(0.,0.,1.));
#1659=DIRECTION('',(1.,0.,0.));
#1660=AXIS2_PLACEMENT_3D('',#1657,#1658,#1659);
#1661=PLANE('',#1660);
#1662=ORIENTED_EDGE('',*,*,#706,.T.);
#1663=ORIENTED_EDGE('',*,*,#1652,.T.);
#1664=ORIENTED_EDGE('',*,*,#476,.F.);
#1665=CARTESIAN_POINT('',(33.364538664,3.,6.473833691));
#1666=DIRECTION('',(0.,-1.,0.));
#1667=VECTOR('',#1666,3.);
#1668=LINE('',#1665,#1667);
#1669=EDGE_CURVE('',#701,#465,#1668,.T.);
#1670=ORIENTED_EDGE('',*,*,#1669,.F.);
#1671=EDGE_LOOP('',(#1662,#1663,#1664,#1670));
#1672=FACE_BOUND('',#1671,.T.);
#1673=ADVANCED_FACE('',(#1672),#1661,.T.);
#1674=CARTESIAN_POINT('',(33.364538664,4.,8.723833691));
#1675=DIRECTION('',(-1.,-0.,0.));
#1676=DIRECTION('',(0.,-1.,0.));
#1677=AXIS2_PLACEMENT_3D('',#1674,#1675,#1676);
#1678=PLANE('',#1677);
#1679=ORIENTED_EDGE('',*,*,#714,.T.);
#1680=ORIENTED_EDGE('',*,*,#1669,.T.);
#1681=ORIENTED_EDGE('',*,*,#470,.F.);
#1682=CARTESIAN_POINT('',(33.364538664,3.,10.973833691));
#1683=DIRECTION('',(0.,-1.,0.));
#1684=VECTOR('',#1683,3.);
#1685=LINE('',#1682,#1684);
#1686=EDGE_CURVE('',#709,#457,#1685,.T.);
#1687=ORIENTED_EDGE('',*,*,#1686,.F.);
#1688=EDGE_LOOP('',(#1679,#1680,#1681,#1687));
#1689=FACE_BOUND('',#1688,.T.);
#1690=ADVANCED_FACE('',(#1689),#1678,.T.);
#1691=CARTESIAN_POINT('',(26.164538664,4.,10.973833691));
#1692=DIRECTION('',(0.,0.,-1.));
#1693=DIRECTION('',(-1.,0.,0.));
#1694=AXIS2_PLACEMENT_3D('',#1691,#1692,#1693);
#1695=PLANE('',#1694);
#1696=ORIENTED_EDGE('',*,*,#720,.T.);
#1697=ORIENTED_EDGE('',*,*,#1686,.T.);
#1698=ORIENTED_EDGE('',*,*,#462,.F.);
#1699=ORIENTED_EDGE('',*,*,#1645,.F.);
#1700=EDGE_LOOP('',(#1696,#1697,#1698,#1699));
#1701=FACE_BOUND('',#1700,.T.);
#1702=ADVANCED_FACE('',(#1701),#1695,.T.);
#1703=CARTESIAN_POINT('',(68.964538664,3.,8.723833691));
#1704=DIRECTION('',(1.,0.,0.));
#1705=DIRECTION('',(-0.,1.,0.));
#1706=AXIS2_PLACEMENT_3D('',#1703,#1704,#1705);
#1707=PLANE('',#1706);
#1708=ORIENTED_EDGE('',*,*,#522,.F.);
#1709=CARTESIAN_POINT('',(68.964538664,3.,6.473833691));
#1710=DIRECTION('',(0.,-1.,0.));
#1711=VECTOR('',#1710,3.);
#1712=LINE('',#1709,#1711);
#1713=EDGE_CURVE('',#759,#515,#1712,.T.);
#1714=ORIENTED_EDGE('',*,*,#1713,.F.);
#1715=ORIENTED_EDGE('',*,*,#766,.T.);
#1716=CARTESIAN_POINT('',(68.964538664,3.,10.973833691));
#1717=DIRECTION('',(0.,-1.,0.));
#1718=VECTOR('',#1717,3.);
#1719=LINE('',#1716,#1718);
#1720=EDGE_CURVE('',#761,#517,#1719,.T.);
#1721=ORIENTED_EDGE('',*,*,#1720,.T.);
#1722=EDGE_LOOP('',(#1708,#1714,#1715,#1721));
#1723=FACE_BOUND('',#1722,.T.);
#1724=ADVANCED_FACE('',(#1723),#1707,.T.);
#1725=CARTESIAN_POINT('',(76.164538664,3.,6.473833691));
#1726=DIRECTION('',(0.,0.,1.));
#1727=DIRECTION('',(1.,0.,0.));
#1728=AXIS2_PLACEMENT_3D('',#1725,#1726,#1727);
#1729=PLANE('',#1728);
#1730=ORIENTED_EDGE('',*,*,#544,.F.);
#1731=CARTESIAN_POINT('',(83.364538664,3.,6.473833691));
#1732=DIRECTION('',(0.,-1.,0.));
#1733=VECTOR('',#1732,3.);
#1734=LINE('',#1731,#1733);
#1735=EDGE_CURVE('',#769,#533,#1734,.T.);
#1736=ORIENTED_EDGE('',*,*,#1735,.F.);
#1737=ORIENTED_EDGE('',*,*,#774,.T.);
#1738=ORIENTED_EDGE('',*,*,#1713,.T.);
#1739=EDGE_LOOP('',(#1730,#1736,#1737,#1738));
#1740=FACE_BOUND('',#1739,.T.);
#1741=ADVANCED_FACE('',(#1740),#1729,.T.);
#1742=CARTESIAN_POINT('',(83.364538664,3.,8.723833691));
#1743=DIRECTION('',(-1.,-0.,0.));
#1744=DIRECTION('',(0.,-1.,0.));
#1745=AXIS2_PLACEMENT_3D('',#1742,#1743,#1744);
#1746=PLANE('',#1745);
#1747=ORIENTED_EDGE('',*,*,#538,.F.);
#1748=CARTESIAN_POINT('',(83.364538664,3.,10.973833691));
#1749=DIRECTION('',(0.,-1.,0.));
#1750=VECTOR('',#1749,3.);
#1751=LINE('',#1748,#1750);
#1752=EDGE_CURVE('',#777,#525,#1751,.T.);
#1753=ORIENTED_EDGE('',*,*,#1752,.F.);
#1754=ORIENTED_EDGE('',*,*,#782,.T.);
#1755=ORIENTED_EDGE('',*,*,#1735,.T.);
#1756=EDGE_LOOP('',(#1747,#1753,#1754,#1755));
#1757=FACE_BOUND('',#1756,.T.);
#1758=ADVANCED_FACE('',(#1757),#1746,.T.);
#1759=CARTESIAN_POINT('',(76.164538664,3.,10.973833691));
#1760=DIRECTION('',(0.,0.,-1.));
#1761=DIRECTION('',(-1.,0.,0.));
#1762=AXIS2_PLACEMENT_3D('',#1759,#1760,#1761);
#1763=PLANE('',#1762);
#1764=ORIENTED_EDGE('',*,*,#530,.F.);
#1765=ORIENTED_EDGE('',*,*,#1720,.F.);
#1766=ORIENTED_EDGE('',*,*,#788,.T.);
#1767=ORIENTED_EDGE('',*,*,#1752,.T.);
#1768=EDGE_LOOP('',(#1764,#1765,#1766,#1767));
#1769=FACE_BOUND('',#1768,.T.);
#1770=ADVANCED_FACE('',(#1769),#1763,.T.);
#1771=CARTESIAN_POINT('',(268.964538664,3.,8.723833691));
#1772=DIRECTION('',(1.,0.,0.));
#1773=DIRECTION('',(-0.,1.,0.));
#1774=AXIS2_PLACEMENT_3D('',#1771,#1772,#1773);
#1775=PLANE('',#1774);
#1776=ORIENTED_EDGE('',*,*,#420,.F.);
#1777=CARTESIAN_POINT('',(268.964538664,3.,6.473833691));
#1778=DIRECTION('',(0.,-1.,0.));
#1779=VECTOR('',#1778,3.);
#1780=LINE('',#1777,#1779);
#1781=EDGE_CURVE('',#657,#413,#1780,.T.);
#1782=ORIENTED_EDGE('',*,*,#1781,.F.);
#1783=ORIENTED_EDGE('',*,*,#664,.T.);
#1784=CARTESIAN_POINT('',(268.964538664,3.,10.973833691));
#1785=DIRECTION('',(0.,-1.,0.));
#1786=VECTOR('',#1785,3.);
#1787=LINE('',#1784,#1786);
#1788=EDGE_CURVE('',#659,#415,#1787,.T.);
#1789=ORIENTED_EDGE('',*,*,#1788,.T.);
#1790=EDGE_LOOP('',(#1776,#1782,#1783,#1789));
#1791=FACE_BOUND('',#1790,.T.);
#1792=ADVANCED_FACE('',(#1791),#1775,.T.);
#1793=CARTESIAN_POINT('',(276.164538664,3.,6.473833691));
#1794=DIRECTION('',(0.,0.,1.));
#1795=DIRECTION('',(1.,0.,0.));
#1796=AXIS2_PLACEMENT_3D('',#1793,#1794,#1795);
#1797=PLANE('',#1796);
#1798=ORIENTED_EDGE('',*,*,#442,.F.);
#1799=CARTESIAN_POINT('',(283.364538664,3.,6.473833691));
#1800=DIRECTION('',(0.,-1.,0.));
#1801=VECTOR('',#1800,3.);
#1802=LINE('',#1799,#1801);
#1803=EDGE_CURVE('',#667,#431,#1802,.T.);
#1804=ORIENTED_EDGE('',*,*,#1803,.F.);
#1805=ORIENTED_EDGE('',*,*,#672,.T.);
#1806=ORIENTED_EDGE('',*,*,#1781,.T.);
#1807=EDGE_LOOP('',(#1798,#1804,#1805,#1806));
#1808=FACE_BOUND('',#1807,.T.);
#1809=ADVANCED_FACE('',(#1808),#1797,.T.);
#1810=CARTESIAN_POINT('',(283.364538664,3.,8.723833691));
#1811=DIRECTION('',(-1.,-0.,0.));
#1812=DIRECTION('',(0.,-1.,0.));
#1813=AXIS2_PLACEMENT_3D('',#1810,#1811,#1812);
#1814=PLANE('',#1813);
#1815=ORIENTED_EDGE('',*,*,#436,.F.);
#1816=CARTESIAN_POINT('',(283.364538664,3.,10.973833691));
#1817=DIRECTION('',(0.,-1.,0.));
#1818=VECTOR('',#1817,3.);
#1819=LINE('',#1816,#1818);
#1820=EDGE_CURVE('',#675,#423,#1819,.T.);
#1821=ORIENTED_EDGE('',*,*,#1820,.F.);
#1822=ORIENTED_EDGE('',*,*,#680,.T.);
#1823=ORIENTED_EDGE('',*,*,#1803,.T.);
#1824=EDGE_LOOP('',(#1815,#1821,#1822,#1823));
#1825=FACE_BOUND('',#1824,.T.);
#1826=ADVANCED_FACE('',(#1825),#1814,.T.);
#1827=CARTESIAN_POINT('',(276.164538664,3.,10.973833691));
#1828=DIRECTION('',(0.,0.,-1.));
#1829=DIRECTION('',(-1.,0.,0.));
#1830=AXIS2_PLACEMENT_3D('',#1827,#1828,#1829);
#1831=PLANE('',#1830);
#1832=ORIENTED_EDGE('',*,*,#428,.F.);
#1833=ORIENTED_EDGE('',*,*,#1788,.F.);
#1834=ORIENTED_EDGE('',*,*,#686,.T.);
#1835=ORIENTED_EDGE('',*,*,#1820,.T.);
#1836=EDGE_LOOP('',(#1832,#1833,#1834,#1835));
#1837=FACE_BOUND('',#1836,.T.);
#1838=ADVANCED_FACE('',(#1837),#1831,.T.);
#1839=CARTESIAN_POINT('',(118.964538664,3.,8.723833691));
#1840=DIRECTION('',(1.,0.,0.));
#1841=DIRECTION('',(-0.,1.,0.));
#1842=AXIS2_PLACEMENT_3D('',#1839,#1840,#1841);
#1843=PLANE('',#1842);
#1844=ORIENTED_EDGE('',*,*,#556,.F.);
#1845=CARTESIAN_POINT('',(118.964538664,3.,6.473833691));
#1846=DIRECTION('',(0.,-1.,0.));
#1847=VECTOR('',#1846,3.);
#1848=LINE('',#1845,#1847);
#1849=EDGE_CURVE('',#793,#549,#1848,.T.);
#1850=ORIENTED_EDGE('',*,*,#1849,.F.);
#1851=ORIENTED_EDGE('',*,*,#800,.T.);
#1852=CARTESIAN_POINT('',(118.964538664,3.,10.973833691));
#1853=DIRECTION('',(0.,-1.,0.));
#1854=VECTOR('',#1853,3.);
#1855=LINE('',#1852,#1854);
#1856=EDGE_CURVE('',#795,#551,#1855,.T.);
#1857=ORIENTED_EDGE('',*,*,#1856,.T.);
#1858=EDGE_LOOP('',(#1844,#1850,#1851,#1857));
#1859=FACE_BOUND('',#1858,.T.);
#1860=ADVANCED_FACE('',(#1859),#1843,.T.);
#1861=CARTESIAN_POINT('',(126.164538664,3.,6.473833691));
#1862=DIRECTION('',(0.,0.,1.));
#1863=DIRECTION('',(1.,0.,0.));
#1864=AXIS2_PLACEMENT_3D('',#1861,#1862,#1863);
#1865=PLANE('',#1864);
#1866=ORIENTED_EDGE('',*,*,#578,.F.);
#1867=CARTESIAN_POINT('',(133.364538664,3.,6.473833691));
#1868=DIRECTION('',(0.,-1.,0.));
#1869=VECTOR('',#1868,3.);
#1870=LINE('',#1867,#1869);
#1871=EDGE_CURVE('',#803,#567,#1870,.T.);
#1872=ORIENTED_EDGE('',*,*,#1871,.F.);
#1873=ORIENTED_EDGE('',*,*,#808,.T.);
#1874=ORIENTED_EDGE('',*,*,#1849,.T.);
#1875=EDGE_LOOP('',(#1866,#1872,#1873,#1874));
#1876=FACE_BOUND('',#1875,.T.);
#1877=ADVANCED_FACE('',(#1876),#1865,.T.);
#1878=CARTESIAN_POINT('',(133.364538664,3.,8.723833691));
#1879=DIRECTION('',(-1.,-0.,0.));
#1880=DIRECTION('',(0.,-1.,0.));
#1881=AXIS2_PLACEMENT_3D('',#1878,#1879,#1880);
#1882=PLANE('',#1881);
#1883=ORIENTED_EDGE('',*,*,#572,.F.);
#1884=CARTESIAN_POINT('',(133.364538664,3.,10.973833691));
#1885=DIRECTION('',(0.,-1.,0.));
#1886=VECTOR('',#1885,3.);
#1887=LINE('',#1884,#1886);
#1888=EDGE_CURVE('',#811,#559,#1887,.T.);
#1889=ORIENTED_EDGE('',*,*,#1888,.F.);
#1890=ORIENTED_EDGE('',*,*,#816,.T.);
#1891=ORIENTED_EDGE('',*,*,#1871,.T.);
#1892=EDGE_LOOP('',(#1883,#1889,#1890,#1891));
#1893=FACE_BOUND('',#1892,.T.);
#1894=ADVANCED_FACE('',(#1893),#1882,.T.);
#1895=CARTESIAN_POINT('',(126.164538664,3.,10.973833691));
#1896=DIRECTION('',(0.,0.,-1.));
#1897=DIRECTION('',(-1.,0.,0.));
#1898=AXIS2_PLACEMENT_3D('',#1895,#1896,#1897);
#1899=PLANE('',#1898);
#1900=ORIENTED_EDGE('',*,*,#564,.F.);
#1901=ORIENTED_EDGE('',*,*,#1856,.F.);
#1902=ORIENTED_EDGE('',*,*,#822,.T.);
#1903=ORIENTED_EDGE('',*,*,#1888,.T.);
#1904=EDGE_LOOP('',(#1900,#1901,#1902,#1903));
#1905=FACE_BOUND('',#1904,.T.);
#1906=ADVANCED_FACE('',(#1905),#1899,.T.);
#1907=CARTESIAN_POINT('',(168.964538664,3.,8.723833691));
#1908=DIRECTION('',(1.,0.,0.));
#1909=DIRECTION('',(-0.,1.,0.));
#1910=AXIS2_PLACEMENT_3D('',#1907,#1908,#1909);
#1911=PLANE('',#1910);
#1912=ORIENTED_EDGE('',*,*,#386,.F.);
#1913=CARTESIAN_POINT('',(168.964538664,3.,6.473833691));
#1914=DIRECTION('',(0.,-1.,0.));
#1915=VECTOR('',#1914,3.);
#1916=LINE('',#1913,#1915);
#1917=EDGE_CURVE('',#623,#379,#1916,.T.);
#1918=ORIENTED_EDGE('',*,*,#1917,.F.);
#1919=ORIENTED_EDGE('',*,*,#630,.T.);
#1920=CARTESIAN_POINT('',(168.964538664,3.,10.973833691));
#1921=DIRECTION('',(0.,-1.,0.));
#1922=VECTOR('',#1921,3.);
#1923=LINE('',#1920,#1922);
#1924=EDGE_CURVE('',#625,#381,#1923,.T.);
#1925=ORIENTED_EDGE('',*,*,#1924,.T.);
#1926=EDGE_LOOP('',(#1912,#1918,#1919,#1925));
#1927=FACE_BOUND('',#1926,.T.);
#1928=ADVANCED_FACE('',(#1927),#1911,.T.);
#1929=CARTESIAN_POINT('',(176.164538664,3.,6.473833691));
#1930=DIRECTION('',(0.,0.,1.));
#1931=DIRECTION('',(1.,0.,0.));
#1932=AXIS2_PLACEMENT_3D('',#1929,#1930,#1931);
#1933=PLANE('',#1932);
#1934=ORIENTED_EDGE('',*,*,#408,.F.);
#1935=CARTESIAN_POINT('',(183.364538664,3.,6.473833691));
#1936=DIRECTION('',(0.,-1.,0.));
#1937=VECTOR('',#1936,3.);
#1938=LINE('',#1935,#1937);
#1939=EDGE_CURVE('',#633,#397,#1938,.T.);
#1940=ORIENTED_EDGE('',*,*,#1939,.F.);
#1941=ORIENTED_EDGE('',*,*,#638,.T.);
#1942=ORIENTED_EDGE('',*,*,#1917,.T.);
#1943=EDGE_LOOP('',(#1934,#1940,#1941,#1942));
#1944=FACE_BOUND('',#1943,.T.);
#1945=ADVANCED_FACE('',(#1944),#1933,.T.);
#1946=CARTESIAN_POINT('',(183.364538664,3.,8.723833691));
#1947=DIRECTION('',(-1.,-0.,0.));
#1948=DIRECTION('',(0.,-1.,0.));
#1949=AXIS2_PLACEMENT_3D('',#1946,#1947,#1948);
#1950=PLANE('',#1949);
#1951=ORIENTED_EDGE('',*,*,#402,.F.);
#1952=CARTESIAN_POINT('',(183.364538664,3.,10.973833691));
#1953=DIRECTION('',(0.,-1.,0.));
#1954=VECTOR('',#1953,3.);
#1955=LINE('',#1952,#1954);
#1956=EDGE_CURVE('',#641,#389,#1955,.T.);
#1957=ORIENTED_EDGE('',*,*,#1956,.F.);
#1958=ORIENTED_EDGE('',*,*,#646,.T.);
#1959=ORIENTED_EDGE('',*,*,#1939,.T.);
#1960=EDGE_LOOP('',(#1951,#1957,#1958,#1959));
#1961=FACE_BOUND('',#1960,.T.);
#1962=ADVANCED_FACE('',(#1961),#1950,.T.);
#1963=CARTESIAN_POINT('',(176.164538664,3.,10.973833691));
#1964=DIRECTION('',(0.,0.,-1.));
#1965=DIRECTION('',(-1.,0.,0.));
#1966=AXIS2_PLACEMENT_3D('',#1963,#1964,#1965);
#1967=PLANE('',#1966);
#1968=ORIENTED_EDGE('',*,*,#394,.F.);
#1969=ORIENTED_EDGE('',*,*,#1924,.F.);
#1970=ORIENTED_EDGE('',*,*,#652,.T.);
#1971=ORIENTED_EDGE('',*,*,#1956,.T.);
#1972=EDGE_LOOP('',(#1968,#1969,#1970,#1971));
#1973=FACE_BOUND('',#1972,.T.);
#1974=ADVANCED_FACE('',(#1973),#1967,.T.);
#1975=CARTESIAN_POINT('',(218.964538664,3.,8.723833691));
#1976=DIRECTION('',(1.,0.,0.));
#1977=DIRECTION('',(-0.,1.,0.));
#1978=AXIS2_PLACEMENT_3D('',#1975,#1976,#1977);
#1979=PLANE('',#1978);
#1980=ORIENTED_EDGE('',*,*,#590,.F.);
#1981=CARTESIAN_POINT('',(218.964538664,3.,6.473833691));
#1982=DIRECTION('',(0.,-1.,0.));
#1983=VECTOR('',#1982,3.);
#1984=LINE('',#1981,#1983);
#1985=EDGE_CURVE('',#827,#583,#1984,.T.);
#1986=ORIENTED_EDGE('',*,*,#1985,.F.);
#1987=ORIENTED_EDGE('',*,*,#834,.T.);
#1988=CARTESIAN_POINT('',(218.964538664,3.,10.973833691));
#1989=DIRECTION('',(0.,-1.,0.));
#1990=VECTOR('',#1989,3.);
#1991=LINE('',#1988,#1990);
#1992=EDGE_CURVE('',#829,#585,#1991,.T.);
#1993=ORIENTED_EDGE('',*,*,#1992,.T.);
#1994=EDGE_LOOP('',(#1980,#1986,#1987,#1993));
#1995=FACE_BOUND('',#1994,.T.);
#1996=ADVANCED_FACE('',(#1995),#1979,.T.);
#1997=CARTESIAN_POINT('',(226.164538664,3.,6.473833691));
#1998=DIRECTION('',(0.,0.,1.));
#1999=DIRECTION('',(1.,0.,0.));
#2000=AXIS2_PLACEMENT_3D('',#1997,#1998,#1999);
#2001=PLANE('',#2000);
#2002=ORIENTED_EDGE('',*,*,#612,.F.);
#2003=CARTESIAN_POINT('',(233.364538664,3.,6.473833691));
#2004=DIRECTION('',(0.,-1.,0.));
#2005=VECTOR('',#2004,3.);
#2006=LINE('',#2003,#2005);
#2007=EDGE_CURVE('',#837,#601,#2006,.T.);
#2008=ORIENTED_EDGE('',*,*,#2007,.F.);
#2009=ORIENTED_EDGE('',*,*,#842,.T.);
#2010=ORIENTED_EDGE('',*,*,#1985,.T.);
#2011=EDGE_LOOP('',(#2002,#2008,#2009,#2010));
#2012=FACE_BOUND('',#2011,.T.);
#2013=ADVANCED_FACE('',(#2012),#2001,.T.);
#2014=CARTESIAN_POINT('',(233.364538664,3.,8.723833691));
#2015=DIRECTION('',(-1.,-0.,0.));
#2016=DIRECTION('',(0.,-1.,0.));
#2017=AXIS2_PLACEMENT_3D('',#2014,#2015,#2016);
#2018=PLANE('',#2017);
#2019=ORIENTED_EDGE('',*,*,#606,.F.);
#2020=CARTESIAN_POINT('',(233.364538664,3.,10.973833691));
#2021=DIRECTION('',(0.,-1.,0.));
#2022=VECTOR('',#2021,3.);
#2023=LINE('',#2020,#2022);
#2024=EDGE_CURVE('',#845,#593,#2023,.T.);
#2025=ORIENTED_EDGE('',*,*,#2024,.F.);
#2026=ORIENTED_EDGE('',*,*,#850,.T.);
#2027=ORIENTED_EDGE('',*,*,#2007,.T.);
#2028=EDGE_LOOP('',(#2019,#2025,#2026,#2027));
#2029=FACE_BOUND('',#2028,.T.);
#2030=ADVANCED_FACE('',(#2029),#2018,.T.);
#2031=CARTESIAN_POINT('',(226.164538664,3.,10.973833691));
#2032=DIRECTION('',(0.,0.,-1.));
#2033=DIRECTION('',(-1.,0.,0.));
#2034=AXIS2_PLACEMENT_3D('',#2031,#2032,#2033);
#2035=PLANE('',#2034);
#2036=ORIENTED_EDGE('',*,*,#598,.F.);
#2037=ORIENTED_EDGE('',*,*,#1992,.F.);
#2038=ORIENTED_EDGE('',*,*,#856,.T.);
#2039=ORIENTED_EDGE('',*,*,#2024,.T.);
#2040=EDGE_LOOP('',(#2036,#2037,#2038,#2039));
#2041=FACE_BOUND('',#2040,.T.);
#2042=ADVANCED_FACE('',(#2041),#2035,.T.);
#2043=CARTESIAN_POINT('',(297.710627317,14.804133214,0.5));
#2044=DIRECTION('',(0.,0.,-1.));
#2045=DIRECTION('',(-1.,0.,0.));
#2046=AXIS2_PLACEMENT_3D('',#2043,#2044,#2045);
#2047=CYLINDRICAL_SURFACE('',#2046,1.5);
#2048=CARTESIAN_POINT('',(296.210627317,14.804133214,0.5));
#2049=VERTEX_POINT('',#2048);
#2050=CARTESIAN_POINT('',(296.210627317,14.804133214,-5.));
#2051=DIRECTION('',(-0.,-0.,1.));
#2052=VECTOR('',#2051,5.5);
#2053=LINE('',#2050,#2052);
#2054=EDGE_CURVE('',#1148,#2049,#2053,.T.);
#2055=ORIENTED_EDGE('',*,*,#2054,.F.);
#2056=ORIENTED_EDGE('',*,*,#1154,.T.);
#2057=ORIENTED_EDGE('',*,*,#2054,.T.);
#2058=CARTESIAN_POINT('',(297.710627317,14.804133214,0.5));
#2059=DIRECTION('',(0.,0.,-1.));
#2060=DIRECTION('',(-1.,0.,0.));
#2061=AXIS2_PLACEMENT_3D('',#2058,#2059,#2060);
#2062=CIRCLE('',#2061,1.5);
#2063=EDGE_CURVE('',#2049,#2049,#2062,.T.);
#2064=ORIENTED_EDGE('',*,*,#2063,.F.);
#2065=EDGE_LOOP('',(#2055,#2056,#2057,#2064));
#2066=FACE_BOUND('',#2065,.T.);
#2067=ADVANCED_FACE('',(#2066),#2047,.F.);
#2068=CARTESIAN_POINT('',(0.,0.,0.5));
#2069=DIRECTION('',(0.,0.,-1.));
#2070=DIRECTION('',(-1.,0.,0.));
#2071=AXIS2_PLACEMENT_3D('',#2068,#2069,#2070);
#2072=PLANE('',#2071);
#2073=ORIENTED_EDGE('',*,*,#2063,.T.);
#2074=EDGE_LOOP('',(#2073));
#2075=FACE_BOUND('',#2074,.T.);
#2076=ADVANCED_FACE('',(#2075),#2072,.T.);
#2077=CARTESIAN_POINT('',(2.5,15.,0.5));
#2078=DIRECTION('',(0.,0.,-1.));
#2079=DIRECTION('',(-1.,0.,0.));
#2080=AXIS2_PLACEMENT_3D('',#2077,#2078,#2079);
#2081=CYLINDRICAL_SURFACE('',#2080,1.5);
#2082=CARTESIAN_POINT('',(1.,15.,0.5));
#2083=VERTEX_POINT('',#2082);
#2084=CARTESIAN_POINT('',(1.,15.,-5.));
#2085=DIRECTION('',(-0.,-0.,1.));
#2086=VECTOR('',#2085,5.5);
#2087=LINE('',#2084,#2086);
#2088=EDGE_CURVE('',#1137,#2083,#2087,.T.);
#2089=ORIENTED_EDGE('',*,*,#2088,.F.);
#2090=ORIENTED_EDGE('',*,*,#1143,.T.);
#2091=ORIENTED_EDGE('',*,*,#2088,.T.);
#2092=CARTESIAN_POINT('',(2.5,15.,0.5));
#2093=DIRECTION('',(0.,0.,-1.));
#2094=DIRECTION('',(-1.,0.,0.));
#2095=AXIS2_PLACEMENT_3D('',#2092,#2093,#2094);
#2096=CIRCLE('',#2095,1.5);
#2097=EDGE_CURVE('',#2083,#2083,#2096,.T.);
#2098=ORIENTED_EDGE('',*,*,#2097,.F.);
#2099=EDGE_LOOP('',(#2089,#2090,#2091,#2098));
#2100=FACE_BOUND('',#2099,.T.);
#2101=ADVANCED_FACE('',(#2100),#2081,.F.);
#2102=CARTESIAN_POINT('',(0.,0.,0.5));
#2103=DIRECTION('',(0.,0.,-1.));
#2104=DIRECTION('',(-1.,0.,0.));
#2105=AXIS2_PLACEMENT_3D('',#2102,#2103,#2104);
#2106=PLANE('',#2105);
#2107=ORIENTED_EDGE('',*,*,#2097,.T.);
#2108=EDGE_LOOP('',(#2107));
#2109=FACE_BOUND('',#2108,.T.);
#2110=ADVANCED_FACE('',(#2109),#2106,.T.);
#2111=CLOSED_SHELL('',(#616,#860,#968,#1074,#1096,#1118,#1130,#1180,#1197,#1214,#1273,#1306,#1331,#1343,#1352,#1385,#1410,#1422,#1431,#1473,#1498,#1510,#1520,#1537,#1554,#1566,
#1588,#1605,#1622,#1634,#1656,#1673,#1690,#1702,#1724,#1741,#1758,#1770,#1792,#1809,#1826,#1838,#1860,#1877,#1894,#1906,#1928,#1945,#1962,#1974,#1996,
#2013,#2030,#2042,#2067,#2076,#2101,#2110));
#2112=MANIFOLD_SOLID_BREP('hub/fn row',#2111);
#372=STYLED_ITEM('',(#371),#2112);
#16=SHAPE_REPRESENTATION('root',(#15),#10);
#17=ADVANCED_BREP_SHAPE_REPRESENTATION('root',(#364,#2112),#10);
#2120=SHAPE_REPRESENTATION_RELATIONSHIP('','',#16,#17);
#2121=CARTESIAN_POINT('',(0.,0.,0.));
#2122=DIRECTION('',(0.,0.,1.));
#2123=DIRECTION('',(1.,0.,0.));
#2124=AXIS2_PLACEMENT_3D('',#2121,#2122,#2123);
#2126=MAPPED_ITEM('',#2125,#2124);
#2125=REPRESENTATION_MAP(#2124,#16);
#2127=APPLICATION_CONTEXT('Managed model based 3d engineering');
#2128=APPLICATION_PROTOCOL_DEFINITION('international standard','ap242_managed_model_based_3d_engineering',2014,#2127);
#2129=PRODUCT_CONTEXT('',#2127,'mechanical');
#2130=PRODUCT_DEFINITION_CONTEXT('part definition',#2127,'design');
#24=PRODUCT('root','root','',(#2129));
#2131=PRODUCT_RELATED_PRODUCT_CATEGORY('part','',(#24));
#2132=PRODUCT_DEFINITION_FORMATION_WITH_SPECIFIED_SOURCE('','',#24,.NOT_KNOWN.);
#25=PRODUCT_DEFINITION('design','',#2132,#2130);
#23=PRODUCT_DEFINITION_SHAPE('','',#25);
#2133=SHAPE_DEFINITION_REPRESENTATION(#23,#16);
#11=DRAUGHTING_MODEL('',(#2126),#10);
#2134=DESCRIPTIVE_REPRESENTATION_ITEM('KEY','C:\\Users\\cybdo\\AppData\\Local\\Packages\\Shapr3D.Shapr3D_j403pzjkqtqbj\\TempState\\bf2ae453-6cf1-4a7f-b938-b61d862f7025.tmp');
#2135=PROPERTY_DEFINITION('KEY','',#25);
#2136=REPRESENTATION('',(#2134),#10);
#2137=PROPERTY_DEFINITION_REPRESENTATION(#2135,#2136);
#2138=GENERAL_PROPERTY('','KEY','');
#2139=GENERAL_PROPERTY_ASSOCIATION('','',#2138,#2135);
#1=MECHANICAL_DESIGN_GEOMETRIC_PRESENTATION_REPRESENTATION('',(#26,#372),#10);
ENDSEC;
END-ISO-10303-21;
